<svg id="Слой_1" data-name="Слой 1" xmlns="http://www.w3.org/2000/svg" viewBox="0 0 256 256"><defs><style>.cls-1{fill:#66d7ff;}.cls-2{fill:#f4f5e5;}</style></defs><path class="cls-1" d="M205.3,180.15H84.72a30.27,30.27,0,0,1-30.1-25.87L39.45,54.45A11.25,11.25,0,0,1,50.56,41.52H232.47A21.82,21.82,0,0,1,253.82,67.9L235.07,156A30.58,30.58,0,0,1,205.3,180.15Z"/><path class="cls-1" d="M50.55,64a11.24,11.24,0,0,1-11.13-9.77l-1.6-12.14a5.58,5.58,0,0,0-5.51-4.83H12.65a11.24,11.24,0,0,1,0-22.48H32.31a28.13,28.13,0,0,1,27.8,24.37l1.6,12.14A11.25,11.25,0,0,1,52,63.91,12.25,12.25,0,0,1,50.55,64Z"/><circle class="cls-1" cx="78.82" cy="218.45" r="22.48"/><circle class="cls-1" cx="205.78" cy="218.45" r="22.48"/><path class="cls-2" d="M99.31,121.77,164.54,83.6c6.85-4,41-16.77,44.43-9.94h0c3.41,6.84-27.32,26.47-34.64,29.54l-69.72,29.18c-2,.83-9.56,1.41-10.87-1.2h0C92.43,128.56,97.44,122.86,99.31,121.77Z"/><polygon class="cls-2" points="164.67 160.67 147 108.21 143.55 100.7 112.81 55.68 120.17 52.3 170.53 86.4 175.25 99.96 171.87 157.36 164.67 160.67"/><polyline class="cls-2" points="100.77 131.36 104.7 150.21 110.02 147.77 117.13 126.11 113.03 117.19 112.24 115.47 89.72 106.48 84.4 108.93 98.79 125.8"/><path class="cls-2" d="M152.65,136.25l5.54-2.54a2.54,2.54,0,0,1,3.38,1.25h0a2.55,2.55,0,0,1-1.25,3.38l-5.54,2.54a2.55,2.55,0,0,1-3.38-1.25h0A2.57,2.57,0,0,1,152.65,136.25Z"/><path class="cls-2" d="M149.12,125.27l5.54-2.55A2.56,2.56,0,0,1,158,124h0a2.55,2.55,0,0,1-1.25,3.38l-5.54,2.55a2.56,2.56,0,0,1-3.38-1.25h0A2.55,2.55,0,0,1,149.12,125.27Z"/><path class="cls-2" d="M132.33,90.4l5.54-2.55a2.55,2.55,0,0,1,3.38,1.25h0A2.55,2.55,0,0,1,140,92.48L134.46,95a2.57,2.57,0,0,1-3.38-1.25h0A2.56,2.56,0,0,1,132.33,90.4Z"/><path class="cls-2" d="M125.2,81.07l5.54-2.55a2.55,2.55,0,0,1,3.38,1.25h0a2.55,2.55,0,0,1-1.25,3.38l-5.54,2.55A2.56,2.56,0,0,1,124,84.45h0A2.55,2.55,0,0,1,125.2,81.07Z"/></svg>