<svg xmlns="http://www.w3.org/2000/svg" viewBox="0 0 858.64 252.14"><defs><style>.cls-1{fill:#067ffe;}.cls-2{font-size:48px;fill:#fff;font-family:Arial-BoldMT, Arial;font-weight:700;}.cls-3{letter-spacing:-0.04em;}.cls-4{letter-spacing:-0.06em;}.cls-5{letter-spacing:0.04em;}</style></defs><g id="Слой_2" data-name="Слой 2"><g id="Objects"><path class="cls-1" d="M0,68.15V176.33a68.15,68.15,0,0,0,68.15,68.14H767.49a67.83,67.83,0,0,0,41.1-13.78c25.29,17.33,50,21.45,50,21.45s-23-21.3-23-75.81V68.15A68.15,68.15,0,0,0,767.49,0H68.15A68.15,68.15,0,0,0,0,68.15Z"/><text class="cls-2" transform="translate(627.7 72.12)">Sure!<tspan x="-395.6" y="57.6">Let</tspan><tspan class="cls-3" x="-323.6" y="57.6">’</tspan><tspan x="-312.05" y="57.6">s check the info on</tspan><tspan class="cls-4" x="-280.17" y="115.2">T</tspan><tspan x="-253.5" y="115.2">ravelle</tspan><tspan class="cls-5" x="-101.37" y="115.2">r</tspan><tspan class="cls-3" x="-80.91" y="115.2">’</tspan><tspan x="-69.35" y="115.2">s Portal!</tspan></text></g></g></svg>