<svg id="_лой_1" data-name="‘лой_1" xmlns="http://www.w3.org/2000/svg" viewBox="0 0 3063.91 1705.68"><defs><style>.cls-1{fill:#ebf3fa;}.cls-2{fill:#e3eefa;}.cls-3{fill:#dce8f7;}.cls-4{opacity:0.2;}.cls-5{fill:#e58638;}.cls-6{fill:#afcdfb;}.cls-7{fill:#739af0;}.cls-8{fill:#699ff0;}.cls-9{fill:#2b478b;}.cls-10,.cls-43{fill:#d86713;}.cls-11{opacity:0.8;}.cls-12{fill:#f8fbff;opacity:0.7;}.cls-13{fill:#c5d8f9;}.cls-14{fill:#d2e0ff;}.cls-15{fill:#86a7f2;}.cls-16{fill:#aec3ff;}.cls-17{fill:#c5d7ff;}.cls-18{fill:#233862;}.cls-19{fill:#ffb27d;}.cls-20{fill:#fff;}.cls-21{fill:#163560;}.cls-22{fill:#b24940;}.cls-23{fill:#ed975d;}.cls-24{fill:#e0eafc;}.cls-25{fill:#c65447;}.cls-26{fill:#1c468a;}.cls-27{fill:#efcdaf;}.cls-28{fill:#2c3a64;}.cls-29{fill:#ffc299;}.cls-30{fill:#212d4c;}.cls-31{fill:#b64c41;}.cls-32{fill:#f9ddbf;}.cls-33{fill:#f1a34f;}.cls-34{fill:#ed7d2b;}.cls-35{fill:#f99746;}.cls-36{fill:#466aa5;}.cls-37{fill:#ed9e69;}.cls-38{fill:#d9935c;}.cls-39{fill:#e8945b;}.cls-40{fill:#2a4e96;}.cls-41{fill:#4a75cb;}.cls-42{fill:#d37129;}.cls-43{opacity:0.4;}.cls-44{fill:#f49f64;}.cls-45{fill:#aa413e;}.cls-46{fill:#ee9849;}.cls-47{fill:#963333;}.cls-48{fill:#fca56b;}.cls-49{fill:#4a82d3;}.cls-50{fill:#6793e7;}.cls-51{fill:#ecf3fe;}.cls-52{fill:#d36c26;}.cls-53{fill:#dfebfd;}.cls-54{fill:#77a4e5;}.cls-55{fill:#9fc1f4;}.cls-56{fill:#ef8e4b;}.cls-57{fill:#f79857;}.cls-58{fill:#ffa561;}.cls-59{fill:#235187;}.cls-60{fill:#17467f;}.cls-61{fill:#0c2442;}</style></defs><rect class="cls-1" width="3063.9" height="1705.68"/><rect class="cls-2" y="473.34" width="3063.91" height="711.08"/><path class="cls-3" d="M1862.56,553.85c-16.27-1.48-35.11.29-52.74,3.25l39.83-159.49-21.65.54a12.18,12.18,0,0,0-4.5,1.23c-28.38,12.69-117.43,118.69-126,127.7-7.34,7.75-71.88,23.93-96,29.75-18.3.06-38.07.15-58.85.27,6.79-14.5,13.72-29.76,13.72-29.76a33.88,33.88,0,0,0-9.64,2.3,7.1,7.1,0,0,0-3,2.35l-24.08,25.25c-73.86.48-157.52,1.26-231.45,2-111.65,1.15-201.1,2.27-201.1,2.27-56.21,1-86.74,16.56-101,26.32-4,2.73-6.7,5-8.35,6.38l-.3.25c-7,5.87-32.58,10.11-38.3,24.59s63.15,31.56,95.82,35.31c10.93,1.25,68.91,1.36,143.53.91,20-.12,41.12-.28,62.88-.47l.1,13.62a49.06,49.06,0,0,0,6.85,2.13c7.24,1.81,20.27,4,39.33,3.42,31.13-1,50.26-7.77,50.26-7.77l0-4.33a117.71,117.71,0,0,0,19.37-5.42,8.53,8.53,0,0,0,3.84-2.88c102.63-1.19,195.85-2.56,221.19-3,45.22-.75,144.43-28.16,200.05-44.78l.6-.19c15.61-4.66,27.71-8.46,34.12-10.55l3.38-1.12a15.6,15.6,0,0,0,6-3.56c4.81-4.72,5-12,4.07-18Z"/><g class="cls-4"><path class="cls-5" d="M1467.09,530.58l-57.7,231.08-2.76-.06-298.47-5.7s133.93-31.2,146.56-44.55c11.9-12.57,136.24-160.58,175.86-178.29a17,17,0,0,1,6.29-1.73Z"/><path class="cls-5" d="M1426.41,804.75c-6.55,2.23-26.19,8.49-53.21,16.56-77.65,23.21-216.17,61.48-279.32,62.53-56.65.94-356.3,5.28-563.8,6.53C571.49,821.06,629,780.28,683.23,756.29c241.62-2.49,557.69-5.11,598.32-2.18,66.83,4.81,154.88,6.29,154.88,6.29s.84,2,1.81,5.1C1441.4,775.67,1445.83,798.11,1426.41,804.75Z"/><path class="cls-6" d="M1426.41,804.75c-6.55,2.23-26.19,8.49-53.21,16.56-77.65,23.21-216.17,61.48-279.32,62.53-56.65.94-356.3,5.28-563.8,6.53-104.2.64-185.15.49-200.41-1.26C284,883.87,187.89,860,195.86,839.8s43.66-26.13,53.49-34.32l.41-.36c2.31-1.91,6.1-5.09,11.67-8.91,19.9-13.63,62.52-35.36,141-36.75,0,0,124.9-1.56,280.8-3.17,241.62-2.49,557.69-5.11,598.32-2.18,66.83,4.81,154.88,6.29,154.88,6.29s.84,2,1.81,5.1C1441.4,775.67,1445.83,798.11,1426.41,804.75Z"/><path class="cls-7" d="M1426.4,804.75c-6.54,2.24-26.19,8.49-53.19,16.56-13-28.52-44.44-38.56-44.44-38.56l109.47-17.26C1441.4,775.67,1445.83,798.12,1426.4,804.75Z"/><path class="cls-8" d="M1167.45,806h0a3.4,3.4,0,0,1-3.4-3.36l0-3.58a3.39,3.39,0,0,1,3.36-3.4h0a3.37,3.37,0,0,1,3.4,3.35l0,3.58A3.4,3.4,0,0,1,1167.45,806Z"/><path class="cls-8" d="M1150,806.1h0a3.39,3.39,0,0,1-3.41-3.35l0-3.58a3.39,3.39,0,0,1,3.35-3.41h0a3.4,3.4,0,0,1,3.41,3.36l0,3.58A3.37,3.37,0,0,1,1150,806.1Z"/><path class="cls-8" d="M1132.58,806.23h0a3.39,3.39,0,0,1-3.4-3.36l0-3.57a3.4,3.4,0,0,1,3.36-3.41h0a3.39,3.39,0,0,1,3.4,3.36l0,3.58A3.4,3.4,0,0,1,1132.58,806.23Z"/><path class="cls-8" d="M1115.15,806.36h0a3.4,3.4,0,0,1-3.41-3.36l0-3.58a3.39,3.39,0,0,1,3.36-3.4h0a3.37,3.37,0,0,1,3.4,3.35l0,3.58A3.4,3.4,0,0,1,1115.15,806.36Z"/><path class="cls-8" d="M1097.71,806.48h0a3.39,3.39,0,0,1-3.41-3.35l0-3.58a3.39,3.39,0,0,1,3.35-3.41h0a3.4,3.4,0,0,1,3.41,3.36l0,3.58A3.37,3.37,0,0,1,1097.71,806.48Z"/><path class="cls-8" d="M1080.27,806.61h0a3.39,3.39,0,0,1-3.4-3.35l0-3.58a3.4,3.4,0,0,1,3.36-3.41h0a3.39,3.39,0,0,1,3.4,3.36l0,3.58A3.39,3.39,0,0,1,1080.27,806.61Z"/><path class="cls-8" d="M1062.84,806.74h0a3.4,3.4,0,0,1-3.41-3.36l0-3.58a3.39,3.39,0,0,1,3.36-3.4h0a3.39,3.39,0,0,1,3.4,3.35l0,3.58A3.4,3.4,0,0,1,1062.84,806.74Z"/><path class="cls-8" d="M1045.4,806.87h0a3.4,3.4,0,0,1-3.41-3.36l0-3.58a3.37,3.37,0,0,1,3.35-3.4h0a3.39,3.39,0,0,1,3.41,3.35l0,3.58A3.39,3.39,0,0,1,1045.4,806.87Z"/><path class="cls-8" d="M1028,807h0a3.37,3.37,0,0,1-3.4-3.35l0-3.58a3.4,3.4,0,0,1,3.36-3.41h0a3.39,3.39,0,0,1,3.4,3.36l0,3.58A3.39,3.39,0,0,1,1028,807Z"/><path class="cls-8" d="M822.5,808.49h0a3.38,3.38,0,0,1-3.4-3.35l0-3.58a3.4,3.4,0,0,1,3.36-3.41h0a3.39,3.39,0,0,1,3.4,3.36l0,3.58A3.39,3.39,0,0,1,822.5,808.49Z"/><path class="cls-8" d="M805.07,808.62h0a3.4,3.4,0,0,1-3.41-3.36l0-3.58a3.38,3.38,0,0,1,3.35-3.4h0a3.4,3.4,0,0,1,3.41,3.35l0,3.58A3.39,3.39,0,0,1,805.07,808.62Z"/><path class="cls-8" d="M787.63,808.75h0a3.4,3.4,0,0,1-3.41-3.36l0-3.58a3.39,3.39,0,0,1,3.35-3.4h0a3.38,3.38,0,0,1,3.41,3.35l0,3.58A3.4,3.4,0,0,1,787.63,808.75Z"/><path class="cls-8" d="M770.19,808.87h0a3.37,3.37,0,0,1-3.4-3.35l0-3.58a3.4,3.4,0,0,1,3.36-3.41h0a3.39,3.39,0,0,1,3.4,3.36l0,3.58A3.39,3.39,0,0,1,770.19,808.87Z"/><path class="cls-8" d="M752.76,809h0a3.4,3.4,0,0,1-3.41-3.36l0-3.57a3.38,3.38,0,0,1,3.35-3.41h0a3.4,3.4,0,0,1,3.41,3.36l0,3.58A3.38,3.38,0,0,1,752.76,809Z"/><path class="cls-8" d="M735.32,809.13h0a3.39,3.39,0,0,1-3.4-3.36l0-3.58a3.39,3.39,0,0,1,3.36-3.4h0a3.38,3.38,0,0,1,3.4,3.35l0,3.58A3.4,3.4,0,0,1,735.32,809.13Z"/><path class="cls-8" d="M717.88,809.25h0a3.37,3.37,0,0,1-3.4-3.35l0-3.58a3.4,3.4,0,0,1,3.36-3.41h0a3.39,3.39,0,0,1,3.4,3.36l0,3.58A3.39,3.39,0,0,1,717.88,809.25Z"/><path class="cls-8" d="M700.45,809.38h0A3.39,3.39,0,0,1,697,806l0-3.58a3.39,3.39,0,0,1,3.35-3.41h0a3.4,3.4,0,0,1,3.41,3.36l0,3.58A3.37,3.37,0,0,1,700.45,809.38Z"/><path class="cls-8" d="M683,809.51h0a3.39,3.39,0,0,1-3.4-3.36l0-3.58a3.4,3.4,0,0,1,3.36-3.4h0a3.39,3.39,0,0,1,3.4,3.35l0,3.58A3.4,3.4,0,0,1,683,809.51Z"/><path class="cls-8" d="M615.54,810h0a3.4,3.4,0,0,1-3.41-3.35l0-3.58a3.4,3.4,0,0,1,3.36-3.41h0a3.39,3.39,0,0,1,3.4,3.36l0,3.58A3.39,3.39,0,0,1,615.54,810Z"/><path class="cls-8" d="M649.63,809.75h0a3.39,3.39,0,0,1-3.41-3.35l0-3.58a3.39,3.39,0,0,1,3.35-3.41h0a3.4,3.4,0,0,1,3.41,3.36l0,3.58A3.37,3.37,0,0,1,649.63,809.75Z"/><path class="cls-8" d="M598.1,810.13h0a3.4,3.4,0,0,1-3.41-3.36l0-3.58a3.37,3.37,0,0,1,3.35-3.4h0a3.4,3.4,0,0,1,3.41,3.35l0,3.58A3.39,3.39,0,0,1,598.1,810.13Z"/><path class="cls-8" d="M580.66,810.26h0a3.39,3.39,0,0,1-3.4-3.36l0-3.58a3.39,3.39,0,0,1,3.36-3.4h0a3.37,3.37,0,0,1,3.4,3.35l0,3.58A3.4,3.4,0,0,1,580.66,810.26Z"/><path class="cls-8" d="M563.23,810.38h0a3.38,3.38,0,0,1-3.41-3.35l0-3.58a3.4,3.4,0,0,1,3.36-3.41h0a3.39,3.39,0,0,1,3.4,3.36l0,3.58A3.39,3.39,0,0,1,563.23,810.38Z"/><path class="cls-8" d="M545.79,810.51h0a3.4,3.4,0,0,1-3.41-3.36l0-3.57a3.38,3.38,0,0,1,3.35-3.41h0a3.4,3.4,0,0,1,3.41,3.36l0,3.57A3.38,3.38,0,0,1,545.79,810.51Z"/><path class="cls-8" d="M528.35,810.64h0a3.39,3.39,0,0,1-3.4-3.36l0-3.58a3.39,3.39,0,0,1,3.36-3.4h0a3.37,3.37,0,0,1,3.4,3.35l0,3.58A3.4,3.4,0,0,1,528.35,810.64Z"/><path class="cls-8" d="M510.92,810.76h0a3.38,3.38,0,0,1-3.41-3.35l0-3.58a3.39,3.39,0,0,1,3.35-3.41h0a3.4,3.4,0,0,1,3.41,3.36l0,3.58A3.37,3.37,0,0,1,510.92,810.76Z"/><path class="cls-8" d="M493.48,810.89h0a3.4,3.4,0,0,1-3.41-3.35l0-3.58a3.4,3.4,0,0,1,3.35-3.41h0a3.4,3.4,0,0,1,3.41,3.36l0,3.58A3.37,3.37,0,0,1,493.48,810.89Z"/><path class="cls-8" d="M476,811h0a3.39,3.39,0,0,1-3.4-3.36l0-3.58a3.4,3.4,0,0,1,3.36-3.4h0a3.39,3.39,0,0,1,3.4,3.35l0,3.58A3.4,3.4,0,0,1,476,811Z"/><path class="cls-8" d="M459,811.14h0a3.38,3.38,0,0,1-3.4-3.35l0-3.58a3.4,3.4,0,0,1,3.36-3.41h0a3.39,3.39,0,0,1,3.4,3.36l0,3.58A3.39,3.39,0,0,1,459,811.14Z"/><path class="cls-8" d="M441.52,811.27h0a3.4,3.4,0,0,1-3.41-3.36l0-3.57a3.38,3.38,0,0,1,3.35-3.41h0a3.4,3.4,0,0,1,3.41,3.36l0,3.58A3.38,3.38,0,0,1,441.52,811.27Z"/><path class="cls-8" d="M424.08,811.4h0a3.39,3.39,0,0,1-3.4-3.36l0-3.58a3.39,3.39,0,0,1,3.36-3.4h0a3.37,3.37,0,0,1,3.4,3.35l0,3.58A3.4,3.4,0,0,1,424.08,811.4Z"/><path class="cls-8" d="M285.32,804.51a5.2,5.2,0,0,1-4.13,4.41,5.12,5.12,0,0,1-1.66.05l-29.77-3.85c2.31-1.91,6.1-5.09,11.67-8.91l19.43,2.51A5.18,5.18,0,0,1,285.32,804.51Z"/><path class="cls-8" d="M732.67,824.66a6.64,6.64,0,0,1-6.62-6.58l-.17-22.1a6.64,6.64,0,0,1,6.58-6.67l5.31,0a6.65,6.65,0,0,1,6.67,6.58l.16,22.09a6.56,6.56,0,0,1-1.91,4.7,6.63,6.63,0,0,1-4.67,2Zm5.14-34.86-5.34,0a6.11,6.11,0,0,0-6.06,6.14l.17,22.09a6.11,6.11,0,0,0,6.09,6.06v.26l.05-.26,5.3,0a6.13,6.13,0,0,0,6.05-6.14l-.16-22.1A6.11,6.11,0,0,0,737.81,789.8Z"/><path class="cls-8" d="M767.31,824.4a6.64,6.64,0,0,1-6.62-6.58l-.16-22.09a6.62,6.62,0,0,1,6.57-6.67l5.31,0a6.65,6.65,0,0,1,6.67,6.58l.16,22.09a6.62,6.62,0,0,1-6.58,6.67Zm5.15-34.85-5.35,0a6.1,6.1,0,0,0-6.05,6.14l.16,22.09a6.11,6.11,0,0,0,6.09,6v.27l.05-.27,5.3,0a6.1,6.1,0,0,0,6.05-6.14l-.16-22.09A6.11,6.11,0,0,0,772.46,789.55Z"/><path class="cls-8" d="M976.71,807.37h0A3.4,3.4,0,0,1,973.3,804l0-3.58a3.37,3.37,0,0,1,3.35-3.4h0a3.39,3.39,0,0,1,3.41,3.35l0,3.58A3.39,3.39,0,0,1,976.71,807.37Z"/><path class="cls-8" d="M959.27,807.49h0a3.37,3.37,0,0,1-3.4-3.35l0-3.58a3.4,3.4,0,0,1,3.36-3.41h0a3.39,3.39,0,0,1,3.4,3.36l0,3.58A3.39,3.39,0,0,1,959.27,807.49Z"/><path class="cls-8" d="M941.83,807.62h0a3.39,3.39,0,0,1-3.4-3.35l0-3.58a3.4,3.4,0,0,1,3.36-3.41h0a3.39,3.39,0,0,1,3.4,3.36l0,3.58A3.39,3.39,0,0,1,941.83,807.62Z"/><path class="cls-8" d="M924.4,807.75h0a3.4,3.4,0,0,1-3.41-3.36l0-3.58a3.37,3.37,0,0,1,3.35-3.4h0a3.4,3.4,0,0,1,3.41,3.35l0,3.58A3.39,3.39,0,0,1,924.4,807.75Z"/><path class="cls-8" d="M907,807.88h0a3.39,3.39,0,0,1-3.4-3.36l0-3.58a3.39,3.39,0,0,1,3.36-3.4h0a3.37,3.37,0,0,1,3.4,3.35l0,3.58A3.4,3.4,0,0,1,907,807.88Z"/><path class="cls-8" d="M889.53,808h0a3.38,3.38,0,0,1-3.41-3.35l0-3.58a3.4,3.4,0,0,1,3.36-3.41h0a3.39,3.39,0,0,1,3.4,3.36l0,3.58A3.39,3.39,0,0,1,889.53,808Z"/><path class="cls-8" d="M872.09,808.13h0a3.4,3.4,0,0,1-3.41-3.36l0-3.57a3.38,3.38,0,0,1,3.35-3.41h0a3.4,3.4,0,0,1,3.41,3.36l0,3.58A3.38,3.38,0,0,1,872.09,808.13Z"/><path class="cls-8" d="M854.65,808.26h0a3.39,3.39,0,0,1-3.4-3.36l0-3.58a3.39,3.39,0,0,1,3.36-3.4h0a3.37,3.37,0,0,1,3.4,3.35l0,3.58A3.4,3.4,0,0,1,854.65,808.26Z"/><path class="cls-8" d="M837.22,808.38h0a3.39,3.39,0,0,1-3.41-3.35l0-3.58a3.39,3.39,0,0,1,3.35-3.41h0a3.4,3.4,0,0,1,3.41,3.36l0,3.58A3.37,3.37,0,0,1,837.22,808.38Z"/><path class="cls-7" d="M779.68,892a12.09,12.09,0,0,0,1.58-21.85c-8.94-5-20.93-9.79-33.69-9.57-26.25.46-10.59,39.59-1.84,39.79C750.88,900.5,766.92,896.87,779.68,892Z"/><path class="cls-7" d="M752.27,850.76l.4,54.88s-26.71,9.47-70.18,10.85c-26.61.84-44.81-2.25-54.92-4.77a68.91,68.91,0,0,1-9.56-3l-.42-57.53a27.6,27.6,0,0,1,9.51-4.2c33.35-9,119.59,1.94,119.59,1.94Z"/><path class="cls-5" d="M627.1,847l.47,64.71a68.91,68.91,0,0,1-9.56-3l-.42-57.53A27.6,27.6,0,0,1,627.1,847Z"/><path class="cls-9" d="M1325.53,775c.91-1.14,94.86-32.16,159.59-26.27L1427.74,782l-99,.72S1321,780.69,1325.53,775Z"/><path class="cls-7" d="M1057.73,711.73s-30,66-36,76.09-21.08,17.38-21.08,17.38l-.09,0-96.93,38s-126.75,1.6-154.42,1.3h0c-2.51,0-4.21-.08-4.91-.13-8.49-.74-12.75-3.36-11.45-5.75S925.32,805,946.51,801.62l.6-.09c20.61-3.35,21.87-8.82,21.87-8.82l71-74.49a10,10,0,0,1,4.25-3.28C1049.73,712.38,1057.73,711.73,1057.73,711.73Z"/><path class="cls-5" d="M1044.27,714.94c-19,21.14-71.49,79.44-76.67,83.52-5.56,4.4-176.44,37.85-218.42,46.13h0c-2.51,0-4.21-.08-4.91-.13-8.49-.74-12.75-3.36-11.45-5.75S925.32,805,946.51,801.62,969,792.71,969,792.71l71-74.49A10,10,0,0,1,1044.27,714.94Z"/><path class="cls-9" d="M1057.73,711.73s-30,66-36,76.09-21.08,17.38-21.08,17.38l-.09,0a222.73,222.73,0,0,1-53.42-3.71c20.61-3.35,21.87-8.82,21.87-8.82l71-74.49a10,10,0,0,1,4.25-3.28C1049.73,712.38,1057.73,711.73,1057.73,711.73Z"/><path class="cls-10" d="M1406.63,761.6l-298.47-5.7s133.93-31.2,146.56-44.55c11.9-12.57,136.24-160.58,175.86-178.29-31.64,42.75-104.52,145.26-97.34,173C1340.08,732.53,1384.61,753,1406.63,761.6Z"/></g><g class="cls-11"><polygon class="cls-12" points="3063.91 0 2078.82 1205.25 1831.07 1205.25 2854.65 0 3063.91 0"/><polygon class="cls-12" points="2497.02 0 1511.94 1205.25 1454.11 1205.25 2436.96 0 2497.02 0"/><polygon class="cls-12" points="1367.06 0 381.97 1205.25 134.22 1205.25 1157.81 0 1367.06 0"/><polygon class="cls-12" points="906.7 0.01 0 1109.28 0 461.87 434.48 0.01 906.7 0.01"/></g><rect class="cls-13" y="207.84" width="3063.91" height="9.92"/><rect class="cls-13" y="698.98" width="3063.91" height="9.92"/><rect class="cls-13" x="817.95" width="59.5" height="1197.02"/><path class="cls-3" d="M1849.82,142.29a47.31,47.31,0,0,1,11.42-2.38l-17.78-31.65,4.64-1.15c4.64-1.15,32.82,18.34,35.3,19.85,2,1.23,16.71.91,22.18.74,3.9-1,8.11-2.19,12.55-3.37-2.29-2.7-4.66-5.54-4.66-5.54a7.23,7.23,0,0,1,2.19-.07,1.54,1.54,0,0,1,.78.32l6.6,4c15.76-4.2,33.62-8.92,49.42-13.07,23.84-6.27,43-11.25,43-11.25,12-3.06,19.44-1.53,23-.28a22,22,0,0,1,2.15.87l.08,0c1.85.84,7.53.25,9.6,3s-11.61,10.4-18.36,13.11c-2.25.9-14.59,4.31-30.51,8.57L1988,127.56l.77,2.91a10.42,10.42,0,0,1-1.33.85,32.12,32.12,0,0,1-8.18,3,40.21,40.21,0,0,1-11.16,1.27l-.24-.92a25.58,25.58,0,0,1-4.45,0,1.78,1.78,0,0,1-1-.38c-21.93,5.73-41.86,10.87-47.29,12.26-9.67,2.48-32.4,2.43-45.22,2.13h-.08c-3.61-.08-6.42-.18-7.92-.26l-.8,0a3.48,3.48,0,0,1-1.45-.39,4.45,4.45,0,0,1-1.94-3.61Z"/><rect class="cls-13" x="2164" width="59.5" height="1197.02"/><rect class="cls-14" y="1134.93" width="3063.91" height="570.75"/><path class="cls-15" d="M109.25,1098.33l-10.73-67.62c-1.39-10.78,6.77-20.36,17.34-20.36H415.13a26.38,26.38,0,0,1,25.31,19.85l21.13,72.43Z"/><path class="cls-16" d="M115.19,1095.49l-12.45-64.78c-1.48-10.78,7.2-20.36,18.45-20.36H439.52a27.78,27.78,0,0,1,26.92,19.85l20.69,73Z"/><rect class="cls-15" x="109.25" y="1088.55" width="373.31" height="16.68" rx="6.9"/><path class="cls-17" d="M512.66,1105.23H177.47a8.37,8.37,0,0,1-8.34-8.34h0a8.36,8.36,0,0,1,8.34-8.34H512.66a8.37,8.37,0,0,1,8.34,8.34h0A8.37,8.37,0,0,1,512.66,1105.23Z"/><path class="cls-18" d="M119.93,1155.85h-.11a2.51,2.51,0,0,1-2.38-2.69l3.38-47.93h7.28l-6.41,49.15A1.7,1.7,0,0,1,119.93,1155.85Z"/><path class="cls-18" d="M157,1155.85h-.11a2.52,2.52,0,0,1-2.39-2.69l3.38-47.93h7.29l-6.41,49.15A1.7,1.7,0,0,1,157,1155.85Z"/><path class="cls-18" d="M503.93,1155.85H504a2.51,2.51,0,0,0,2.38-2.69L503,1105.23h-7.28l6.41,49.15A1.7,1.7,0,0,0,503.93,1155.85Z"/><path class="cls-18" d="M466.84,1155.85H467a2.52,2.52,0,0,0,2.39-2.69L466,1105.23h-7.29l6.41,49.15A1.7,1.7,0,0,0,466.84,1155.85Z"/><path class="cls-15" d="M612.33,1098.33l-10.73-67.62c-1.39-10.78,6.77-20.36,17.34-20.36H918.21a26.38,26.38,0,0,1,25.31,19.85l21.13,72.43Z"/><path class="cls-16" d="M618.27,1095.49l-12.45-64.78c-1.48-10.78,7.2-20.36,18.45-20.36H942.6a27.78,27.78,0,0,1,26.92,19.85l20.69,73Z"/><rect class="cls-15" x="612.33" y="1088.55" width="373.31" height="16.68" rx="6.9"/><path class="cls-17" d="M1015.74,1105.23H680.55a8.37,8.37,0,0,1-8.34-8.34h0a8.36,8.36,0,0,1,8.34-8.34h335.19a8.37,8.37,0,0,1,8.34,8.34h0A8.37,8.37,0,0,1,1015.74,1105.23Z"/><path class="cls-18" d="M623,1155.85h-.11a2.51,2.51,0,0,1-2.38-2.69l3.38-47.93h7.28l-6.41,49.15A1.7,1.7,0,0,1,623,1155.85Z"/><path class="cls-18" d="M660.1,1155.85H660a2.52,2.52,0,0,1-2.39-2.69l3.38-47.93h7.29l-6.41,49.15A1.7,1.7,0,0,1,660.1,1155.85Z"/><path class="cls-18" d="M1007,1155.85h.11a2.51,2.51,0,0,0,2.38-2.69l-3.38-47.93h-7.28l6.41,49.15A1.7,1.7,0,0,0,1007,1155.85Z"/><path class="cls-18" d="M969.92,1155.85H970a2.51,2.51,0,0,0,2.38-2.69L969,1105.23h-7.29l6.41,49.15A1.7,1.7,0,0,0,969.92,1155.85Z"/><path class="cls-15" d="M1093.91,1098.33l-10.73-67.62c-1.38-10.78,6.77-20.36,17.35-20.36h299.26a26.36,26.36,0,0,1,25.31,19.85l21.13,72.43Z"/><path class="cls-16" d="M1099.85,1095.49l-12.45-64.78c-1.47-10.78,7.2-20.36,18.45-20.36h318.34a27.79,27.79,0,0,1,26.92,19.85l20.69,73Z"/><rect class="cls-15" x="1093.91" y="1088.55" width="373.31" height="16.68" rx="6.9"/><path class="cls-17" d="M1497.32,1105.23H1162.13a8.37,8.37,0,0,1-8.34-8.34h0a8.37,8.37,0,0,1,8.34-8.34h335.19a8.36,8.36,0,0,1,8.34,8.34h0A8.37,8.37,0,0,1,1497.32,1105.23Z"/><path class="cls-18" d="M1104.6,1155.85h-.11a2.52,2.52,0,0,1-2.39-2.69l3.38-47.93h7.29l-6.41,49.15A1.7,1.7,0,0,1,1104.6,1155.85Z"/><path class="cls-18" d="M1141.69,1155.85h-.11a2.52,2.52,0,0,1-2.39-2.69l3.38-47.93h7.28l-6.41,49.15A1.68,1.68,0,0,1,1141.69,1155.85Z"/><path class="cls-18" d="M1488.59,1155.85h.11a2.52,2.52,0,0,0,2.39-2.69l-3.38-47.93h-7.28l6.41,49.15A1.69,1.69,0,0,0,1488.59,1155.85Z"/><path class="cls-18" d="M1451.51,1155.85h.1a2.52,2.52,0,0,0,2.39-2.69l-3.38-47.93h-7.28l6.41,49.15A1.69,1.69,0,0,0,1451.51,1155.85Z"/><path class="cls-15" d="M2048.42,1098.33l-10.73-67.62c-1.39-10.78,6.77-20.36,17.35-20.36H2354.3a26.38,26.38,0,0,1,25.31,19.85l21.13,72.43Z"/><path class="cls-16" d="M2054.36,1095.49l-12.45-64.78c-1.48-10.78,7.2-20.36,18.45-20.36h318.33a27.8,27.8,0,0,1,26.93,19.85l20.69,73Z"/><rect class="cls-15" x="2048.42" y="1088.55" width="373.31" height="16.68" rx="6.9"/><path class="cls-17" d="M2451.83,1105.23H2116.64a8.37,8.37,0,0,1-8.34-8.34h0a8.36,8.36,0,0,1,8.34-8.34h335.19a8.36,8.36,0,0,1,8.34,8.34h0A8.37,8.37,0,0,1,2451.83,1105.23Z"/><path class="cls-18" d="M2059.1,1155.85h-.1a2.52,2.52,0,0,1-2.39-2.69l3.38-47.93h7.28l-6.41,49.15A1.69,1.69,0,0,1,2059.1,1155.85Z"/><path class="cls-18" d="M2096.19,1155.85h-.1a2.52,2.52,0,0,1-2.39-2.69l3.38-47.93h7.28l-6.41,49.15A1.69,1.69,0,0,1,2096.19,1155.85Z"/><path class="cls-18" d="M2443.1,1155.85h.11a2.52,2.52,0,0,0,2.39-2.69l-3.38-47.93h-7.29l6.41,49.15A1.7,1.7,0,0,0,2443.1,1155.85Z"/><path class="cls-18" d="M2406,1155.85h.11a2.52,2.52,0,0,0,2.39-2.69l-3.38-47.93h-7.29l6.41,49.15A1.7,1.7,0,0,0,2406,1155.85Z"/><path class="cls-15" d="M2609,1098.33l-10.73-67.62c-1.39-10.78,6.77-20.36,17.35-20.36h299.26a26.38,26.38,0,0,1,25.31,19.85l21.13,72.43Z"/><path class="cls-16" d="M2614.92,1095.49l-12.45-64.78c-1.48-10.78,7.2-20.36,18.45-20.36h318.34a27.79,27.79,0,0,1,26.92,19.85l20.69,73Z"/><rect class="cls-15" x="2608.98" y="1088.55" width="373.31" height="16.68" rx="6.9"/><path class="cls-17" d="M3012.39,1105.23H2677.2a8.37,8.37,0,0,1-8.34-8.34h0a8.36,8.36,0,0,1,8.34-8.34h335.19a8.36,8.36,0,0,1,8.34,8.34h0A8.37,8.37,0,0,1,3012.39,1105.23Z"/><path class="cls-18" d="M2619.67,1155.85h-.11a2.52,2.52,0,0,1-2.39-2.69l3.38-47.93h7.28l-6.41,49.15A1.69,1.69,0,0,1,2619.67,1155.85Z"/><path class="cls-18" d="M2656.75,1155.85h-.1a2.52,2.52,0,0,1-2.39-2.69l3.38-47.93h7.28l-6.41,49.15A1.69,1.69,0,0,1,2656.75,1155.85Z"/><path class="cls-18" d="M3003.66,1155.85h.11a2.52,2.52,0,0,0,2.39-2.69l-3.38-47.93h-7.28l6.41,49.15A1.68,1.68,0,0,0,3003.66,1155.85Z"/><path class="cls-18" d="M2966.57,1155.85h.11a2.52,2.52,0,0,0,2.39-2.69l-3.38-47.93h-7.28l6.41,49.15A1.68,1.68,0,0,0,2966.57,1155.85Z"/><path class="cls-19" d="M2222.58,1018.47s4.24-3.73,5.73-4.41,4.22-3.38,4.73-2.47-1.73,2.69-1.47,3.77,8,1.92,8.12,3.09a4.49,4.49,0,0,1-4.21,4.21c-2.92,0-10.45-.66-12.65-.33C2221.16,1022.59,2222.58,1018.47,2222.58,1018.47Z"/><path class="cls-20" d="M2149.17,978.41s4.49-2,18.54,10.66,23.66,26,31.17,26.55,24.35,2,24.35,2l2.42,4.67s-.6,2-12.49,5.79a56.36,56.36,0,0,1-20.76,2.33c-9.62-1.16-32.68-16.56-36.19-21.18S2149.17,978.41,2149.17,978.41Z"/><path class="cls-21" d="M2151.89,935.82s.26-9.15-11.81-11-15.4,1-17.45,4.11-5.9,15.65-5.52,20.65,14.15,11.19,13.93,14.1S2151.89,935.82,2151.89,935.82Z"/><path class="cls-19" d="M2205.66,1170.15c-.24,3.06,4,3.74,8.94,3.92s3.44,1.21,10.2,2.34,9.43-.74,9.91-1.66-2.73-2-6.08-3.42l-1.27-.53c-3.78-1.6-5.94-5-8.91-8-2.81-2.92-5.57-12.36-5.57-12.36l-9.19-1.84s2.69,8.5,3.63,12.13c.55,2.13-.19,4.54-.86,6.37A12.23,12.23,0,0,0,2205.66,1170.15Z"/><path class="cls-22" d="M2214.6,1174.07c4.92.18,3.44,1.21,10.2,2.34s9.43-.74,9.91-1.66-2.73-2-6.08-3.42l-.06.06a19.14,19.14,0,0,1-10.2.25c-4.48-1.15-8.82-3.76-11.91-4.58a12.23,12.23,0,0,0-.8,3.09C2205.42,1173.21,2209.67,1173.89,2214.6,1174.07Z"/><path class="cls-21" d="M2135,1055.64s61,3.2,71.4,11.83,12.85,93.71,12.85,93.71c-1.48,1.66-2.63,1.68-5.1,1.61s-7.27-1.82-7.27-1.82-15-41.09-15.69-50.75-3.49-26-7.67-26.71-53,7.06-59.14-7.92,2.19-27.95,2.19-27.95Z"/><path class="cls-20" d="M2106.34,1070.77c2.62,1.76,9.39,2.73,17.25,3,14.07.51,31.62-1.17,35.08-4.43a6,6,0,0,0,1.46-4c.38-5.4-2.2-14.28-3.93-21.63-1.13-4.77-1.89-8.9-1.27-11,1.91-6.41,7.84-19.49,8.35-23.79s-4.61-27.33-11.7-30.18-34.47,0-34.47,0c-10.69,2.17-11.14,25-7.59,44.37.09.5.19,1,.28,1.49C2113.65,1044.3,2099,1065.87,2106.34,1070.77Z"/><path class="cls-19" d="M2146.86,980.71c-.19,1.25-3.62,3.28-10.93,1.35-7-1.84-7.85-4.13-7.85-5.63,0-1.79,3-4.19,3-15.17l.84.16,14.13,2.8s-.32,4.45-.33,8.64C2145.72,976.38,2147.18,978.63,2146.86,980.71Z"/><path class="cls-23" d="M2146.06,964.22s-.32,4.45-.33,8.64c-7.91-.22-12.09-7.44-13.8-11.44Z"/><path class="cls-19" d="M2148.7,968.19s-18.71.31-18.72-11.35-2.44-19.47,9.51-20.15,14.27,3.75,15.22,7.64S2153.57,967.81,2148.7,968.19Z"/><path class="cls-21" d="M2148,936.4s-5.13,13.68-13,15.7-11.27-.09-11.27-.09a22.25,22.25,0,0,0,7.28-13.15S2144.14,929.89,2148,936.4Z"/><path class="cls-21" d="M2146.74,937.51s3.82,3,4.76,6,1.35,9.08,3.13,8.87c0,0,3.86-9.29-.48-14.55C2149.55,932.27,2146.74,937.51,2146.74,937.51Z"/><path class="cls-20" d="M2144.54,961.12s.35,1.48,4,1.26c0,0,3.1-.2,3-1.82A10,10,0,0,0,2144.54,961.12Z"/><path class="cls-19" d="M2165.39,1173.49c.11,3.06,4.41,3.26,9.32,2.88s3.56.81,10.41,1.17,9.28-1.81,9.65-2.78-2.94-1.71-6.43-2.71l-1.32-.38c-3.94-1.16-6.46-4.24-9.76-7-3.13-2.59,2.83-16.14,2.83-16.14l-8.87-3.78s-1.17,9.52-2.88,17.88c-.44,2.16-2.05,5.77-2.5,7.66A11.67,11.67,0,0,0,2165.39,1173.49Z"/><path class="cls-24" d="M2106.34,1070.77c2.62,1.76,9.39,2.73,17.25,3,13-3,27.75-6.39,36.54-8.44.38-5.4-2.2-14.28-3.93-21.63-10.25,3.13-25.5-7.53-30.62-11.74-5.39-4.43-5.22-19.17-5.22-19.17l-10.84,10.3c.09.5.19,1,.28,1.49C2113.65,1044.3,2099,1065.87,2106.34,1070.77Z"/><path class="cls-25" d="M2174.71,1176.37c4.91-.38,3.56.81,10.41,1.17s9.28-1.81,9.65-2.78-2.94-1.71-6.43-2.71l-.05.07a19.22,19.22,0,0,1-10.11,1.41c-4.57-.64-9.19-2.74-12.34-3.21a11.67,11.67,0,0,0-.45,3.17C2165.5,1176.55,2169.8,1176.75,2174.71,1176.37Z"/><path class="cls-26" d="M2122.06,1059.92c15.38-1.19,61.55.16,70.71,6.27,11.27,7.52-15.9,93.69-15.9,93.69h-8.73s-5.07-50-1.92-60c2.91-9.23,4.81-12.54.58-12.87s-56.36,8.81-61.5-6.53c-4-12,.48-23.48.48-23.48S2107.88,1061,2122.06,1059.92Z"/><path class="cls-21" d="M2128.46,929.48s.76-4.89-6-6.15-6.9,13.13-7.62,16.59,1.08,5.55,3.66,5.76S2128.46,929.48,2128.46,929.48Z"/><path class="cls-19" d="M2149.89,1054.61s9.88-1.09,12-.1,9,7.39,7.68,8.59-7.73-2.14-10.92-2.24-5.87,1-8.06.33a26.58,26.58,0,0,1-4.4-2Z"/><path class="cls-19" d="M2149.89,1054.61s5-1.6,6.55-2.73a.37.37,0,0,1,.56.16c.26.61.41,1.74-1.39,2.54A8.83,8.83,0,0,1,2149.89,1054.61Z"/><path class="cls-20" d="M2117.11,978.73s-10.71.91-11.54,9.37c-.63,6.43-5.29,52-1.94,56,9.44,11.16,30.53,14.44,42.59,15.12a18.91,18.91,0,0,0,2.24-2,11.39,11.39,0,0,0,1.43-2.6s-33-17.51-32.52-21.36S2127.38,977.21,2117.11,978.73Z"/><path class="cls-19" d="M2249.1,1113.74a38.51,38.51,0,0,1-.39,7.94c-1.63,13.07-7,34-7,34l-6.67.8c.49-3.69-.9-17.82-2.75-33.49-2.78-23.63-6.6-50.74-6.6-50.74s14.52-12,23.08-8.69S2248.09,1104.58,2249.1,1113.74Z"/><path class="cls-27" d="M2248.71,1121.68c-1.63,13.07-7,34-7,34l-6.67.8c.49-3.69-.9-17.82-2.75-33.49,2.38.42,8.82,1.25,14.21-.78A6.91,6.91,0,0,1,2248.71,1121.68Z"/><path class="cls-28" d="M2242.6,975.19a9.71,9.71,0,0,0-7.47,0c-3.94,1.68-6.82,8.87-5.05,15.58s-4.2,6.83-1.44,12.21c1,1.91,14,3.54,14.4-3.9.28-4.6-3.89-4.83-2.68-9.84S2242.6,975.19,2242.6,975.19Z"/><path class="cls-29" d="M2261.23,1112.31a47.56,47.56,0,0,1-.1,10.45c-1.13,13.33-4.75,32.37-4.75,32.37l-6.6,1.52c.25-3.64-1.9-17.35-4.62-32.69-4.23-23.86-9.82-51.67-9.82-51.67s13.76-12.88,22.51-10.09S2259.66,1103.23,2261.23,1112.31Z"/><path class="cls-30" d="M2235.16,1155.12a7.83,7.83,0,0,1-4.61,3.59,7.52,7.52,0,0,0-4.53,2.82,1.78,1.78,0,0,0,1.44,2.82l15.35-.09a2.2,2.2,0,0,0,2.18-2.44c-.12-1.14-.24-2.46-.3-3.48-.13-2.21-2.53-4.2-2.53-4.2a15.7,15.7,0,0,1-2.92,1.35A10.84,10.84,0,0,1,2235.16,1155.12Z"/><path class="cls-19" d="M2232.24,1007.24s-10,16.91-12.06,30.7c0,0,4.88,6.58,6.86,2S2243.27,1010.54,2232.24,1007.24Z"/><path class="cls-28" d="M2234.14,977.23c.11-.18,4.6-7.28,13-8.69a12.4,12.4,0,0,1,14.2,10.46c1.05,6.85,0,15.72-11.19,18.91Z"/><path class="cls-19" d="M2236.2,1007.73l12.64,7.51,3.19-8.9a27.62,27.62,0,0,1-1.89-8.43,34.19,34.19,0,0,1,.2-7.47l-11,4.77a20.61,20.61,0,0,1,.27,2.46,17.67,17.67,0,0,1-.55,5.69A7.88,7.88,0,0,1,2236.2,1007.73Z"/><path class="cls-23" d="M2239.08,1003.36c6.06.22,11.06-5.45,11.06-5.45l-10.52-.24A17.64,17.64,0,0,1,2239.08,1003.36Z"/><path class="cls-19" d="M2236.36,999.8s11.87,4,16.64-5.38c5.16-10.08.71-17.94-3.36-18.71-8.11-1.53-13.06,1.28-14.71,4.49S2229.8,997.68,2236.36,999.8Z"/><path class="cls-20" d="M2241.49,994.7s-.59,1.21-3.73.31c0,0-2.63-.76-2.24-2.14A8.81,8.81,0,0,1,2241.49,994.7Z"/><path class="cls-31" d="M2266.45,1104c-3.43,3.28-28.77,10.06-43,5.19-2.56-.88,1.54-79.83,4-95.08a9.6,9.6,0,0,1,8.18-8q1.07-.15,2.31-.27c-.18,1.87.46,3.63,3.73,4.27,4.35.85,8.46-1.89,10.57-3.8,3.41.71,5.39,1,8.09,2.1a7.1,7.1,0,0,1,4.3,7.51l-.81,6-2.6,19.18a25.52,25.52,0,0,0,0,7.25c1.11,7.3,2.87,25.06,4.05,38.56C2266.08,1096.48,2266.62,1103.88,2266.45,1104Z"/><path class="cls-28" d="M2244.67,976.82s-1.12,11.14,9.44,15.08c4.2,1.57,6.39-15.44-2.39-18.83s-17.43.63-18.47,6.57-.24,7.18-.24,7.18S2237.12,975.52,2244.67,976.82Z"/><path class="cls-19" d="M2251.09,1013.25s-4.85,19.16-5,26.78c0,0-10.63,18.57-11.25,19.89s3.84,3.13,3.84,3.13,13.33-14.23,15.91-20.2,11.69-25.42,8-31.23S2251.09,1013.25,2251.09,1013.25Z"/><path class="cls-19" d="M2220.18,1037.94s-.95,13.06,8.34,23.34c0,0,2.54-3,2.22-4s-4-15.5-6.62-17.57S2220.18,1037.94,2220.18,1037.94Z"/><path class="cls-19" d="M2234.8,1059.92s-6,0-6.28,1.36a4.3,4.3,0,0,0,5.88,4.25c4.35-1.53,4.23-2.48,4.23-2.48Z"/><path class="cls-19" d="M2230.74,1057.28s4.77,2.21,3.15,4.56-4.87.94-5.37-.56S2230.74,1057.28,2230.74,1057.28Z"/><path class="cls-31" d="M2247.59,1023.36a21.73,21.73,0,0,0,15.85,4.9s4.74-16.79-2.86-18.85S2246.7,1017.3,2247.59,1023.36Z"/><path class="cls-31" d="M2229,1010.2l-5.5,9.4s.71,4.36,4.82,4.8S2229,1010.2,2229,1010.2Z"/><path class="cls-28" d="M2257.79,975.28a8.71,8.71,0,0,1,7.46,0c3.95,1.9,6.82,10,5.05,17.55s4.2,7.69,1.44,13.75c-1,2.15-13.95,4-14.4-4.39-.27-5.19,3.9-5.45,2.68-11.08S2257.79,975.28,2257.79,975.28Z"/><path class="cls-32" d="M2261.13,1122.76c-1.13,13.33-4.75,32.37-4.75,32.37l-6.6,1.52c.25-3.64-1.9-17.35-4.62-32.69A41.87,41.87,0,0,0,2261.13,1122.76Z"/><path class="cls-28" d="M2249.59,1155.12a7.79,7.79,0,0,1-4.6,3.59,7.55,7.55,0,0,0-4.54,2.82,1.78,1.78,0,0,0,1.45,2.82l15.34-.09a2.22,2.22,0,0,0,2.19-2.44c-.13-1.14-.25-2.46-.31-3.48-.13-2.21-2.53-4.2-2.53-4.2a15.38,15.38,0,0,1-2.92,1.35A10.88,10.88,0,0,1,2249.59,1155.12Z"/><path class="cls-10" d="M2073.73,1433.69a7.48,7.48,0,0,0,4.84,8.53c3.53,1.28,7.08-.46,7.94-3.88a7.49,7.49,0,0,0-4.84-8.53C2078.14,1428.53,2074.59,1430.27,2073.73,1433.69Z"/><path class="cls-33" d="M2071.22,1432.78a7.47,7.47,0,0,0,4.83,8.52c3.53,1.29,7.09-.45,7.95-3.88a7.49,7.49,0,0,0-4.84-8.52C2075.63,1427.62,2072.07,1429.36,2071.22,1432.78Z"/><path class="cls-10" d="M2027,1434.76a7.48,7.48,0,0,0,4.84,8.52c3.53,1.28,7.09-.46,7.94-3.88a7.49,7.49,0,0,0-4.84-8.53C2031.43,1429.59,2027.88,1431.33,2027,1434.76Z"/><path class="cls-33" d="M2024.51,1433.84a7.49,7.49,0,0,0,4.83,8.53c3.53,1.28,7.09-.46,8-3.88a7.49,7.49,0,0,0-4.84-8.53C2028.92,1428.68,2025.36,1430.42,2024.51,1433.84Z"/><path class="cls-34" d="M2086.82,1431.12l-8.66,3.81a8,8,0,0,1-2.83.64l-52.42,1.92-7.3-9.39Z"/><path class="cls-34" d="M2003.91,1325.41l2.65-.69c-6.77-18.46-19.72-54.68-20.29-59.66-.35-3.14.22-5.45,1.71-6.86,2.4-2.27,6.41-1.61,6.45-1.61l.16,0,11.25.67c13.47-.28,16.27,10.82,16.38,11.3l0,.14,17.89,51.7,2.67-.64L2025,1268.13a19,19,0,0,0-19.39-13.7l-11.07-.66c-.74-.11-5.49-.68-8.58,2.24-2.08,2-2.91,5-2.45,9C1984.21,1271.63,2003.11,1323.22,2003.91,1325.41Z"/><path class="cls-34" d="M2009.71,1316.15l-27.29,7.09s-7.67,3.81-3.62,18.45c3.57,12.88,21.81,85.26,21.81,85.26s3.8,15.06,34.75,9.18Z"/><path class="cls-35" d="M1997.34,1336.88l21,81a21.18,21.18,0,0,0,4.67,8.7,20.46,20.46,0,0,0,15.91,7.11l26.21-1.07.65,0,16.42-.67a17.27,17.27,0,0,0,4.65-.83l1-.37a15.7,15.7,0,0,0,9.62-13,18.9,18.9,0,0,0-.83-7.89l-24.69-77.31c-2.63-8.24-10.31-14.3-18.64-14.71l-4.7-.24-1.12,0h0l-.94,0-15.71-.77-1.93-.1-15.16-.75a17.13,17.13,0,0,0-6.61.95l-.39.15-.82.34C1999,1320.48,1995.12,1328.3,1997.34,1336.88Z"/><path class="cls-34" d="M2023,1426.61a20.46,20.46,0,0,0,15.91,7.11l26.21-1.07.65,0,16.42-.67a17.27,17.27,0,0,0,4.65-.83l1-.37c5.36-2.19,10.75-9.51,9.62-17,0,0-55.52,1.87-66.8,4.24C2024.82,1419.26,2023.73,1423.61,2023,1426.61Z"/><path class="cls-34" d="M2046.51,1317.52c.13.07,13.52,7,16.2,13.61,2.77,6.74,26.79,85.69,27,86.48,0,.07,1.58,7.73-3.72,13.75l.79-.24,1-.37a15.58,15.58,0,0,0,2.88-13.32c-1-3.26-24.29-79.8-27.06-86.59-2.44-5.94-12-11.54-15.06-13.22l-1.12,0h0Z"/><path class="cls-34" d="M2028.87,1316.65a28.42,28.42,0,0,1,12.46,15.46c3.51,11.12,23.4,92.14,23.6,93v0l0,.06s1.67,4.38-.52,7.49l.65,0,.65,0c2.05-3.32.38-7.19.14-7.74-.62-2.5-20.13-81.94-23.61-93a29.56,29.56,0,0,0-11.48-15.16Z"/><path class="cls-34" d="M2005.89,1317.34a24.24,24.24,0,0,1,5.41,3.78,26.76,26.76,0,0,1,7.3,11.61c3.51,11.11,22,91.92,22.19,92.73v.07l0,.06s1.06,5-1.13,8.09l1.65-.06c1.6-2.83.66-7.75.4-8.32-.59-2.59-18.72-81.74-22.2-92.77a27.09,27.09,0,0,0-12.45-15.68l-.39.15Z"/><path class="cls-36" d="M1992.67,1235.67c-.52,1.27-2.79,2.39-6.05,3.2-7.31,1.82-19.64,2.06-28.64-1.27-9.64-3.57-16.63-54.54-19.61-80.66-1-9.11-1.58-15.2-1.58-15.2s5.53-8.67,27-5.78,23.61,10.11,25.53,23.12S1994.35,1231.58,1992.67,1235.67Z"/><path class="cls-9" d="M1986.62,1238.87c-7.31,1.82-19.64,2.06-28.64-1.27-9.64-3.57-16.63-54.54-19.61-80.66,2.54-9,4.56-14.9,4.56-14.9s26.91-3.25,32.15,4.88C1979.77,1154.19,1985.47,1224.17,1986.62,1238.87Z"/><path class="cls-19" d="M1919,1216.4c-15.89.49-38.78-17.82-38.78-17.82l3.14-4.82c5.78,3.86,26.25,7.47,26.25,7.47-1.43-4.63-2.53-8.92-3.35-12.87-5.56-26.86,1.84-38.47,4-41.17.35-.43.56-.64.56-.64s.07.19.19.55c.26.77.79,2.32,1.48,4.46C1917.61,1167.5,1932.25,1216,1919,1216.4Z"/><path class="cls-18" d="M1944.93,1084s2.52-10.1,17.35-6.94c0,0-7.1-.9-9,1.84,0,0,5.62-2.58,9.15-.42s4.1,9.41,3.57,11.62-4.41,8.78-7,8.78-5.63-2.26-5.63-2.26Z"/><path class="cls-19" d="M1967.12,1242c-7.37-16.53-10.9-21.21-11-26.41-.1-4.11,1.93-8.55,5.87-19.44a40.64,40.64,0,0,0,2-7.87c2.88-19.41-4.86-40.52-12.37-44.76a32.58,32.58,0,0,0-4.36-1c-2.1-.55-5.49-7.62-5.44-19.83l-1,.18-15.88,3.15s.37,5,.38,9.7c0,3.93-.23,7.64-1.12,8.11l-1.82.18s-13.24,18.38-14.35,35.49,10.6,24.53-.09,58.7C1897,1273.16,1971.19,1251.15,1967.12,1242Z"/><path class="cls-18" d="M1918.27,1094.42s18.77-22.56,28.71-8.12c0,0,7.42,3.07,10.1,15.69,2.73,12.88-5.83,22.66-10.26,20.24-2.84-1.55-5,3.42-5,3.42Z"/><path class="cls-37" d="M1924.93,1126.07s.37,5,.38,9.7c8.88-.25,13.58-8.35,15.5-12.85Z"/><path class="cls-18" d="M1942.45,1121.19s4.66-7.35,5.78-13.65c.8-4.49-1.49-21.14-18.22-18.74a22.73,22.73,0,0,0-9.43,3.57c-3.63,2.45-8.88,7.75-3,22.27l1.52,4.91Z"/><path class="cls-19" d="M1922,1130.53s21,.34,21-12.75,2.73-21.87-10.69-22.65-16,4.22-17.1,8.59S1916.5,1130.1,1922,1130.53Z"/><path class="cls-18" d="M1922.75,1094.81s5.75,15.36,14.59,17.64,12.66-.1,12.66-.1a25,25,0,0,1-8.18-14.78S1927.09,1087.5,1922.75,1094.81Z"/><path class="cls-18" d="M1924.17,1096.06s-4.3,3.43-5.35,6.76-1.52,10.2-3.52,10c0,0-4.33-10.45.54-16.35C1921,1090.17,1924.17,1096.06,1924.17,1096.06Z"/><path class="cls-18" d="M1948.5,1400.67a207.88,207.88,0,0,1-13.25,37.17l-6.93-.48a195.75,195.75,0,0,0,3.2-38c-.14-15.27-2-33.33-8.06-50.57-20.75-59.25-17.39-102.37-17.39-102.37l39,4.56,1.81.22c.17,17.91.63,42.24,1,61.26.36,17.11.68,29.92.68,29.92C1956.1,1358.5,1953.37,1381.31,1948.5,1400.67Z"/><path class="cls-9" d="M1970.88,1397.31c-2.24,23.94-12.12,39.42-12.12,39.42l-3.31,2.41s-3.13-16.87-5.35-36.93c-2.11-19.08-5-39.26-8.29-45.42-13-24.43-16.93-116.65-16.93-116.65l39.56-2c4,6.69,5.71,17.66,6.12,30.13,1,31.48-6.36,72.52-7.46,78.46h0a2.15,2.15,0,0,0,.26,1.33C1971.22,1363.67,1972.36,1381.5,1970.88,1397.31Z"/><path class="cls-18" d="M1923.37,1096.58s4.1,16.08,15.25,21.24c0,0-11.15-9.89-12.09-20.51S1923.37,1096.58,1923.37,1096.58Z"/><path class="cls-38" d="M1883.32,1193.76c-.25-.6-3.26-9.51-5.54-10.72s-6.51-2.52-7.47-2-2.77,7.22,0,10.72,9.87,6.86,9.87,6.86Z"/><rect class="cls-33" x="1873.54" y="1175.3" width="11.38" height="20.59" rx="0.61" transform="translate(-278.32 654.43) rotate(-18.42)"/><rect class="cls-10" x="1871.48" y="1175.98" width="11.38" height="20.59" rx="1.08" transform="translate(-278.62 653.76) rotate(-18.42)"/><path class="cls-19" d="M1970.88,1397.31c-2.24,23.94-12.12,39.42-12.12,39.42l-3.37,3.07s-3.07-17.53-5.29-37.59C1952.44,1402.38,1962.74,1402.75,1970.88,1397.31Z"/><path class="cls-19" d="M1948.5,1400.67a207.88,207.88,0,0,1-13.25,37.17l-6.93-.48a195.75,195.75,0,0,0,3.2-38C1933.87,1400.52,1938.73,1401.72,1948.5,1400.67Z"/><path class="cls-18" d="M1939.24,1443.66h-4.42c-1.49-.24-2.58-.66-4.1-.86a4.1,4.1,0,0,0-3.59.86l0,0h-18.8c-.47-.67,0-2.24.43-3.39a2.67,2.67,0,0,1,1.76-1.61c2-.58,5.92-1.09,9.52-4.35,2-1.83,9.78-6.73,9.78-6.73h0c.17,0,1,.25,4.51,3.23,1.82,1.54,4.93-2.17,4.93-2.17a4.44,4.44,0,0,1,1,1.38,4.63,4.63,0,0,1,.4,2.89c-.28,1.69.63,4.84,1.35,7,.44,1.29.81,2.21.81,2.21S1943.05,1443.18,1939.24,1443.66Z"/><path class="cls-36" d="M1940.28,1430.05c-1.06.75-3.29,2.22-4.77,2.41-2,.26-5.73-4.84-5.73-4.84h0c.17,0,1,.25,4.51,3.23,1.82,1.54,4.93-2.17,4.93-2.17A4.44,4.44,0,0,1,1940.28,1430.05Z"/><path class="cls-36" d="M1939.24,1443.66h-4.42c-1.49-.24-2.58-.66-4.1-.86a4.1,4.1,0,0,0-3.59.86l0,0h-18.8c-.47-.67,0-2.24.43-3.39.57-.51.73,2.21,1,2.64s15.34.16,16.21-.48a9.08,9.08,0,0,1,7.1-.86c3.16.75,7.81-1.18,9-1.7.44,1.29.81,2.21.81,2.21S1943.05,1443.18,1939.24,1443.66Z"/><path class="cls-18" d="M1962.86,1443.66h-4.42c-1.49-.24-2.58-.66-4.1-.86a4.1,4.1,0,0,0-3.59.86l0,0h-18.8c-.47-.67,0-2.24.43-3.39a2.67,2.67,0,0,1,1.76-1.61c2-.58,5.92-1.09,9.52-4.35,2-1.83,9.78-6.73,9.78-6.73h0c.17,0,1,.25,4.51,3.23,1.82,1.54,4.93-2.17,4.93-2.17a4.44,4.44,0,0,1,1,1.38,4.63,4.63,0,0,1,.4,2.89c-.28,1.69.63,4.84,1.35,7,.44,1.29.81,2.21.81,2.21S1966.67,1443.18,1962.86,1443.66Z"/><path class="cls-36" d="M1963.9,1430.05c-1.06.75-3.29,2.22-4.77,2.41-2,.26-5.73-4.84-5.73-4.84h0c.17,0,1,.25,4.51,3.23,1.82,1.54,4.93-2.17,4.93-2.17A4.44,4.44,0,0,1,1963.9,1430.05Z"/><path class="cls-36" d="M1962.86,1443.66h-4.42c-1.49-.24-2.58-.66-4.1-.86a4.1,4.1,0,0,0-3.59.86l0,0h-18.8c-.47-.67,0-2.24.43-3.39.57-.51.73,2.21,1,2.64s15.34.16,16.21-.48a9.08,9.08,0,0,1,7.1-.86c3.16.75,7.81-1.18,9-1.7.44,1.29.81,2.21.81,2.21S1966.67,1443.18,1962.86,1443.66Z"/><path class="cls-19" d="M1869.77,1181.9s1.8-3.73,5.12-2.23,1.86,7.17-.06,9.16a18.82,18.82,0,0,0-2.47,2.89Z"/><path class="cls-19" d="M1967.28,1152.06s21.54,42.16,25.87,58.69,9.28,42.9,9.28,42.9h-9.28s-13-37.74-15.53-40.84-22.92-37.4-22.92-37.4Z"/><path class="cls-19" d="M2000.16,1248.92s8.64,4.6,8.21,6.51-4.49,5.11-8.21,5.42-2.39-4-3.44-4.8-5.65-1.4-5.21-7.13S2000.16,1248.92,2000.16,1248.92Z"/><path class="cls-35" d="M1972.08,1254a9.37,9.37,0,0,1-.25,3.16c-.84,2.65-3.73,3.85-10.72,3.13-4.27-.44-6.17-7.6-7-13.71q-3.85,13.11-10.8,14.67c-6.78,1.51-41,5.66-43.18-10.58-2.46-17.87,4.9-49.5,5.31-66.56a83.69,83.69,0,0,1-1.24-15.8c.28-12.15,3.85-19,6.59-21.71.78-.59,1.56-1,4.67-1.5,1.6-.27,3.81-.58,6.93-1a11.05,11.05,0,0,1,1.25-.1c-.58,1-5.42,10-4.82,13s21.7,2.58,23.59.85,8.38-14.52,8.38-14.52a38.05,38.05,0,0,1,14.48,4.56c2.61,1.38,14.14,18.79,17.55,25.92-2.27,7.85-17.42,18.58-19.76,18C1966.1,1211.74,1971.62,1244.83,1972.08,1254Z"/><path class="cls-36" d="M1922.37,1144.05l0,.08c-.93,1.47-15.51,24.78-16.91,39.93a83.69,83.69,0,0,1-1.24-15.8c1.87-5.73,6.43-18.45,11.26-23.21C1916.05,1144.45,1922.37,1144.05,1922.37,1144.05Z"/><path class="cls-36" d="M1961.35,1141.5s-19.26,13.12-20.71,40.94,26.64,34.79,26.64,34.79l-1.9-10.52s-23.05-6.92-17.76-29.08a64.94,64.94,0,0,1,21.2-34.21Z"/><path class="cls-19" d="M1330.15,1115.44c-.12-1.37-.23-2.72-.33-4.06l-.15-2,0-.38c0-.56-.08-1.12-.11-1.67,0-.71-.1-1.41-.14-2.1-.08-1.36-.16-2.7-.23-4,0-.33,0-.66-.05-1,0-.8-.09-1.59-.13-2.38-.07-1.48-.14-2.94-.2-4.38h0c0-1-.08-2-.12-2.9,0-.5,0-1-.05-1.5,0-.17,0-.33,0-.5,0,0,0,0,0-.07,0-1.07-.08-2.13-.12-3.17q-.13-4-.27-7.86h0c0-.45,0-.9,0-1.34,0-.66-.05-1.31-.07-1.95h0c-.12-2.9-.24-5.7-.39-8.4l-.12-2c0-.51-.07-1-.1-1.5v0c0-.63-.09-1.24-.14-1.85,0-.19,0-.37,0-.55h0c0-.46-.07-.91-.12-1.36q-.08-1-.18-1.89c-.06-.62-.13-1.24-.2-1.85l0-.27c-.14-1.13-.28-2.23-.44-3.32a.77.77,0,0,1,0-.15q-.24-1.56-.51-3.06c-.12-.64-.24-1.28-.37-1.9-.17-.81-.34-1.62-.52-2.42a128.18,128.18,0,0,0-8.88-26.7l-.09-.21c-1.21-2.52-2.35-4.64-3.36-6.37-.82-1.4-1.56-2.55-2.19-3.46a.86.86,0,0,1-.1-.16,13.56,13.56,0,0,1-1.82-3.88c0-.18,0-.27,0-.27-.88-4.69-1.83-7.92-1.9-11.8a25.91,25.91,0,0,1,.19-3.54s0,0,0,0c0-.38.1-.76.16-1.16l-18.76-.38-5.52.91,0,6.79,0,6.8,0,2.51a4.94,4.94,0,0,0,0,.75v0a.2.2,0,0,0,0,.07s0,.1,0,.18a.17.17,0,0,1,0,.07c0,.05,0,.1,0,.15a.06.06,0,0,1,0,0s0,0,0,0l-.16.09h0a78.27,78.27,0,0,0-8.08,6.26c-6.5,5.65-14.82,14.35-17.42,23.27-.08.25-.15.51-.21.76l-.18.76c-.11.51-.19,1-.26,1.53a16.13,16.13,0,0,0-.16,2.29c0,18.39-.31,33-.71,44.56-.06,1.75-.13,3.42-.19,5-.15,3.72-.31,7.09-.48,10.14,0,.54-.06,1.08-.09,1.6-.1,1.76-.2,3.4-.3,4.94-.58,8.68-1.15,13.94-1.47,17s-.4,4,0,4h.61l19.24-.29,11.13-.17,21.39-.33,20.79-.32a4,4,0,0,0,3.94-4.15C1330.06,1119.46,1330.34,1117.57,1330.15,1115.44Z"/><path class="cls-39" d="M1282.58,986.6l.07,13.59a15.8,15.8,0,0,0,6.76,1.49c8.62,0,14.19-6.32,17.1-10.9a27.69,27.69,0,0,1,.35-4.71l-18.76-.37Z"/><path class="cls-19" d="M1281.49,993.2s24,4.85,26.8-10.15,7.78-24.48-7.44-28.21-19.27,1.43-21.42,6.22S1275.31,991.55,1281.49,993.2Z"/><path class="cls-19" d="M1282.91,1003.91s-5.73,30.64-12,62.64c-6.78,34.79-23.3,68-24.73,69.34-2,1.81-10-.51-6.74-2.49,4.35-2.63,4.09-33.47,5.69-51.63a90.71,90.71,0,0,1,1.34-10.33c2.55-11.48,3.33-52.09,11-58.46S1282.91,1003.91,1282.91,1003.91Z"/><path class="cls-32" d="M1282.67,1003.45s-3.06,18.12-7.38,40.62c-1.37,7.15-2.85,14.77-4.35,22.48-6.12,12-11.37,20.14-13,18.61-3.31-3.12-9.11-3.51-12.79-3.39a90.71,90.71,0,0,1,1.34-10.33c.2-.9.39-2,.58-3.23,2.14-14.45,3.35-49.36,10.4-55.23C1265.13,1006.6,1282.67,1003.45,1282.67,1003.45Z"/><path class="cls-18" d="M1254.13,1328.1c3.11-1.89,1.34-16,1.34-16s-14.49-11.58-16.48-2.71-13.76,12.85-20.45,13.94c-4.63.75-6.06,3.31-6.5,4.82Z"/><path class="cls-18" d="M1318,1328.1c3.11-1.89,1.34-16,1.34-16s-14.48-11.58-16.47-2.71-13.76,12.85-20.46,13.94c-4.62.75-6.06,3.31-6.5,4.82Z"/><path class="cls-9" d="M1284.12,1225.17a69,69,0,0,0-1.06,7.82c-1.34,26.26-22,83-25.72,84.41-5.75,2.17-12.56.42-18.37-3.17a19.18,19.18,0,0,1-3.76-3.67c10.28-47.26,13.72-113.74,15.09-154a183.28,183.28,0,0,1,4.18-34.31s50.63-13.51,50.93,3.58C1305.68,1140.92,1288.64,1200.23,1284.12,1225.17Z"/><path class="cls-18" d="M1284.12,1225.17l-33.82-68.64a183.28,183.28,0,0,1,4.18-34.31s50.63-13.51,50.93,3.58C1305.68,1140.92,1288.64,1200.23,1284.12,1225.17Z"/><path class="cls-9" d="M1272.86,1125.86l25,189.14s11.59,6.36,23.06.33c0,0,7.46-98.09,6.8-123s5.63-66.74-1.43-71.35S1272.86,1125.86,1272.86,1125.86Z"/><path class="cls-32" d="M1328.56,1125.34a85.6,85.6,0,0,1-16.09,4.68,158.47,158.47,0,0,1-31.18,3.14c-20.5.13-28.27-6.94-28.27-6.94-1.45,0,3.14-11.58,3.23-87.26,0-16.89,25.94-35.51,26.42-35.51h0s.48,7.93,6.47,9.59c5.5,1.53,10-2.76,19.27-10.46,3.49,5.1,12.5,21.83,17,43.47a118.73,118.73,0,0,1,1.92,14.36c1.19,14.92.92,33.15,2.82,55,.19,2.13-.09,4,0,5.51C1330.21,1123.2,1330.81,1125.3,1328.56,1125.34Z"/><path class="cls-40" d="M1328.83,1088.92l-30.19,17.43a5.18,5.18,0,0,1-7.09-1.9l-25.84-44.75a5.21,5.21,0,0,1,1.9-7.1l30.19-17.43a5.2,5.2,0,0,1,7.09,1.9l25.84,44.76A5.18,5.18,0,0,1,1328.83,1088.92Z"/><path class="cls-19" d="M1347.32,1089.49a5.94,5.94,0,0,1-5.6,4.37,147.72,147.72,0,0,1-17.64-.82,209.14,209.14,0,0,1-37.71-7.6l4.37-7.46s17.87-.79,31-2.7a79.44,79.44,0,0,0,8.54-1.65c2.84-.76-11.28-36.55-18.4-57.61-1.71-5-2.34-11.67-.38-11.28,5.54,1.09,16.81,3.67,21.61,7.29C1339.17,1016.65,1353.86,1065.86,1347.32,1089.49Z"/><path class="cls-19" d="M1290.9,1078s-6.06-5.67-8.4-5.67-9.56.43-10.36,2.28c-1.88,4.34,2.82,8.3,4.74,9.06a46,46,0,0,0,8.79,1.89C1287.73,1085.73,1292.82,1084.59,1290.9,1078Z"/><path class="cls-32" d="M1343.31,1093.81a140.19,140.19,0,0,1-19.23-.77c.75-3.73,1.46-11-2.39-17.76a79.44,79.44,0,0,0,8.54-1.65c2.84-.76-12.89-35.1-20-56.15-.57-6.81-1.81-14.9-1.81-14.9l8.37,1.33c12.12,2.2,14.8,4.35,17.12,7.68,8.45,12.1,20.93,57.31,12.89,79.7A3.85,3.85,0,0,1,1343.31,1093.81Z"/><path class="cls-18" d="M1274.76,949.91a50.53,50.53,0,0,0,14.6-3.95c6.41-2.79,14.5.28,17.12,1.66a3.84,3.84,0,0,0-.64-1.57,3.53,3.53,0,0,1,1.36,2c.12.09.17.15.14.17a4.61,4.61,0,0,1,2.2.14s-.61-.08-.82.3a.27.27,0,0,1-.1.11c10,4.83,10.93,20.64,7.71,24.3-3.87,4.4-8.52,14.31-8.52,14.31a8.5,8.5,0,0,1-1-6.22c.7-3.87-2.64-3.87-6.87-5.63s-.7-6.69-4.4-9.68-17.25-1.23-17.07-3.52C1273.46,960.5,1274.76,950.42,1274.76,949.91Z"/><path class="cls-14" d="M1300.81,1070a2.52,2.52,0,1,0-2.52,2.52A2.52,2.52,0,0,0,1300.81,1070Z"/><path class="cls-10" d="M1156.69,1319.33a7.49,7.49,0,0,1-4.84,8.53c-3.53,1.28-7.08-.46-7.94-3.88a7.48,7.48,0,0,1,4.84-8.53C1152.28,1314.17,1155.83,1315.91,1156.69,1319.33Z"/><path class="cls-33" d="M1159.21,1318.42a7.49,7.49,0,0,1-4.84,8.52c-3.53,1.28-7.09-.45-7.94-3.88a7.47,7.47,0,0,1,4.83-8.52C1154.79,1313.26,1158.35,1315,1159.21,1318.42Z"/><path class="cls-10" d="M1203.4,1320.39a7.48,7.48,0,0,1-4.84,8.53c-3.53,1.28-7.08-.46-7.94-3.88a7.49,7.49,0,0,1,4.84-8.53C1199,1315.23,1202.54,1317,1203.4,1320.39Z"/><path class="cls-33" d="M1205.91,1319.48a7.47,7.47,0,0,1-4.83,8.52c-3.53,1.29-7.09-.45-7.95-3.88a7.49,7.49,0,0,1,4.84-8.52C1201.5,1314.32,1205.06,1316.06,1205.91,1319.48Z"/><path class="cls-34" d="M1143.6,1316.75l8.67,3.82a7.85,7.85,0,0,0,2.82.64l52.42,1.92,7.3-9.39Z"/><path class="cls-34" d="M1226.51,1211.05l-2.65-.7c6.77-18.45,19.72-54.67,20.29-59.65.35-3.15-.22-5.45-1.71-6.86-2.4-2.27-6.41-1.61-6.45-1.61l-.16,0-11.25.67c-13.47-.28-16.27,10.82-16.38,11.29l0,.15-17.89,51.7-2.67-.64,17.87-51.65a19,19,0,0,1,19.39-13.7l11.07-.66c.74-.11,5.49-.69,8.58,2.24,2.09,2,2.91,5,2.45,9C1246.21,1157.27,1227.31,1208.86,1226.51,1211.05Z"/><path class="cls-34" d="M1220.71,1201.79l27.29,7.09s7.67,3.81,3.62,18.45c-3.56,12.88-21.81,85.26-21.81,85.26s-3.8,15.06-34.74,9.18Z"/><path class="cls-35" d="M1233.08,1222.52l-21,81a21.07,21.07,0,0,1-4.67,8.7,20.45,20.45,0,0,1-15.91,7.1l-26.21-1.07-.65,0-16.42-.67a17,17,0,0,1-4.65-.84c-.34-.11-.67-.23-1-.36a15.72,15.72,0,0,1-9.62-13,18.85,18.85,0,0,1,.83-7.88l24.69-77.31c2.64-8.24,10.31-14.3,18.64-14.71l4.7-.24,1.12,0h0l.94,0,15.71-.78,1.93-.09,15.16-.75a16.94,16.94,0,0,1,6.61,1l.4.14.81.35C1231.43,1206.12,1235.3,1213.94,1233.08,1222.52Z"/><path class="cls-34" d="M1207.44,1312.25a20.45,20.45,0,0,1-15.91,7.1l-26.21-1.07-.65,0-16.42-.67a17,17,0,0,1-4.65-.84c-.34-.11-.67-.23-1-.36-5.36-2.19-10.75-9.51-9.62-17,0,0,55.52,1.88,66.8,4.25C1205.6,1304.9,1206.69,1309.25,1207.44,1312.25Z"/><path class="cls-34" d="M1183.91,1203.16c-.13.07-13.52,7-16.2,13.61-2.77,6.74-26.79,85.69-27,86.48,0,.06-1.59,7.73,3.72,13.75l-.8-.25c-.34-.11-.67-.23-1-.36a15.58,15.58,0,0,1-2.88-13.32c1-3.26,24.29-79.8,27.07-86.59,2.43-6,12-11.54,15-13.22l1.12,0h0Z"/><path class="cls-34" d="M1201.55,1202.29a28.42,28.42,0,0,0-12.46,15.46c-3.51,11.12-23.4,92.14-23.6,93v.06l0,.06s-1.67,4.38.53,7.49l-.66,0-.65,0c-2.05-3.32-.38-7.19-.13-7.74.61-2.5,20.12-81.94,23.6-93a29.55,29.55,0,0,1,11.48-15.17Z"/><path class="cls-34" d="M1224.53,1203a24.39,24.39,0,0,0-5.41,3.77,27,27,0,0,0-7.3,11.61c-3.51,11.12-22,91.93-22.19,92.74v.07l0,0s-1.06,5,1.13,8.1l-1.65-.07c-1.6-2.82-.66-7.74-.4-8.32.6-2.58,18.72-81.74,22.2-92.76a27.05,27.05,0,0,1,12.45-15.68l.4.14Z"/><path class="cls-19" d="M1239.47,1133.4s-8.93,3.27-9.19,9.88c-.13,3.45,0,7.5,4.12,7,3.09-.34,1.72-3.78,4.3-5.5s7.9-7.9,8.07-10.82S1239.47,1133.4,1239.47,1133.4Z"/><path class="cls-19" d="M2443.62,925.55c-.31-.78-4.22-12.33-7.18-13.89s-8.43-3.27-9.67-2.65-3.59,9.36,0,13.89,12.79,8.89,12.79,8.89Z"/><path class="cls-41" d="M2488.46,959.85c-20.6.63-49.86-26.12-49.86-26.12a20.4,20.4,0,0,1,2.35-5.58,16.53,16.53,0,0,1,2.67-2.6c7.49,5,34,9.67,34,9.67C2487.05,936.34,2505.67,959.33,2488.46,959.85Z"/><path class="cls-9" d="M2444.73,920.56l-9.17,3.05a.67.67,0,0,1-.85-.42l-7.51-22.55a.67.67,0,0,1,.43-.84l9.17-3.06a.67.67,0,0,1,.84.42l7.51,22.56A.66.66,0,0,1,2444.73,920.56Z"/><path class="cls-18" d="M2442.25,921.38l-8.19,2.73a1.19,1.19,0,0,1-1.5-.74l-7.18-21.58a1.17,1.17,0,0,1,.75-1.49l8.19-2.73a1.19,1.19,0,0,1,1.5.75l7.18,21.57A1.17,1.17,0,0,1,2442.25,921.38Z"/><path class="cls-19" d="M2426.06,910.18s2.34-4.84,6.63-2.89,2.42,9.29-.07,11.86a25.15,25.15,0,0,0-3.2,3.75Z"/><path class="cls-18" d="M2506.34,1154s1.12,10.78-1.33,11.94-31.36.15-31.36.15.08-3.63,5.07-4.33,13.8-3.48,15.42-10S2506.34,1154,2506.34,1154Z"/><path class="cls-18" d="M2535.13,1154s1.16,11-1.28,12.24c-1,.5-32.59.18-32.59.18a7.5,7.5,0,0,1,6.26-4.66c5-.7,13.8-3.48,15.41-10S2535.13,1154,2535.13,1154Z"/><path class="cls-9" d="M2520.16,988.42s0,1.18-.07,3.32c-.3,13.74-1.47,66.86-2.59,96.48,0,1.08-.08,2.12-.12,3.14,0,.53,0,1.07-.07,1.6a320.27,320.27,0,0,1-4.57,39.56c-2.5,14.3-5,24-5,24-9.54,1.94-15.73-1.69-15.73-1.69s-2.57-22.19-3.55-35.63c-.32-4.36-1.89-19.23-3.86-37.32-1.53-14-3.3-29.91-4.92-44.38-.08-.78-.16-1.55-.25-2.31-2.62-23.4-4.79-42.46-4.79-42.46l16.87-1.61Z"/><path class="cls-18" d="M2512.74,1132.52l-28.18-50.61c-1.53-14-3.3-29.91-4.92-44.38-.08-.78-.16-1.55-.25-2.31-2.62-23.4-4.79-42.46-4.79-42.46l16.87-1.61,28.62.59Z"/><path class="cls-9" d="M2477.72,992.88s15.77,77.94,28.62,115.56,13,48.07,13,48.07,11.79,2.55,17-.41c0,0,3-71.31-4.81-90.25-5.14-12.53-9.08-39.19-7.74-48.79s2.59-28.87,2.59-28.87Z"/><path class="cls-19" d="M2511.41,872.66l-13.08,12.53a41.51,41.51,0,0,1-8.34-9.74,68.22,68.22,0,0,1-4.37-8.38c-.72-1.58,7.26-6.63,11.77-9.83a18.56,18.56,0,0,0,2.84-2.34s.36.9.94,2.25a49.82,49.82,0,0,0,4.11,7.53C2509.15,870,2511.41,872.66,2511.41,872.66Z"/><path class="cls-7" d="M2522.17,997.05c-3.73,2.64-9.6,3.59-16.07,3.49a87.85,87.85,0,0,1-22.59-3.68,52.67,52.67,0,0,1-9-3.44c-10-5.21-8.56-12.14-8.32-38.08.24-26.48,16.53-60.7,19.47-66.43,5.22-10.2,28.65-6.44,28.65-6.44,5.14,2.47,7,10.68,7.47,21.41.56,11.92-.53,27-.53,40.65,0,11.34,2.14,21.35,3.7,29.66C2527,985,2528.05,992.88,2522.17,997.05Z"/><path class="cls-41" d="M2525,974.19c-4.51,9.5-13.39,20.19-18.9,26.35a87.85,87.85,0,0,1-22.59-3.68c-2.82-6.73-4.05-18-1.45-36.52,2-14.15,16.42-71,16.42-71,11.66-1.52,18.91,4.83,23.35,14.58.56,11.92-.53,27-.53,40.65C2521.3,955.87,2523.44,965.88,2525,974.19Z"/><path class="cls-41" d="M2511.15,867.58s4,12.63,3.21,14.89c0,0-21.67,2.92-30.47,11.49,0,0,2.86-12.31,6.38-15.38S2511.15,867.58,2511.15,867.58Z"/><path class="cls-42" d="M2510.46,1034.14a9.43,9.43,0,0,0-4.32-8.18,36.7,36.7,0,0,0-22.65-5.71c-17.75,1.12-21.7,11-22.26,18.59s-6.48,18.6-7.89,27.05-3.76,30,8.81,31.65,54.71,0,54.71,0,9.82-11.51,0-33.62C2511,1050.81,2510.31,1039.89,2510.46,1034.14Z"/><path class="cls-42" d="M2505,1022.77l-3.36-.45a7.57,7.57,0,0,0-1.05-4.14,5.5,5.5,0,0,0-4.51-2.25,5.09,5.09,0,0,0-4.54,1.68,8.19,8.19,0,0,0-1.46,4.44l-3.38,0a13.43,13.43,0,0,1,2.47-7.61,8.07,8.07,0,0,1,7.07-2.94,8.49,8.49,0,0,1,6.94,3.82A13,13,0,0,1,2505,1022.77Z"/><path class="cls-33" d="M2525.45,1097.52s-42.15,1.71-54.73,0-10.23-23.17-8.79-31.65,7.31-19.43,7.89-27a20.93,20.93,0,0,1,.77-4.55c1.8-6.49,7.16-13.12,21.46-14a36.74,36.74,0,0,1,22.67,5.73,9.46,9.46,0,0,1,4.33,8.16c0,.67-.05,1.48-.05,2.29a70.51,70.51,0,0,0,6.45,27.5C2535.28,1086,2525.45,1097.52,2525.45,1097.52Z"/><path class="cls-43" d="M2467.53,1069h25.17s1.69,18.41-10.33,19S2467.16,1080.82,2467.53,1069Z"/><path class="cls-42" d="M2467.53,1069s4.32,6.58,12.21,6.39,13-6.39,13-6.39Z"/><path class="cls-43" d="M2497.81,1069H2523s1.69,18.41-10.33,19S2497.44,1080.82,2497.81,1069Z"/><path class="cls-42" d="M2497.81,1069s4.32,6.58,12.21,6.39,13-6.39,13-6.39Z"/><path class="cls-43" d="M2519.05,1034.14c0,.67-.05,1.48-.05,2.29-4.64,5.82-12.53,12.81-23.12,12.45a29.9,29.9,0,0,1-25.29-14.61c1.8-6.49,7.16-13.12,21.46-14a36.74,36.74,0,0,1,22.67,5.73A9.46,9.46,0,0,1,2519.05,1034.14Z"/><path class="cls-10" d="M2495.3,1052.55h0a2.07,2.07,0,0,1-2.06-2.07v-1.87a2.07,2.07,0,0,1,2.06-2.07h0a2.07,2.07,0,0,1,2.07,2.07v1.87A2.07,2.07,0,0,1,2495.3,1052.55Z"/><path class="cls-19" d="M2492.4,999.58s-6.09,11.76-3.05,16.33,13.94-1.3,14.81-3.91,0-15.25,0-15.25Z"/><path class="cls-7" d="M2518.49,907.59s-2.27,32.37-2.24,45.75-10.63,49-10.63,49-7,.57-9.82.21a11.31,11.31,0,0,1-5.08-1.87s2.34-42.08-2.13-58.2-4.7-48.52-4.7-48.52,2.48-7,17.33-4.78C2518.83,891.8,2518.49,907.59,2518.49,907.59Z"/><path class="cls-44" d="M2501.17,857.15s-2.7,14.38-11.18,18.3a68.22,68.22,0,0,1-4.37-8.38c-.72-1.58,7.26-6.63,11.77-9.83C2499.64,857.2,2501.17,857.15,2501.17,857.15Z"/><path class="cls-19" d="M2483.09,871.1s20.31-3.57,17.89-16.19-1.43-21.58-14.5-19.83-14.67,7-14.88,11.46S2477.74,871.71,2483.09,871.1Z"/><path class="cls-18" d="M2501.93,858.75s-1.78-1.6,3.57-7.79c2.76-3.2,5.25-6.22,2.94-12.43s-1.42-10.8-10.13-12.1-9-5.47-13.65-4.72-9.57,6.68-13.56,7.34-9.84,20.15-1,20.9a12.57,12.57,0,0,0,5.36-3.56c1.86-2.41,10.17-7.3,12.24-5S2497.23,858.15,2501.93,858.75Z"/><path class="cls-21" d="M1680.48,1116.07H1661s-4.29.7-6,13.7-6.89,36.14-6.89,36.14h25.88Z"/><path class="cls-26" d="M1667.28,1165.91c2.26-.26,105.18,0,105.18,0s4.16-.58.46-18.25a20.27,20.27,0,0,1-.36-2.82c-.33-4.81.53-10.54.23-15.16,0,0,1.31-14.78-18.41-13.56s-55.67,1.35-69.23-.06-16.64,9.14-16,15.76a33.32,33.32,0,0,1-.06,4.61C1668.41,1146.61,1665.38,1166.12,1667.28,1165.91Z"/><path class="cls-26" d="M1697.81,1122.15c.06-.11,6.81-11,18-11.68s22.6,10.43,22.71,10.54l2.43-2.43c-.51-.5-12.48-12.31-25.35-11.53s-20.42,12.81-20.73,13.33Z"/><path class="cls-45" d="M1787.15,1094.77a10.58,10.58,0,0,0-4.83-9.14,41.06,41.06,0,0,0-25.32-6.38c-19.84,1.25-24.25,12.28-24.88,20.78s-7.24,20.78-8.82,30.23-4.2,33.48,9.85,35.37,61.15,0,61.15,0,11-12.86,0-37.57C1787.79,1113.4,1787,1101.2,1787.15,1094.77Z"/><path class="cls-31" d="M1796.73,1094.77a10.56,10.56,0,0,0-4.83-9.14,41,41,0,0,0-25.32-6.38c-19.84,1.25-24.25,12.28-24.88,20.78s-7.24,20.78-8.81,30.23-4.21,33.48,9.84,35.37,61.16,0,61.16,0,11-12.86,0-37.57C1797.38,1113.4,1796.56,1101.2,1796.73,1094.77Z"/><path class="cls-45" d="M1740,1133.73h28.14s1.89,20.57-11.55,21.2S1739.6,1147,1740,1133.73Z"/><path class="cls-31" d="M1740,1133.73s4.83,7.34,13.65,7.13,14.49-7.13,14.49-7.13Z"/><path class="cls-45" d="M1773.87,1133.73H1802s1.89,20.57-11.55,21.2S1773.45,1147,1773.87,1133.73Z"/><path class="cls-31" d="M1773.87,1133.73s4.83,7.34,13.64,7.13,14.49-7.13,14.49-7.13Z"/><path class="cls-45" d="M1778.08,1117.82h-15a12.63,12.63,0,0,1-12.6-12.59h0a12.64,12.64,0,0,1,12.6-12.6h15a12.63,12.63,0,0,1,12.59,12.6h0A12.63,12.63,0,0,1,1778.08,1117.82Z"/><path class="cls-31" d="M1751.68,1091.6s6.69,10.19,18.91,9.9,20.08-9.9,20.08-9.9Z"/><path class="cls-31" d="M1781.06,1082.06l-3.76-.38a5.31,5.31,0,0,0-1.18-3.55c-1-1.17-2.72-1.82-5-1.93a6.68,6.68,0,0,0-5.07,1.44,5.86,5.86,0,0,0-1.63,3.81h-3.78a9.65,9.65,0,0,1,2.77-6.52c1.89-1.83,4.56-2.61,7.89-2.52s6,1.27,7.76,3.28A9.12,9.12,0,0,1,1781.06,1082.06Z"/><path class="cls-21" d="M1845.89,1151s-.91,14.68-3.75,14.89c-.38,0-14.4,0-14.4,0l-17.91-.1s.12-4.32,5.35-5.23,14-4.59,17.17-11.51C1835.68,1141.8,1845.89,1151,1845.89,1151Z"/><path class="cls-46" d="M1846.92,1152a37.31,37.31,0,0,1-9.69,1.82,35.64,35.64,0,0,1-9-1.29s-1-9.91-6.66-31.74c-3-11.45-7.18-26.16-13.18-44.45-16.61-50.53-21.66-80.09-22.12-82.89,0-.15,0-.22,0-.22l.06,0,51-22.42s-6.31,69.65,1.75,96.38A114.75,114.75,0,0,1,1842,1080C1847,1109,1846.92,1152,1846.92,1152Z"/><path class="cls-5" d="M1842,1080l-20.44,40.82c-3-11.45-7.18-26.16-13.18-44.45-16.61-50.53-21.66-80.09-22.12-82.89a1,1,0,0,1,0-.25l51-22.42s-6.31,69.65,1.75,96.38A114.75,114.75,0,0,1,1842,1080Z"/><path class="cls-21" d="M1806,1151s-.91,14.68-3.75,14.89c-.38,0-14.4,0-14.4,0l-17.91-.1s.12-4.32,5.35-5.23,14-4.59,17.17-11.51C1795.8,1141.8,1806,1151,1806,1151Z"/><path class="cls-46" d="M1777.06,972.43a727.12,727.12,0,0,0,7.15,100.55c7.81,55.42,5.16,78.94,5.16,78.94a52.66,52.66,0,0,0,7.53,1.91,34.15,34.15,0,0,0,11.17-1.29s11.18-55.43,8-83.17,15.3-95.18,15.3-95.18Z"/><path class="cls-47" d="M1817.45,864.21s26.75,27.61,28,38-12.73,26.7-12.73,26.7Z"/><path class="cls-19" d="M1813.27,866.82l-10,6.53-14.4-2.68c.2-1.17,1.15-6,2-10.35l.15-.76c.74-3.72,1.38-6.91,1.38-6.91l13.46-5.93,5-2.22c0,.08-.39,4.13-.44,4.72A34.3,34.3,0,0,0,1813.27,866.82Z"/><path class="cls-47" d="M1792.59,863.52c.28-.12,17.34-5.15,19.2-4.54s3,4.2,3,4.2l-27.91,6.31S1789,865,1792.59,863.52Z"/><path class="cls-31" d="M1838.54,978c-2.89,13.2-51,14.76-63.44,2.79-1.41-1.37-1.48-7.72-.94-16.28,1-16.73,4.38-41.9,4.51-54.76a102.14,102.14,0,0,1,2-18.33,148.61,148.61,0,0,1,6.11-21.93s23.51-7.6,27.91-6.31C1835.93,869.41,1841.43,964.81,1838.54,978Z"/><path class="cls-47" d="M1774.16,964.51c1-16.73,4.38-41.9,4.51-54.76a102.14,102.14,0,0,1,2-18.33l14.15-2.49S1808.69,945.41,1774.16,964.51Z"/><path class="cls-19" d="M1781.81,941.19a3.32,3.32,0,0,1-1.06,3.85c-2,1.55-3.33,4.05-2.87,5.88s4.9,4.82,6.44,4.34,4.68-2.89,4.34-3.86,2.11-8.48-1.65-11.37S1781.81,941.19,1781.81,941.19Z"/><path class="cls-31" d="M1797.63,866.1s-13.79,2.58-24.78,18.78-18.22,28.24-16.2,34.07S1777.13,945,1780.31,945s8.31-2.32,8.6-7.52c0,0-13-19.48-10.43-22.39,1.09-1.25,16.87-14,19.12-8.27C1801.33,916.43,1797.63,866.1,1797.63,866.1Z"/><path class="cls-48" d="M1809.47,849.4c-3,5-14,9.33-18.55,10.92l.15-.76c.74-3.72,1.38-6.91,1.38-6.91l13.46-5.93C1808.88,846.68,1810.69,847.34,1809.47,849.4Z"/><path class="cls-19" d="M1787.38,851.83s21.67,6.76,25.67-6.79,9.49-21.82-4.17-26.71-17.89-.51-20.33,3.69S1781.85,849.73,1787.38,851.83Z"/><path class="cls-21" d="M1789.4,820.71s1.39,15.78,4.65,15.09,6.22-1.19,5.74,3.57-5,10.24,5.06,11.09,24.5-25.09,21.74-30C1818.62,806.29,1777.88,803.43,1789.4,820.71Z"/><path class="cls-39" d="M1527.1,1281.51s-7.35,2.67-10.5,14.77-11,59.34-4,59.34,14.81-17.48,14.81-17.48Z"/><polygon class="cls-19" points="1438.14 1338.14 1411.26 1387.47 1415.43 1391.75 1446.16 1362.93 1438.14 1338.14"/><path class="cls-9" d="M1435.67,1390.67s1.85,23.16,4,51c3,37.81,14.25,132,14.25,132s-2.4,3.75,9.22,1.31c0,0,14.23-32.09,17.18-69,.05-.61.09-1.22.14-1.83,2.75-37.57,7-116.69,7-116.69Z"/><path class="cls-18" d="M1435,1382.67s2.48,31.16,4.67,59l40.65,64.33c.05-.61.09-1.22.14-1.83,2.75-37.57,7-116.69,7-116.69Z"/><path class="cls-9" d="M1451.15,1379.13l57.43,189.79s8.23,5.08,9.82,1.83c0,0,6.15-81.34-6-101.66-6.88-11.48-6.21-39.19-6.33-50.2-.36-30.9-6.5-45.61-6.5-45.61Z"/><path class="cls-18" d="M1489.09,1593.35s13.62,2,18.08-1.34c.52-.4,2.63-4.77,2.65-4.82.17-.35,1.09-1.93,4-2.5,1.93-.38,3.47-.15,5.34-.62a48.78,48.78,0,0,0,5.4-1.79c4.55-1.91,3.76-3.34,3.76-3.34s-.82-1-1.88-2.36c-.29-.38-.6-.79-.9-1.23-1.58-2.19-3.29-4.91-3.58-6.73a6.05,6.05,0,0,0-1.66-3.36,5.69,5.69,0,0,0-1.81-1.27s-2.28,5.79-5.13,4.65c-5.51-2.2-6.6-2.17-6.8-2.11l0,0s-5.86,8.42-7.58,11.47c-3.07,5.44-6.32,7.22-8.43,8.86a5,5,0,0,0-1.26,1.4C1488,1590.35,1488.41,1592.85,1489.09,1593.35Z"/><path class="cls-18" d="M1464.84,1590.14h-5.69c-1.9-.3-3.31-.85-5.27-1.1-3-.39-4.33.83-4.6,1.1l0,.06h-24.17c-.61-.87,0-2.88.55-4.36a3.43,3.43,0,0,1,2.26-2.07c2.56-.74,7.61-1.4,12.24-5.59,2.6-2.35,12.57-8.65,12.57-8.65h0c.22,0,1.26.33,5.8,4.15,2.34,2,6.33-2.79,6.33-2.79a5.51,5.51,0,0,1,1.31,1.78,6,6,0,0,1,.52,3.71c-.36,2.18.81,6.22,1.73,9,.57,1.66,1,2.84,1,2.84S1469.73,1589.53,1464.84,1590.14Z"/><path class="cls-19" d="M1487.05,1256.9s-22.64,11.15-35.73,7a31.33,31.33,0,0,1,8.84-7.21c-.32-1.9-.58-3.64-.78-5.2a79.63,79.63,0,0,1-.75-8.8l13.87-11.19,3.12-2.5a39.55,39.55,0,0,0,.42,7.38c0,.18,0,.35.08.53C1478.38,1250.39,1487.05,1256.9,1487.05,1256.9Z"/><path class="cls-32" d="M1501.84,1376.71c.07,1.44-4.55,2.94-5.84,3.51-5.72,2.57-11.44,3.51-17.07,5a75.16,75.16,0,0,1-12.14,2.19c-12.12,1.25-26.45-1.48-31.37-1.42a2.08,2.08,0,0,1-1.37-.52c-.33-.26-.59-15.07-.33-33.75,0-.72,0-1.51.06-2.23v-.26c.07-7.28.33-14.94.66-22.54.72-16.78,2-33,4.26-42,2.62-10.55,8.65-17.49,14.16-22.6l3.91-3.9a1.05,1.05,0,0,1,.93-.28,21.69,21.69,0,0,0,13.77-1.53c5.17-2.55,10.81-5.31,11.73-4.65,10.74,8,16.09,31.75,16,58.73,0,.85,0,1.7,0,2.56q-.08,4.18-.31,8.44c-1.17,19.9,1.31,35.24,2,45.27C1501.05,1369.68,1501.79,1375.13,1501.84,1376.71Z"/><path class="cls-39" d="M1476.23,1236.72a2.35,2.35,0,0,1-.11.21c-.87,1.57-6.86,11.69-16.74,14.58a79.63,79.63,0,0,1-.75-8.8l13.87-11.19a39.06,39.06,0,0,1,3.54,4.88Z"/><path class="cls-19" d="M1454.62,1242.4s21.62,3.59,23.65-9.91,6.18-22.12-7.53-25-17.18,1.88-19,6.22S1449.05,1241.12,1454.62,1242.4Z"/><path class="cls-28" d="M1474.31,1229s2.87-2.9,1.22-4.73-2.61,1-3.92.87-3.65-3.91-3.82-7.39-12.73,1.83-17.78.17-9.46-8.39-1.58-12c4.64-2.13,27.8-13.14,36.6-2,11.21,14.22-3.76,29.13-5.76,31.4s-3.15,1.59-3.15,1.59S1472.59,1232.15,1474.31,1229Z"/><path class="cls-39" d="M1484.33,1348.42s29.92,9.83,34.48,6.51,4.08-15.44,4.08-15.44l-37,2Z"/><path class="cls-39" d="M1496.74,1335.6s-10.73,1.66-13.64,5.64,9.6.74,11.15-.25S1496.74,1335.6,1496.74,1335.6Z"/><path class="cls-28" d="M1485.5,1205.24a15,15,0,0,0-1.22-5.48,19.89,19.89,0,0,1-.35,4.29C1483.53,1205.5,1485.5,1205.24,1485.5,1205.24Z"/><path class="cls-28" d="M1487.79,1202.92s-2.73.3-2.9,2.44l1,1.28S1485.7,1203.91,1487.79,1202.92Z"/><path class="cls-19" d="M1497.48,1269.79s25.89,62.58,24,72.58-49.64,21.64-49.64,21.64l-.85-7.1,28.71-23.78s-27.33-40.32-23.78-48.1S1495.86,1265.81,1497.48,1269.79Z"/><path class="cls-32" d="M1475.92,1293.61c8.76.43,17.2-1.55,26.16-10.3,1.47-1.43,3.29-2.35,2.47-4.22-2.94-6.72-11.24-20.77-21.35-27.3-1-.61-1.67-.08-2.65.47-3.73,2.1-11.77,8.29-12.26,15.59-.44,6.49,1.79,17.75,3.13,23.81C1471.87,1293.67,1473.86,1293.51,1475.92,1293.61Z"/><path class="cls-19" d="M1411.26,1387.47s-7.92,6.75-8.27,11.24c-.19,2.4-1.27,11.46.56,11s3.66-7.45,6.19-8.15,5.69-9.85,5.69-9.85Z"/><path class="cls-19" d="M1415.43,1391.75s-1.69,8.37-3.09,11-2.32,3.24-2.71,2.71.74-8.75.74-8.75Z"/><path class="cls-19" d="M1471,1356.91s-10.51,1.66-12.06,3.77,1.27,7.87,4.22,8.43,8.69-5.1,8.69-5.1Z"/><path class="cls-39" d="M1482.14,1343.08c-.59,2.13-.79,4.55.66,8.83s2.59,4.54,4.06,1.73,2.21-5.61,4-8.87c1-1.81-.67-4.55-3.19-5.12A4.73,4.73,0,0,0,1482.14,1343.08Z"/><path class="cls-39" d="M1487.52,1339.62s4.41.84,5.14,2.74-.42,4.64-.52,6.22-1.06,1-1.24.35-.85-5.25-.85-5.25Z"/><path class="cls-20" d="M1530,1280.28s-6.75,0-11.47,9-7.66,23.62-7.66,23.62,4.64,12.65,14.34,10.55S1530,1280.28,1530,1280.28Z"/><path class="cls-26" d="M1723.3,1593.19c-.9,4.1,1.9,8.84,6.24,10.57s8.58-.18,9.47-4.28-1.9-8.84-6.24-10.57S1724.19,1589.08,1723.3,1593.19Z"/><path class="cls-26" d="M1666.92,1593.39c-.9,4.11,1.9,8.84,6.24,10.58s8.58-.18,9.47-4.28-1.9-8.84-6.24-10.58S1667.81,1589.29,1666.92,1593.39Z"/><path class="cls-49" d="M1739.35,1592.13l-10.36,4.16a8.9,8.9,0,0,1-3.4.62l-63.55-.42-9.26-11.76Z"/><path class="cls-49" d="M1681.16,1473.43l-26.71-45.14,0-.08c-.19-.41-4.87-10.1-21.27-12.21l-.07,0-13.64-2.49c-1.79-.45-6.84-1.2-8.7.75-.82.87-1,2.22-.41,4.13,1.09,3.79,18.7,33.06,30.28,51.81l-2.29,1.11c-3-4.81-29.1-47.2-30.66-52.66-.82-2.85-.51-5.05.9-6.53,3-3.19,10.22-1.52,11-1.34l13.45,2.46c17.65,2.28,23.29,12.94,23.88,14.17l26.61,45Z"/><path class="cls-49" d="M1640.8,1448.86,1608,1456s-9.15,4.21-3.6,22.15c4.89,15.79,30.15,104.39,30.15,104.39s5.26,18.44,42.57,13Z"/><path class="cls-7" d="M1626.67,1473.31l28.95,99.23a28.18,28.18,0,0,0,6,10.78c5.09,5.72,12.32,9.42,19.61,9.44l31.78.08h.79l19.9.05a19.81,19.81,0,0,0,5.61-.76c.41-.12.8-.25,1.19-.39a17.16,17.16,0,0,0,11.12-15.22,23.33,23.33,0,0,0-1.34-9.59L1717,1472c-3.56-10.12-13.14-17.86-23.27-18.8l-5.71-.53-1.37-.13h0l-1.14-.1-19.11-1.77-2.34-.22-18.44-1.7a20,20,0,0,0-8,.8l-.47.16-1,.37C1628,1453.54,1623.61,1462.8,1626.67,1473.31Z"/><path class="cls-50" d="M1661.66,1583.32c5.09,5.72,12.32,9.42,19.61,9.44l31.78.08h.79l19.9.05a19.81,19.81,0,0,0,5.61-.76c.41-.12.8-.25,1.19-.39,6.42-2.37,12.65-11,11-20,0,0-67.32-.64-80.91,1.63C1663.58,1574.52,1662.45,1579.72,1661.66,1583.32Z"/><path class="cls-49" d="M1685.53,1452.46c.15.09,16.7,9.24,20.25,17.32,3.64,8.31,36.21,105.17,36.54,106.15,0,.08,2.25,9.44-3.93,16.45l1-.25c.41-.12.8-.25,1.19-.39,5.67-7.27,3-15.62,2.93-16-1.34-4-32.92-97.91-36.59-106.27-3.21-7.33-15-14.61-18.84-16.8l-1.37-.13h0Z"/><path class="cls-49" d="M1664.08,1450.47c2.41,1.46,11.74,7.74,15.78,19.38,4.74,13.65,32.37,112.8,32.65,113.8l0,.07,0,.07s2.22,5.4-.31,9h1.59c2.34-3.91.15-8.69-.17-9.36-.86-3.07-28-100.28-32.66-113.82a40,40,0,0,0-14.59-19Z"/><path class="cls-49" d="M1636.21,1450.1a33.27,33.27,0,0,1,6.73,4.86,36.14,36.14,0,0,1,9.36,14.44c4.74,13.64,30.66,112.47,30.92,113.47l0,.07,0,.07s1.5,6.1-1,9.75h2c1.82-3.33.47-9.34.12-10-.83-3.16-26.23-100-30.93-113.5a36.67,36.67,0,0,0-15.8-19.64l-.47.16Z"/><path class="cls-18" d="M1611,1567.93s6.44,5.87,5.18,10-7.06,7-7.84,12-3.92,7.88-6.75,7.88h-13.46s-2.08-3.59,2.94-4.67,6.91-7.07,6.6-12.63a98.88,98.88,0,0,1,.47-13l10.67-2.47Z"/><path class="cls-18" d="M1556.61,1570.42s2.31,24.87-.51,26.26l-36.14-.08s0-4.17,5.8-5.09,16-4.33,17.73-11.9S1556.61,1570.42,1556.61,1570.42Z"/><path class="cls-34" d="M1527.1,1366.35s-10.42,32.43-11.09,43.47,19.92,156.85,20.74,161.94c.78,4.8,6.74,7.85,6.74,7.85a9,9,0,0,0,6.65.51c5.42-1.53,7.13-3.36,7.13-3.36s8.11-104,3.1-141.14a588.19,588.19,0,0,1-5.08-69.27Z"/><path class="cls-35" d="M1571.24,1365.38s15.89,21.33,17.37,35.74,2.33,65.05,5.48,79.1,14.76,41.1,14.76,84.93a8.77,8.77,0,0,1-4.93,3.85,41,41,0,0,1-4.33,1.2,6.82,6.82,0,0,1-7.62-3.62c-7.84-15.79-32.82-66.7-34.1-77.27-.91-7.48-8.79-57-26-86-4.13-7,2.53-34.7,2.53-34.7Z"/><path class="cls-18" d="M1563.51,1217.45c.24-.86,3.36-10.54,18.46-7.33,0,0-7.56-.95-9.63,2,0,0,6-2.74,9.74-.44s4.37,10,3.81,12.37-4.7,9.36-7.45,9.36a8.11,8.11,0,0,1-3.13-.78,37.91,37.91,0,0,1,1.12,4.08c2.91,13.72-6.21,24.14-10.93,21.57-3-1.66-5.31,3.64-5.31,3.64l-25.1-33.27S1552.58,1207.59,1563.51,1217.45Z"/><path class="cls-19" d="M1524.08,1379.14c11.38-36.4-1.1-44.32.09-62.54s15.29-37.8,15.29-37.8l1.94-.18c.94-.5,1.2-4.46,1.18-8.64,0-5-.39-10.34-.39-10.34l16.91-3.35,1-.2c0,11.77,3.06,19.5,5.3,21.3,2.12.25,11.13,1.38,16.68,3.7,2.09.88,3.69,1.92,4.25,3.14,4.65,10.22,9.28,36,12.54,54.38,1.82,10.25,3.21,18.21,3.93,19.89,2,4.71,8.18,30.58,13.44,43.35l-6.72,2s-22.18-36.8-24.2-46.38c-.66-3.11-2.27-9.35-4.15-16.34-.29-1.06-.58-2.13-.87-3.22-3.32,9-5,13.19-4.93,17.08.13,5.54,3.89,10.52,11.74,28.13C1591.46,1392.88,1512.45,1416.32,1524.08,1379.14Z"/><path class="cls-39" d="M1542.19,1262.32s.38,5.32.39,10.34c9.47-.27,14.47-8.9,16.52-13.69Z"/><path class="cls-18" d="M1560.85,1257.13s5-7.84,6.15-14.54c.85-4.79-1.59-22.52-19.41-20a24.16,24.16,0,0,0-10,3.8c-3.87,2.61-9.45,8.25-3.21,23.73l1.62,5.23Z"/><path class="cls-19" d="M1539,1267.07s22.39.37,22.41-13.58,2.91-23.3-11.38-24.13-17.09,4.5-18.22,9.15S1533.2,1266.61,1539,1267.07Z"/><path class="cls-18" d="M1532.5,1230.76c3.46-4.19,6.07-3.28,7.54-2,12-6.66,20.13,3.22,20.13,3.22a26.68,26.68,0,0,0,8.72,15.75s-4.08,2.52-13.49.1a16,16,0,0,1-7.62-5.25,52.17,52.17,0,0,0,9,11c-11.24-5.2-15.76-20.83-16.21-22.48-1.36,1.23-4.06,3.89-4.88,6.51-1.12,3.55-1.62,10.86-3.75,10.61C1531.93,1248.17,1527.31,1237.05,1532.5,1230.76Z"/><path class="cls-19" d="M1615.7,1400.65s2,4.82,4.17,6.16,5.15,4.6,4.59,7.17-1.12,6.61-3.8,6.61-9-11.87-9.75-14.11-1.46-2.69-1.46-2.69Z"/><path class="cls-20" d="M1592.41,1398.34a10.41,10.41,0,0,1-.27,3.44c-.89,2.88-4,4.19-11.42,3.41-4.54-.48-6.57-8.27-7.48-14.91q-4.1,14.25-11.5,16c-7.22,1.64-46.21,4.4-48.59-13.27-2.62-19.44,7.82-52.09,8.25-70.65a93.31,93.31,0,0,1-1.32-17.19c.3-13.22,4.1-20.63,7-23.61.83-.65,1.66-1.06,5-1.64,1.7-.29,4.05-.63,7.38-1.08,0,0,1.43-.19,1.4-.14-.61,1.13-7.24,11.09-6.6,14.36.68,3.44,26.15,2.94,28.17,1s7.28-16.11,7.28-16.11,10.35,1.15,15.41,4.91l0,.07a4.31,4.31,0,0,1,1.33,1.43c5.4,10.51,10.8,37,14.6,55.94a26.52,26.52,0,0,1-19.73,3C1584.53,1365,1591.92,1388.42,1592.41,1398.34Z"/><path class="cls-20" d="M1545.46,1258.83s-.42,1.72-4.71,1.4c0,0-3.59-.26-3.46-2.15A11.56,11.56,0,0,1,1545.46,1258.83Z"/><path class="cls-19" d="M1610.91,1406.48s.73,5.42,2.16,6.67,1.64,3.5,3.11,2.29S1610.91,1406.48,1610.91,1406.48Z"/><path class="cls-39" d="M345.64,1116.5s5.92,63.8-7.27,98.55c-3.64,9.61-44.1,47.08-50.46,59.63,0,0-8.69-7.55-7.57-9.34,5.85-9.31,13.74-38.09,31.33-57.22s-3.64-68.61-3.64-68.61Z"/><path class="cls-19" d="M340.61,1096.8c16.64-4.23,34.92-30,34.92-30l-4.68-4.06c-4.85,5.71-25,15.56-25,15.56.11-5.23,0-10-.35-14.35-2.24-29.52-13.37-39.35-16.41-41.51a8,8,0,0,0-.77-.5s0,.22,0,.62c0,.88-.12,2.65-.21,5.07C327.45,1045.66,326.71,1100.34,340.61,1096.8Z"/><path class="cls-19" d="M370.85,1062.7c.07-.7-.31-9.84,2.71-11.69,2.38-1.47,5.83-5.64,7-5.43s4.28,6.91,2.45,11.36-7.46,9.82-7.46,9.82Z"/><path class="cls-19" d="M329.66,1300.1l-8.46-1s-22.11-45.55-19.12-73.81a47.93,47.93,0,0,0-1.8-19.31c-2.12-6.76-4.82-15.74-7.12-24.51-1.41-5.33-2.78-11-4-16.62-1.64-7.58-3-15.25-3.87-22.48-1.4-12-1.32-22.77,1.53-29.76l38.19-3.82s3.29,30.62,4.2,61c.06,1.9.1,3.8.14,5.68.32,16.62-2.17,30.41-3.8,42.5a57.32,57.32,0,0,0-.39,11.34Z"/><path class="cls-18" d="M315.21,989.06s-8.94,7.62-.74,16.39c0,0-6.84.67-9.15-1.23a6.34,6.34,0,0,0,.88,1.34s-7.64.28-10.8-2.11-1.13-41.48,20.08-37.11c0,0,18-1.35,16.3,19.45s5.12,20.8,5.12,20.8a9.69,9.69,0,0,1-2.8.93s-1.33-.51-1.6-1.25a4.86,4.86,0,0,0,.61,1.53s-7.33.69-11-2.07S314.17,993.35,315.21,989.06Z"/><path class="cls-19" d="M342.16,1034.67h-49c3.5-8.78,8.52-15.13,12.34-15.91,2-.54,5.48-7.89,5.44-19.72l.91.18,15.39,3s-.35,4.84-.36,9.41c0,3.8.2,7.67,1.06,8.12,1.11.1,2.11.3,2.11.3S338.4,1026,342.16,1034.67Z"/><path class="cls-39" d="M327.23,1002.27s-.35,4.84-.36,9.4c-8.61-.24-13.16-8.1-15-12.45Z"/><path class="cls-18" d="M310.25,997.54s-4.51-7.13-5.6-13.23c-.77-4.35,1.45-20.49,17.67-18.17a22,22,0,0,1,9.13,3.46c3.52,2.38,8.61,7.51,2.92,21.59L332.9,996Z"/><path class="cls-19" d="M330.11,1006.59s-20.38.33-20.39-12.36-2.66-21.2,10.35-22,15.55,4.09,16.58,8.32S335.41,1006.17,330.11,1006.59Z"/><path class="cls-18" d="M329.36,972s-5.58,14.89-14.15,17.09-12.27-.09-12.27-.09a24.3,24.3,0,0,0,7.93-14.33S325.15,964.88,329.36,972Z"/><path class="cls-18" d="M328,973.18s4.17,3.32,5.19,6.55,1.47,9.89,3.41,9.66c0,0,4.2-10.12-.52-15.84C331,967.47,328,973.18,328,973.18Z"/><path class="cls-19" d="M259.84,1131.67l6.12,1.84s20.18-33.49,22-42.2c.59-2.84,2.06-8.52,3.77-14.87,3.55-13.18,8.12-29.29,8.12-29.29l1.51-6.53,5.13-22.24s-9.83,1-15.59,3.41c-1.9.79-3.35,1.74-3.86,2.86-4.23,9.29-8.45,32.75-11.41,49.48-1.66,9.32-2.92,16.56-3.58,18.1C270.24,1096.5,264.63,1120.05,259.84,1131.67Z"/><path class="cls-18" d="M328.75,973.68s-4,15.6-14.78,20.59c0,0,10.8-9.58,11.72-19.88S328.75,973.68,328.75,973.68Z"/><path class="cls-20" d="M327.44,1061.37c.86,21.06,4,41.92,13.18,40.57,11.24-1.64,14.16-12.13,14.76-19.92a45.05,45.05,0,0,0-.16-8.67s-5.53,0-6.43-.85c-4.25-3.92-3-42.41-5.09-46.4s-15.75-6.57-15.75-6.57S326.58,1040.56,327.44,1061.37Z"/><path class="cls-9" d="M275.46,1159.38A124.94,124.94,0,0,0,295.3,1164c14.63,2.28,35.08,3.11,53.34-4.65,0,0,1.51-30.71-2.82-46.72s-6.35-23.68-6.35-23.68-17.34,4.92-35,1.11a54.41,54.41,0,0,1-7.39-2.16s-10.86,26.06-13.85,37.23S275.46,1159.38,275.46,1159.38Z"/><path class="cls-20" d="M257.62,1100.54c0,5.29,5.39,8.55,11.18,10.13,5.57,1.52,11.5,1.5,13.36.26,3.2-2.15,8.41-26,9.94-33.26l.43-2.08s4.16,9.92,4.29,10.85c.06.42.11,1,.14,1.49s.07,1.12.07,1.12,22.57,11.39,42.34.93c0,0,8-46.43,4.54-54.42-1.73-4-10.77-12.16-14.39-15.7-.81-.79-.73-2.37-.41-3.8a1.67,1.67,0,0,0-2-2c-2.33.61-6.51.5-11-1a26.61,26.61,0,0,1-6.73-3.28,1,1,0,0,0-1.59.72c-.34,2.77-1.18,7.83-2.7,7.83-2.11,0-16.46,1.75-17.51,3.52-.37.62-4.1,9.06-8.81,20.25v0C269.89,1063.16,257.62,1093.78,257.62,1100.54Z"/><path class="cls-51" d="M292.53,1075.59s4.16,9.92,4.29,10.85c.06.42.11,1,.14,1.49a20.53,20.53,0,0,0,6.92,3.64c7,2.13,10.1-11.35,9.68-18.08s-10.38-25.94-13.69-26.34S292.53,1075.59,292.53,1075.59Z"/><path class="cls-5" d="M292.1,1077.67l.43-2.08A10,10,0,0,0,292.1,1077.67Z"/><path class="cls-52" d="M244.68,1157.74a6.23,6.23,0,0,1,4-4.62,24.17,24.17,0,0,1,15.36-.37c11.22,3.3,12.32,10.2,11.58,15.16s1.46,12.87,1.13,18.49-1.93,19.76-10.24,19-35.1-7.94-35.1-7.94-4.62-8.81,4.88-21.56A45.9,45.9,0,0,0,244.68,1157.74Z"/><path class="cls-42" d="M249.83,1151.24l2.22.2a5,5,0,0,1,1.27-2.5,3.63,3.63,0,0,1,3.23-.79,3.32,3.32,0,0,1,2.66,1.74,5.28,5.28,0,0,1,.29,3.06l2.17.5a8.85,8.85,0,0,0-.48-5.24,5.31,5.31,0,0,0-4.11-2.91,5.57,5.57,0,0,0-5,1.44A8.53,8.53,0,0,0,249.83,1151.24Z"/><path class="cls-35" d="M225.87,1196.22s26.79,7.22,35.1,8,9.93-13.38,10.23-19-1.86-13.52-1.13-18.49a13.72,13.72,0,0,0,.17-3c-.22-4.42-2.69-9.45-11.73-12.1a24.08,24.08,0,0,0-15.38.38,6.24,6.24,0,0,0-4,4.61c-.1.43-.18,1-.3,1.48a46.5,46.5,0,0,1-8.13,16.7C221.23,1187.42,225.87,1196.22,225.87,1196.22Z"/><path class="cls-43" d="M267.16,1186.33,251,1182.68s-3.75,11.56,3.88,13.67S265.68,1194,267.16,1186.33Z"/><path class="cls-42" d="M267.16,1186.33a10,10,0,0,1-8.76,2.33,12.46,12.46,0,0,1-7.39-6Z"/><path class="cls-43" d="M247.74,1181.94l-16.15-3.66s-3.76,11.56,3.87,13.67S246.26,1189.58,247.74,1181.94Z"/><path class="cls-42" d="M247.74,1181.94a10,10,0,0,1-8.76,2.32,12.42,12.42,0,0,1-7.39-6Z"/><path class="cls-34" d="M239.17,1156.5c-.1.43-.18,1-.3,1.48,2.13,4.4,6.18,10,13,11.33a19.68,19.68,0,0,0,18.34-5.7c-.22-4.42-2.69-9.45-11.73-12.1a24.08,24.08,0,0,0-15.38.38A6.24,6.24,0,0,0,239.17,1156.5Z"/><path class="cls-10" d="M251.73,1171.75h0a1.36,1.36,0,0,0,1.63-1l.27-1.21a1.36,1.36,0,0,0-1-1.62h0a1.35,1.35,0,0,0-1.62,1l-.27,1.21A1.35,1.35,0,0,0,251.73,1171.75Z"/><path class="cls-19" d="M260.27,1130.65s-1.86,4.39-3.79,5.61a10.82,10.82,0,0,0-4.18,6.52c-.74,4.34,2.59,7,5,7s4.79-3.33,6.23-11.3c.08-.43,2.4-5,2.4-5Z"/><path class="cls-31" d="M321,1095.1c12.85,0,18.14-4.43,18.53-4.73l.83-6c-.12.09-17.35,10.44-44,.53l.57,4.59C307.1,1093.25,314.28,1095.1,321,1095.1Z"/><path class="cls-19" d="M321.18,1300.37s1,3.18-.08,5.6l12.19,7.45,14.37,3.74,4.23-2.19s-21.41-10.87-22.47-27.46C328.6,1274.61,321.18,1300.37,321.18,1300.37Z"/><path class="cls-26" d="M331.67,1317c6.94.91,4.72,2.17,14.13,4.67s13.44.2,14.24-1-3.59-3.25-8.15-5.65l-.08.07a27.23,27.23,0,0,1-14.48-1c-6.18-2.23-12-6.5-16.23-8.07a16.92,16.92,0,0,0-1.55,4.27C318.8,1314.53,324.73,1316.07,331.67,1317Z"/><path class="cls-39" d="M268.62,1270.09c-3.58,1.86-1.38,7.09,1.86,12.72s1.06,4.69,4.5,13,7.42,10,8.78,9.91c1.2-.1.37-4.47-.43-9.19-.1-.59-.2-1.18-.29-1.78-.85-5.34,1.38-10.08,2.75-15.55,1.31-5.18,9.92-14.85,9.92-14.85l-4.35-11.54s-7.62,8.92-11,12.51c-2,2.11-5.2,3-7.71,3.49A15.84,15.84,0,0,0,268.62,1270.09Z"/><path class="cls-26" d="M270.48,1282.81c3.23,5.62,1.06,4.69,4.5,13s7.42,10,8.78,9.91c1.2-.1.37-4.47-.43-9.19h-.1a25.25,25.25,0,0,1-7.41-11.22c-1.83-5.8-1.95-12.48-3.19-16.49a15.84,15.84,0,0,0-4,1.26C265,1272,267.24,1277.18,270.48,1282.81Z"/><polygon class="cls-18" points="384.52 1041.33 384.22 1047.32 383.82 1055.21 383.49 1061.74 372.61 1061.74 372.26 1055.21 371.83 1047.32 371.51 1041.33 384.52 1041.33"/><polygon class="cls-20" points="385.27 1042.28 370.85 1042.28 371.26 1040.08 385.01 1040.08 385.27 1042.28"/><polygon class="cls-20" points="379.47 1040.08 382.83 1039.3 383.29 1040.08 379.47 1040.08"/><polygon class="cls-20" points="384.22 1047.32 383.82 1055.21 372.26 1055.21 371.83 1047.32 384.22 1047.32"/><path class="cls-19" d="M384.22,1047.32s-3-2.23-3.42.79c-.22,1.46,3.06,6.28,3.06,6.28C385,1053.38,385.84,1048.05,384.22,1047.32Z"/><path class="cls-19" d="M817.23,1142.59c.57,2.85,4.65,2.38,9.2,1.26s3.46.21,9.94-.5,8.43-3.13,8.63-4.1-3-1.15-6.45-1.55l-1.3-.15c-3.88-.49-6.71-3-10.23-5-3.33-2-8.31-9.87-8.31-9.87l-8.88.7s4.66,7.08,6.46,10.16c1.06,1.81,1,4.2.87,6A11.92,11.92,0,0,0,817.23,1142.59Z"/><path class="cls-18" d="M826.43,1143.85c4.55-1.11,3.46.21,9.94-.5s8.43-3.13,8.63-4.1-3-1.15-6.45-1.55l0,.07a18.32,18.32,0,0,1-9.28,2.88c-4.39.11-9-1.15-12.08-1.1a11.92,11.92,0,0,0,.07,3C817.8,1145.44,821.88,1145,826.43,1143.85Z"/><path class="cls-19" d="M740.93,1155.36c-1.77,2.32,1.28,5.06,5.13,7.74s2.13,2.74,7,7.12,7.93,4.25,8.78,3.76-1.13-3-3.1-5.86L758,1167c-2.2-3.22-2.21-7-3-11-.75-3.79,5.43-17.71,5.43-17.71l-9.93-1.25a111.94,111.94,0,0,1-2.41,11.79c-.66,2-3.42,3.31-4.89,4.43A11.79,11.79,0,0,0,740.93,1155.36Z"/><path class="cls-18" d="M746.06,1163.1c3.84,2.67,2.13,2.74,7,7.12s7.93,4.25,8.78,3.76-1.13-3-3.1-5.86l-.07,0a18.23,18.23,0,0,1-8.3-5.05c-3-3.22-5.12-7.54-7.16-9.79a11.79,11.79,0,0,0-2.23,2.06C739.16,1157.68,742.21,1160.42,746.06,1163.1Z"/><path class="cls-21" d="M781.49,1084.22l-9.07,24.42-11.84,31.87a19.32,19.32,0,0,1-6.3-.57,27.36,27.36,0,0,1-6.08-3s3.29-34.23,9.42-53.88c1.57-5,3.34-9.12,5.28-11.41C772.41,1060.45,781.49,1084.22,781.49,1084.22Z"/><path class="cls-40" d="M772.27,1045.46c-5.94-1.92-23.86-.78-40.88,2.55l-2.61-4.56L692,1040.58s-12.14,26.92-5.49,44.07a6.21,6.21,0,0,0,6.22,4.19h.54l29,0c18.29,0,38.71-12.57,41.35-13.1,4.32-.86,6,7.78,10.38,16.86s40.64,40.21,40.64,40.21,5.58.06,7.89-.81a7.83,7.83,0,0,0,3.39-2.13S785.67,1049.78,772.27,1045.46Z"/><path class="cls-18" d="M715.9,932.12c-5.18-1.24-12.21.21-13.38.35-14,1.63-17.09,23.33-16,29.39,1.92,11.19-3.46,14.34-9.87,23.29s-7.41,17.12-5.5,23.5a17.89,17.89,0,0,0,.59,1.7,19.5,19.5,0,0,0,11.4,11.16,9.16,9.16,0,0,0,3,.49,8.83,8.83,0,0,0,.89,0,3.42,3.42,0,0,0,.45,0,18.69,18.69,0,0,0,4.81-1.24,29.74,29.74,0,0,0,5.65-2.95c.08,0,3.32-3,7.9-7.38l16.38-15.5,4-3.77c1.76-1.67,3.4-3.21,4.85-4.57a11.15,11.15,0,0,0,1.91-1C747.86,975.71,728.59,935.14,715.9,932.12Z"/><path class="cls-19" d="M718.89,983.27c.06,0-5.69,3.78-10.38,3-4.41-.74-9.07-6.49-9-6.51,1.78-.54,3.35-2.62,2.24-13.36l.84.08,14.09,1.36s.12,4.38.52,8.47C717.53,979.75,718.06,983,718.89,983.27Z"/><path class="cls-23" d="M716.67,967.83s.12,4.38.52,8.47c-7.75.56-12.55-6.08-14.61-9.83Z"/><path class="cls-19" d="M719.64,971.45s-18.26,2.13-19.42-9.26-4.29-18.8,7.33-20.64,14.32,2.27,15.63,6S724.36,970.6,719.64,971.45Z"/><path class="cls-18" d="M721,941.68s-8.82,12.63-16.31,15.37-11,1-11,1a31,31,0,0,0,4.75-11.68,5.58,5.58,0,0,1,3.65-4.33C707.43,940.19,717.78,937.32,721,941.68Z"/><path class="cls-18" d="M713.71,942.61s4.72,2.69,6.6,5.1,3.76,8.5,3.48,11.22c0,0,3-13-1.79-17.68C717,936.25,713.71,942.61,713.71,942.61Z"/><path class="cls-20" d="M732.93,1013.51c-.55,36.89-.15,29.18-4.18,32.68-1,.85-3.71,1.35-7.31,1.59-11.31.75-31.2-1.12-32-3.21-2.61-7.23-.77-9.48-3-20.55-.23-1.18-.51-2.46-.84-3.85-1.81-7.6-3.58-10.19,2.86-22.41,5.84-11.07,12.15-19.91,12.69-19.59,15.41,9.15,16.41,1.32,16.41,1.32S733.2,995.51,732.93,1013.51Z"/><path class="cls-40" d="M772.42,1108.64l-12.11,33.2s-4.35,1.42-7.52,1a9.42,9.42,0,0,1-5-2.23s3.7-37.82,9.83-57.47Z"/><path class="cls-20" d="M717.67,979.49s15.85,2.68,17.71,9.51,15.48,44.44,15.48,44.44-10.72,4-14.45.24-12.95-34.54-12.95-34.54Z"/><path class="cls-53" d="M721.44,1047.78c-11.31.75-31.2-1.12-32-3.21-2.61-7.23-.77-9.48-3-20.55l5.31-12.09s-.75,13.83,4.29,18.33,20.66,8.69,23.11,12.45A13.64,13.64,0,0,1,721.44,1047.78Z"/><path class="cls-19" d="M722.36,1039.9s3.37,2.91,4.33,3.14a2.6,2.6,0,0,0,1.5,0l-2.45-2.88Z"/><path class="cls-19" d="M721,1036.48l8.53,2.2a1.41,1.41,0,0,1-1.19.76,18.84,18.84,0,0,1-3.56-.25Z"/><path class="cls-19" d="M706.56,1041.18s12.18-5.42,14.47-4.7,8.15,3.82,9.06,5.13-4.8-.17-6.58-.28c-1.16-.07-3.85,1.52-5.18,2.28-5.61,3.22-9.51,2.94-9.51,2.94Z"/><path class="cls-20" d="M701.25,978.17s-17.23,3.24-20.42,8c-7,10.42-21.79,53.59-13.49,59.38,9.35,6.52,42.56,1.71,42.56,1.71s1.1-5.17-.43-7.66-26.52-6.54-27.68-7.69,11.39-17.83,10.06-21C687.57,1000.68,701.25,978.17,701.25,978.17Z"/><path class="cls-19" d="M769.36,1039.34s12.06,3.26,13.3,5.13,3.67,7.59,3.57,9.08-3.4-3-4.63-4.09c-.8-.73-3.69-1.17-5.12-1.4-3.58-.58-5.31-2.22-6.65-3a3.71,3.71,0,0,0-2-.44Z"/><path class="cls-19" d="M781.61,1047.75s.73,4.1,1.29,4.84a2.47,2.47,0,0,0,1.08.9l-.08-3.54Z"/><path class="cls-19" d="M782.66,1044.47l4.9,6.64a1.33,1.33,0,0,1-1.31-.15,17.6,17.6,0,0,1-2.44-2.28Z"/><path class="cls-19" d="M769.83,1045a7.6,7.6,0,0,0,3.35,3.69c2.23,1,3.87,2.43,4.23,1.91s-1.69-3.29-1.69-3.29Z"/><path class="cls-20" d="M747.66,1024.55l25.35,16s-2.66,3.56-3.55,3.89c-4.69,1.72-25.81.07-33.05-10.79Z"/><path class="cls-32" d="M737.61,1042c1.49,0,16.38-1,16.38-1s-.43,2.64.49,4L740,1047.76l-3-.87Z"/><path class="cls-35" d="M712.78,1044.36l24.83-2.39s-.88,4.59,2.36,5.79l-27.37,2S710.4,1046.66,712.78,1044.36Z"/><path class="cls-35" d="M754,1041.27l-16.78,1.29s.12-.58.44-.59,16.66-1.19,16.66-1.19l0,.45Z"/><polygon class="cls-35" points="739.97 1047.76 754.75 1044.96 754.61 1044.57 738.87 1047.59 739.97 1047.76"/><path class="cls-21" d="M885.88,1054.22l13.49,0s3,.49,4.14,9.47c.65,4.92,2,11.93,3.06,17.28a6.42,6.42,0,0,1-6.32,7.69l-8.52,0a1.62,1.62,0,0,1-1.61-1.42Z"/><path class="cls-26" d="M895.35,1088.68c-.71,1.14-54.14-.24-69.16-.26a5.28,5.28,0,0,1-5.32-5.49,47.88,47.88,0,0,1,1.06-7.12,14.58,14.58,0,0,0,.26-2c.24-3.32-.34-7.28-.12-10.47,0,0-.87-10.22,12.75-9.32s38.46,1.07,47.83.13,11.48,6.35,11,10.92a23.06,23.06,0,0,0,0,3.19C894.14,1075.35,898.42,1083.77,895.35,1088.68Z"/><path class="cls-26" d="M874.13,1058.37c0-.07-4.68-7.62-12.41-8.11s-15.64,7.14-15.72,7.22l-1.67-1.68c.35-.35,8.65-8.47,17.54-7.91s14.08,8.91,14.3,9.27Z"/><g id="man"><path class="cls-19" d="M2327.6,1344.12c-1.6,4.3-4.37,9.29-7.28,10.53a11.36,11.36,0,0,0-4.67,3.39l-2.66-1.54-3.18-1.85s.07-.35.23-.93.39-1.37.71-2.25a3.07,3.07,0,0,0,.38-2.83,6.56,6.56,0,0,1,.54-5.49c1-1.49,2-5.14,2.62-5,1.49.26-.73,5.28-.09,6.21a1.11,1.11,0,0,0,1.43.49l0,0c4.17-1.83,9.23-11.72,11.48-10.39C2328,1334.91,2328.29,1342.29,2327.6,1344.12Z"/><path class="cls-9" d="M2313.17,1350.11l5.23,3.67a.82.82,0,0,0,1.14-.2l13.39-19a.83.83,0,0,0-.2-1.15l-5.23-3.67a.82.82,0,0,0-1.14.2L2313,1349A.83.83,0,0,0,2313.17,1350.11Z"/><path class="cls-18" d="M2318,1353.47l3.07,2.15a.63.63,0,0,0,.87-.15l13.61-19.37a.63.63,0,0,0-.15-.87l-3.06-2.16a.64.64,0,0,0-.87.16l-13.62,19.37A.63.63,0,0,0,2318,1353.47Z"/><path class="cls-18" d="M2238.18,1322.77s26.6,46.39,36.25,54.92l35.38-26.37a12.9,12.9,0,0,1,7.38,6.72s-21.48,43.78-42.64,45.63-50.84-52.46-50.84-52.46Z"/><path class="cls-18" d="M2178,1638.29h-15.37c-1.94-1-3.66-3.46-4.21-7-.75-5-6.3-7.65-7.5-11.71s5-9.74,5-9.74l1-1.33,1.07-1.37,10.2,2.4s.26,2.43.41,5.52a69.6,69.6,0,0,1,0,7.08c-.3,5.4,1.51,11.21,6.31,12.26C2178.48,1635.14,2178.32,1637.24,2178,1638.29Z"/><path class="cls-18" d="M2267.18,1638.29H2232c-1.69-2.07-1.07-9.68-.82-12.16.06-.5.09-.79.09-.79s12-9.6,13.65-2.25c.05.23.11.45.18.67,2.08,6.88,11.39,10,16.77,10.87C2265.41,1635.2,2266.7,1637,2267.18,1638.29Z"/><path class="cls-35" d="M2260.48,1442.12s-1.82,22.73-4,50.06c-2.91,37.13-6.41,82.73-6.76,91.37-.6,15-3,39-3,39s-5.7,5.7-17.1,3.29c0,0-10.16-34.25-13.06-70.49,0-.6-.09-1.2-.13-1.79-2.7-36.9-6.9-114.59-6.9-114.59Z"/><path class="cls-34" d="M2260.48,1442.12s-1.82,22.73-4,50.06l-39.92,63.17c0-.6-.09-1.2-.13-1.79-2.7-36.9-6.9-114.59-6.9-114.59Z"/><path class="cls-35" d="M2252.16,1444.82s-32.84,82.34-54.44,121-28.35,49.5-28.35,49.5-12.37-4.95-13.5-8.33c0,0,8.26-74.7,22.73-92.91,8.17-10.29,17.77-41.17,18.22-52s2.92-32.17,2.92-32.17Z"/><path class="cls-19" d="M2244,1324.78c-12.84,4-35-6.88-35-6.88s11.84-8.88,11.22-27.35l9.92,8,6.74,5.43a82,82,0,0,1-.76,8.82c-.2,1.48-.44,3.12-.74,4.92A30.84,30.84,0,0,1,2244,1324.78Z"/><path class="cls-23" d="M2236.82,1304a82,82,0,0,1-.76,8.82c-7.47-1.28-15.95-13.35-15.95-13.35a23.86,23.86,0,0,1,10-.9Z"/><path class="cls-19" d="M2240.75,1303.68s-21.2,3.52-23.19-9.71-6.07-21.7,7.38-24.51,16.85,1.85,18.59,6.1S2246.21,1302.42,2240.75,1303.68Z"/><path class="cls-9" d="M2261.9,1444a2.08,2.08,0,0,1-1.35.52c-4.82-.07-18.87,2.61-30.77,1.39-10-1-18.9-3.94-28.43-8.21-1.26-.57-4.18-2.12-4.11-3.53s.2-3.8.39-6.63a355.92,355.92,0,0,0,.71-46.27q-.32-5.46-.33-10.79c-.1-26.45,5.14-49.72,15.68-57.6.9-.64,6.43,2.06,11.51,4.56a21,21,0,0,0,13.82,1.68l4.43,3.92c5.4,5,11.32,11.82,13.89,22.17,2.18,8.8,3.47,24.68,4.17,41.14.33,7.45.58,15,.65,22.11v.25c.06.71.06,1.48.06,2.19C2262.48,1429.23,2262.22,1443.75,2261.9,1444Z"/><path class="cls-18" d="M2197.63,1427.55a355.92,355.92,0,0,0,.71-46.27q-.32-5.46-.33-10.79c4.39-10.65,8-18.38,8-18.38h11.06S2225.17,1407.54,2197.63,1427.55Z"/><path class="cls-18" d="M2140.94,1490.36l47.2,6.73a11.31,11.31,0,0,0,12.76-9.58l2.92-20.45a11.32,11.32,0,0,0-9.58-12.76l-47.2-6.73a11.32,11.32,0,0,0-12.77,9.58l-2.91,20.45A11.31,11.31,0,0,0,2140.94,1490.36Z"/><path class="cls-9" d="M2196.91,1460.41v0a11.34,11.34,0,0,0-7.79-6.82h0a9.14,9.14,0,0,0-1.09-.21l-9.4-1.34.63-4.41a3.74,3.74,0,0,0-3.17-4.23l-1.65-.24-.8-.11-8.68-1.24-1.19-.17-1.78-.25a3.74,3.74,0,0,0-4.23,3.17l-.62,4.42-16.23-2.32a11.37,11.37,0,0,0-12.81,9.62l-2.94,20.69a11.35,11.35,0,0,0,9.61,12.81l47.12,6.71a10.64,10.64,0,0,0,2.45.08h0a11.2,11.2,0,0,0,3.68-.93h0a11.38,11.38,0,0,0,6.66-8.76l2.95-20.69A11.35,11.35,0,0,0,2196.91,1460.41ZM2160,1444.86a1.42,1.42,0,0,1,1.16-1.18,1.48,1.48,0,0,1,.42,0l2.1.3h.08l7.69,1.1,1.79.25,2.44.35a1.39,1.39,0,0,1,1.18,1.57l-.62,4.42-16.86-2.41Z"/><path class="cls-19" d="M2176.83,1429.46s-2.48,3.3-2.58,4.62c-.66,8.94,3.42,10.18-7.15,15.14,0,0-4.52,1.73-4.6-1.78s3.14-3.56,2.55-8.47c-.68-5.66-.61-5.72,3.11-8.67l2.46-4.07Z"/><path class="cls-9" d="M2170.53,1432a36.61,36.61,0,0,0,8.3.46s11.83-36.55,13.36-39.89,35.14-42.86,35.14-42.86l-14-35s-36.37,60.75-40.06,69.28c-6.1,14.1-8.22,45.73-8.22,45.73A15.24,15.24,0,0,0,2170.53,1432Z"/><path class="cls-9" d="M2217.54,1292.69s2.17-.36,1.82-3.36-.34-6.91,2.09-6.18,2.56,2.68,3.56,1.54,1-5.94,8.27-6.27,10.2,2.19,13.57.7,3.55-6.58,3.55-6.58a5.81,5.81,0,0,1-2.41,2.4s5.62-7.69-.89-13-13.15-1.82-16.92-1.59c-8.3.5-13.66,1-16.38,6.46S2212.21,1287.44,2217.54,1292.69Z"/><path class="cls-19" d="M2172.92,1433.39s2.39,2.49,2.54,3.52c.48,3.33,1.59,4.76,1,5.12-1.16.75-2.69-1.71-3.42-3.91A10.13,10.13,0,0,1,2172.92,1433.39Z"/></g><path class="cls-54" d="M2926.66,1317.89s-10.66-12.43-.66-20.33c0,0,7.31-4.42,13.26-4.06,0,0-8.43,14.15-5.7,15.56s8.26-16.45,8.26-16.45,16.63-1.61,22,1c0,0-14.21,11.63-11.21,12.32s18.34-10.72,18.34-10.72,15.47,2.63,14.64,12.07-6.15,12.35-8.49,12.1-16.05-5.48-16.35-3.56,8,8.19,13.73,8.49c0,0-10.91,12-18.16,8.55s-7.87-9-12.39-11-8.37-2-6.51,0,10.05,4.15,12.63,8.72,4.9,7.66-2.6,6.53-19.69-6.62-20.22-12.9Z"/><path class="cls-54" d="M2978,1307.5s-42-1.63-51.3,10.39a30.37,30.37,0,0,1-8.37,11.75l-1,2.68s7.28-7.68,9.89-8.14C2927.2,1324.18,2923.12,1309.29,2978,1307.5Z"/><path class="cls-54" d="M2918.29,1329.64s-9,6.67-9.64,18.59l1.63.14s2.88-12.32,8.09-17.14S2918.29,1329.64,2918.29,1329.64Z"/><path class="cls-54" d="M2889.4,1302.26s16.95-9.5,9-22.38c0,0-6.33-7.91-13.11-10,0,0,3.62,19.22,0,19.67s-2.49-21.7-2.49-21.7S2865,1259.31,2858,1260c0,0,11.07,18.76,7.46,18.31s-16.05-19.44-16.05-19.44-18.31-3.4-21.25,7.46,1.81,16.27,4.52,17,20.12.45,19.67,2.71-12.21,5.88-18.76,3.84c0,0,7.23,17.86,16.72,17s12.44-6.78,18.31-7.24,10.17,1.13,7.24,2.72-12.89.51-17.64,4.55-8.59,6.52.23,8.33,24.64.68,27.8-6.1Z"/><path class="cls-54" d="M2836.5,1269.71s47.47,15.37,52.9,32.55a36,36,0,0,0,4.52,16.5v3.39s-5-11.53-7.69-13.11C2886.23,1309,2896.86,1294.12,2836.5,1269.71Z"/><path class="cls-54" d="M2893.92,1318.76s7.32,11.11,3.15,24.65l-1.89-.51s1.83-14.9-2-22.4S2893.92,1318.76,2893.92,1318.76Z"/><path class="cls-55" d="M2916.37,1289.16s-22.35-12.51-11.92-29.5c0,0,8.34-10.42,17.28-13.11,0,0-4.76,25.33,0,25.93s3.28-28.61,3.28-28.61,23.54-11.32,32.78-10.43c0,0-14.6,24.73-9.83,24.14s21.15-25.63,21.15-25.63,24.14-4.47,28,9.84-2.38,21.45-6,22.34-26.52.6-25.92,3.58,16.09,7.75,24.73,5.06c0,0-9.54,23.54-22,22.35s-16.39-8.94-24.14-9.53-13.4,1.49-9.53,3.57,17,.69,23.24,6,11.32,8.59-.3,11-32.48.89-36.65-8.05Z"/><path class="cls-55" d="M2986.1,1246.25s-62.58,20.27-69.73,42.91c0,0,.3,10.13-6,21.75v4.47s6.56-15.19,10.13-17.28C2920.54,1298.1,2906.54,1278.44,2986.1,1246.25Z"/><path class="cls-55" d="M2910.41,1310.91s-9.65,14.66-4.15,32.5l2.49-.67s-2.41-19.65,2.63-29.53S2910.41,1310.91,2910.41,1310.91Z"/><path class="cls-55" d="M2915.62,1382.09a43.78,43.78,0,0,0,43.77-43.78h-87.55A43.78,43.78,0,0,0,2915.62,1382.09Z"/><path class="cls-6" d="M2926.39,1381.75a42.49,42.49,0,0,1-5.44.34,43.77,43.77,0,0,1-43.77-43.78h10.87A43.78,43.78,0,0,0,2926.39,1381.75Z"/><rect class="cls-55" x="2870.4" y="1338.31" width="89.99" height="1.34"/><rect class="cls-55" x="2900.7" y="1379.33" width="27.81" height="5"/><rect class="cls-20" x="169.13" width="13.49" height="102.3"/><rect class="cls-20" x="610.1" width="13.49" height="102.3"/><rect class="cls-20" x="120.02" y="83.68" width="547.33" height="24.06"/><rect class="cls-20" x="1279.11" width="13.49" height="102.3"/><rect class="cls-20" x="1720.08" width="13.5" height="102.3"/><rect class="cls-20" x="1230.01" y="83.68" width="547.33" height="24.06"/><rect class="cls-20" x="2412.86" width="13.49" height="102.3"/><rect class="cls-20" x="2853.83" width="13.49" height="102.3"/><rect class="cls-20" x="2363.75" y="83.68" width="547.33" height="24.06"/><path class="cls-56" d="M2394.51,1322.58,2383,1250c-1.49-11.57,7.27-21.85,18.62-21.85h321.25a28.3,28.3,0,0,1,27.16,21.31l22.69,77.75Z"/><path class="cls-57" d="M2400.89,1319.54,2387.52,1250c-1.58-11.57,7.73-21.85,19.81-21.85H2749c13.5,0,25.33,8.73,28.9,21.31l22.21,78.32Z"/><rect class="cls-56" x="2394.51" y="1312.08" width="400.72" height="17.91" rx="7.41"/><path class="cls-58" d="M2827.55,1330H2467.74a9,9,0,0,1-8.95-9h0a9,9,0,0,1,8.95-9h359.81a9,9,0,0,1,8.95,9h0A9,9,0,0,1,2827.55,1330Z"/><path class="cls-18" d="M2406,1384.33h-.11a2.7,2.7,0,0,1-2.57-2.88l3.63-51.45h7.82l-6.88,52.76A1.82,1.82,0,0,1,2406,1384.33Z"/><path class="cls-18" d="M2445.79,1384.33h-.11a2.69,2.69,0,0,1-2.56-2.88l3.62-51.45h7.82l-6.88,52.76A1.82,1.82,0,0,1,2445.79,1384.33Z"/><path class="cls-18" d="M2818.18,1384.33h.12a2.69,2.69,0,0,0,2.56-2.88l-3.63-51.45h-7.82l6.89,52.76A1.81,1.81,0,0,0,2818.18,1384.33Z"/><path class="cls-18" d="M2778.37,1384.33h.11a2.7,2.7,0,0,0,2.57-2.88l-3.63-51.45h-7.82l6.88,52.76A1.82,1.82,0,0,0,2778.37,1384.33Z"/><path class="cls-56" d="M662.29,1353l-11.52-72.58c-1.49-11.58,7.27-21.85,18.62-21.85H990.64a28.3,28.3,0,0,1,27.16,21.3l22.69,77.75Z"/><path class="cls-57" d="M668.66,1350l-13.36-69.54c-1.58-11.58,7.73-21.85,19.81-21.85h341.71c13.5,0,25.33,8.72,28.9,21.3l22.21,78.32Z"/><rect class="cls-56" x="662.29" y="1342.53" width="400.72" height="17.91" rx="7.41"/><path class="cls-58" d="M1095.33,1360.44H735.52a9,9,0,0,1-8.95-9h0a9,9,0,0,1,8.95-9h359.81a9,9,0,0,1,9,9h0A9,9,0,0,1,1095.33,1360.44Z"/><path class="cls-18" d="M673.76,1414.78h-.12a2.7,2.7,0,0,1-2.56-2.89l3.63-51.45h7.82l-6.89,52.76A1.8,1.8,0,0,1,673.76,1414.78Z"/><path class="cls-18" d="M713.57,1414.78h-.11a2.71,2.71,0,0,1-2.57-2.89l3.63-51.45h7.82l-6.88,52.76A1.81,1.81,0,0,1,713.57,1414.78Z"/><path class="cls-18" d="M1086,1414.78h.11a2.71,2.71,0,0,0,2.57-2.89l-3.63-51.45h-7.82l6.88,52.76A1.81,1.81,0,0,0,1086,1414.78Z"/><path class="cls-18" d="M1046.14,1414.78h.12a2.7,2.7,0,0,0,2.56-2.89l-3.62-51.45h-7.82l6.88,52.76A1.8,1.8,0,0,0,1046.14,1414.78Z"/><path class="cls-19" d="M533.22,1385.37s5.88,5.88,6.76,7.83,2.15,6.82-2.24,7.21-6.16-.27-6.78-2.37-1.86-9.08-1.86-9.08Z"/><path class="cls-19" d="M535.5,1387.73s4.08,2.07,5.06,3.44,2.69,3.18,1.63,3.4-4.2-2.12-4.2-2.12Z"/><path class="cls-21" d="M571.46,1402.27l19.81.07s4.35.73,6.09,13.92c.95,7.22,2.91,17.52,4.49,25.38a9.42,9.42,0,0,1-9.28,11.28l-12.51-.05a2.39,2.39,0,0,1-2.37-2.09Z"/><path class="cls-26" d="M585.38,1452.88c-1,1.68-79.52-.34-101.57-.37a7.76,7.76,0,0,1-7.81-8.08,68.75,68.75,0,0,1,1.55-10.45,21,21,0,0,0,.38-2.86c.35-4.87-.5-10.7-.18-15.38,0,0-1.28-15,18.72-13.69s56.49,1.57,70.25.19,16.85,9.34,16.2,16A34,34,0,0,0,583,1423C583.6,1433.31,589.88,1445.67,585.38,1452.88Z"/><path class="cls-26" d="M554.21,1408.38c-.07-.11-6.88-11.2-18.22-11.92s-23,10.49-23.09,10.61l-2.45-2.48c.51-.51,12.7-12.44,25.76-11.6s20.68,13.08,21,13.6Z"/><path class="cls-21" d="M496.33,1216.82s10.85,1.07,17,10.32c4.26,6.42,3.5,21.51,9.28,26.7s4.61,15.43-2.7,19.75-46.08,7.31-58.15-2.93,4.17-15.94,3.29-33.21C464.63,1229.42,476,1214.48,496.33,1216.82Z"/><path class="cls-19" d="M512.35,1284.41s11.33,3.1,14.57,18,.71,42,.81,52.35c.1,10.76,6.63,31.82,6.63,31.82s-1,2.62-5.26,2.42c0,0-22.7-30.46-22.89-39S512.35,1284.41,512.35,1284.41Z"/><path class="cls-18" d="M426.22,1573.58s-6.81,6.21-5.48,10.63,7.48,7.37,8.31,12.77,4.15,8.34,7.15,8.34h14.26s2.2-3.8-3.12-4.94-7.32-7.49-7-13.38a104.16,104.16,0,0,0-.5-13.75l-11.3-2.62Z"/><path class="cls-18" d="M483.9,1576.22s-2.45,26.34.54,27.81l38.28-.08s0-4.41-6.15-5.4-17-4.58-18.78-12.6S483.9,1576.22,483.9,1576.22Z"/><path class="cls-19" d="M456.62,1387.22c7.87-17.66,12.69-22.74,11.77-28.22-.68-4.08,2.09-76.1,2.09-76.1.93-.29,2.81-.55,3.83-.77a9.62,9.62,0,0,0,7-6.11,48.87,48.87,0,0,0,2.38-16.25l1,.2,17,3.36s-.38,5.34-.4,10.37v.13a9.75,9.75,0,0,0,7,9.43l4,1.15s6.23,17.79,7.42,36.07-11.33,26.21.09,62.73C531.52,1420.51,452.26,1397,456.62,1387.22Z"/><path class="cls-39" d="M501.69,1263.33s-.38,5.34-.4,10.37c-9.49-.26-14.51-8.93-16.57-13.73Z"/><path class="cls-19" d="M504.86,1268.1s-22.46.37-22.48-13.63-2.92-23.37,11.42-24.2,17.14,4.51,18.28,9.18S510.71,1267.64,504.86,1268.1Z"/><path class="cls-21" d="M504,1229.93s-6.15,16.42-15.59,18.85-13.53-.11-13.53-.11a26.71,26.71,0,0,0,8.74-15.79S499.39,1222.12,504,1229.93Z"/><path class="cls-21" d="M502.51,1231.26s4.56,1.71,6.44,5a22.65,22.65,0,0,1,3,12.85s4.64-11.16-.57-17.47C505.89,1225,502.51,1231.26,502.51,1231.26Z"/><path class="cls-1" d="M500,1259.41a5.64,5.64,0,0,0,4.65,1.9,4.15,4.15,0,0,0,3.46-2.29S503.5,1257.92,500,1259.41Z"/><path class="cls-32" d="M459.68,1314.76s.08,10.65.65,20.31c.38,6.39,1,12.35,1.89,14.47,2.3,5.32,4.9,6.18,4.9,6.18l20.1,4.93,7.07,1.73,22.29-6.66s10.15-28.33,6.07-44.28a123,123,0,0,0-10.3-27s-18.19,17.81-41.87-1.51Z"/><path class="cls-34" d="M515.16,1360s11,34.35,11.74,46-21.09,166.16-22,171.55c-.83,5.08-7.14,8.32-7.14,8.32a9.57,9.57,0,0,1-7,.55c-5.75-1.63-7.56-3.57-7.56-3.57s-8.59-110.17-3.28-149.52a622.42,622.42,0,0,0,5.38-73.38Z"/><path class="cls-35" d="M468.39,1359s-16.83,22.59-18.4,37.86-2.46,68.91-5.81,83.8-15.63,43.54-15.63,90a9.29,9.29,0,0,0,5.22,4.08,44.69,44.69,0,0,0,4.59,1.27,7.25,7.25,0,0,0,8.08-3.83c8.3-16.73,34.76-70.67,36.12-81.86,1-7.93,9.31-60.37,27.53-91.14,4.38-7.39-2.68-36.77-2.68-36.77Z"/><path class="cls-20" d="M500.47,1259.79s.39,1.65,4.49,1.39c0,0,3.45-.21,3.34-2A11.08,11.08,0,0,0,500.47,1259.79Z"/><path class="cls-18" d="M516.92,1354.72s-4.43,3.51-13.23,3.68c-10.52.22-36.57-2.68-36.57-2.68a21.5,21.5,0,0,0-1.11,6.65s31.82,8,50.26,1.17C516.27,1363.54,518.64,1359.07,516.92,1354.72Z"/><rect class="cls-21" x="418.64" y="1385.3" width="51.22" height="28.71" transform="translate(378.61 2866.66) rotate(-159.83)"/><path class="cls-59" d="M473.25,1395s-15.5,9.66-30.34,3.45-17.75-21.12-17.75-21.12Z"/><path class="cls-60" d="M467.86,1389.77a2.57,2.57,0,0,0-.91-.3,3.71,3.71,0,0,0-.47,0,2.79,2.79,0,0,0-2.62,2.13,2,2,0,0,0-.05.26,2.78,2.78,0,0,0,5.24,1.65,2.85,2.85,0,0,0,.27-.87A2.78,2.78,0,0,0,467.86,1389.77Zm-1.55,4.29a1.85,1.85,0,0,1-1.58-2.1.14.14,0,0,1,0-.06,1.84,1.84,0,0,1,2.07-1.52,1.87,1.87,0,0,1,1.59,2.1,1.92,1.92,0,0,1-.24.67A1.86,1.86,0,0,1,466.31,1394.06Z"/><path class="cls-19" d="M434.81,1397.71s0,4.07-.8,6-3.08,4.58-3.85,4.58.7-4.09.32-4-2.25,6.81-3.6,7-2.57-7.54-1.87-10.56,3.76-6.66,3.76-6.66Z"/><path class="cls-19" d="M470.48,1282.9a27.38,27.38,0,0,0-19.12,14.87c-5.17,10.18-8.71,42.22-12.36,52.3-3.49,9.66-7.08,26.23-9.76,41.18-.21,1.16-.47,2.81-.47,2.81l6,3.65c-.58,1.11,2-4.22,2.57-5.49,9.41-20.68,12.09-30.13,17.65-45.93,2.11-6,8.84-19.28,11.54-23.65,6.54-10.61,11.64-14.7,8-26.61Z"/><path class="cls-32" d="M508.34,1283.26a56.68,56.68,0,0,1-34-1.13s-12.33.53-17.87,7-12.19,23.44-12.19,23.44,6.39,13.4,24.17,13.66,54.88-11.29,54.88-11.29,4.7,1.5,8.53-1.34c0,0-3.89-18.54-9.69-23.83S508.34,1283.26,508.34,1283.26Z"/><path class="cls-61" d="M467.77,1390.21c.1-.44,9.32-45.28,12.35-70.79,1.59-13.4.85-23.09-.05-28.87-1-6.31-3.38-9.17-3.43-9.29l-1,.14c.06.12,6,12.62,3,37.85-3,25.45-12.23,70.23-12.33,70.68Z"/><path class="cls-19" d="M540,1396.33s-3.69-2.7-6-1.74-2.48,4.58-1.77,5.33,6.5,1.59,8-.44S540,1396.33,540,1396.33Z"/></svg>