<svg id="Layer_1" data-name="Layer 1" xmlns="http://www.w3.org/2000/svg" viewBox="0 0 2577.26 1114.45"><defs><style>.cls-1{fill:#e58638;}.cls-2{fill:#afcdfb;}.cls-3{fill:#739af0;}.cls-4{fill:#699ff0;}.cls-5{fill:#2b478b;}.cls-6{fill:#d86713;}.cls-7,.cls-8{fill:#d2e4ff;}.cls-7{opacity:0.4;}.cls-8{opacity:0.6;}.cls-9{opacity:0.8;}.cls-10{fill:#f8fbff;opacity:0.7;}.cls-11{fill:#cae0fc;}.cls-12,.cls-14,.cls-27{fill:#4a75cb;}.cls-12{opacity:0.1;}.cls-13{fill:#b64c41;}.cls-14,.cls-34,.cls-37{opacity:0.5;}.cls-15{fill:#98bdf4;}.cls-16{fill:#77a7ed;}.cls-17{fill:#233862;}.cls-18{fill:#ffb27d;}.cls-19{fill:#415da5;}.cls-20{fill:#355493;}.cls-21{fill:#b84c42;}.cls-22{fill:#e8945b;}.cls-23{fill:#e9f3fe;}.cls-24{fill:#fff;}.cls-25{fill:#f1a34f;}.cls-26{fill:#dd7f30;}.cls-28{fill:#e9f2ff;}.cls-29{fill:#2c3a64;}.cls-30{fill:#ed975d;}.cls-31{fill:#ed7d2b;}.cls-32{fill:#f99746;}.cls-33{fill:#35488b;}.cls-35,.cls-37{fill:#82b378;}.cls-36{fill:#a8d29f;}.cls-38{fill:#2e3552;}</style></defs><path class="cls-1" d="M669,142.17l47.56,105.3,1.31-.26,142-28.58s-66.63-3.29-73.81-8.57c-6.77-5-78.94-64.85-99.39-69.87a8.3,8.3,0,0,0-3.15-.28Z"/><path class="cls-1" d="M712.15,269.52c3.32.49,13.23,1.78,26.83,3.29,39.07,4.35,108.51,10.62,138.74,5.65,27.12-4.46,170.53-28.34,269.68-45.72-25.77-29.5-56.73-44-84.71-50.74C947.14,201.75,796,227.88,776.9,232.79c-31.48,8.09-73.38,16.43-73.38,16.43s-.23,1-.42,2.58C702.47,256.93,702.3,268,712.15,269.52Z"/><path class="cls-2" d="M712.15,269.52c3.32.49,13.23,1.78,26.83,3.29,39.07,4.35,108.51,10.62,138.74,5.65,27.12-4.46,170.53-28.34,269.68-45.72,49.79-8.72,88.42-15.81,95.55-18,21.33-6.45,65.16-26.17,59.6-35.12s-23.1-8.7-28.5-11.75l-.23-.13a70,70,0,0,0-6.34-3.25c-10.68-4.78-32.91-11.46-70.49-5.32,0,0-59.75,10.07-134.3,22.8C947.14,201.75,796,227.88,776.9,232.79c-31.48,8.09-73.38,16.43-73.38,16.43s-.23,1-.42,2.58C702.47,256.93,702.3,268,712.15,269.52Z"/><path class="cls-3" d="M712.15,269.52c3.32.5,13.23,1.78,26.82,3.29,3.74-14.74,17.87-22.25,17.87-22.25L703.1,251.8C702.47,256.93,702.3,268,712.15,269.52Z"/><path class="cls-4" d="M1098.79,196.84a1.64,1.64,0,0,1,1.9,1.33l.29,1.71a1.64,1.64,0,1,1-3.23.56l-.29-1.71A1.63,1.63,0,0,1,1098.79,196.84Z"/><path class="cls-4" d="M1082.49,199.67a1.65,1.65,0,0,1,1.9,1.34l.3,1.71a1.64,1.64,0,0,1-3.23.56l-.3-1.71A1.66,1.66,0,0,1,1082.49,199.67Z"/><path class="cls-4" d="M1107.12,195.39a1.64,1.64,0,0,1,1.9,1.33l.3,1.71a1.64,1.64,0,1,1-3.23.56l-.3-1.71A1.64,1.64,0,0,1,1107.12,195.39Z"/><path class="cls-4" d="M1115.46,193.94a1.63,1.63,0,0,1,1.89,1.33l.3,1.71a1.64,1.64,0,0,1-1.33,1.9,1.66,1.66,0,0,1-1.9-1.34l-.3-1.71A1.65,1.65,0,0,1,1115.46,193.94Z"/><path class="cls-4" d="M1123.79,192.49a1.64,1.64,0,0,1,1.9,1.33l.3,1.71a1.64,1.64,0,0,1-3.24.57l-.29-1.72A1.63,1.63,0,0,1,1123.79,192.49Z"/><path class="cls-4" d="M1132.13,191h0a1.63,1.63,0,0,1,1.89,1.33l.3,1.71A1.65,1.65,0,0,1,1133,196h0a1.65,1.65,0,0,1-1.9-1.34l-.3-1.71A1.65,1.65,0,0,1,1132.13,191Z"/><path class="cls-4" d="M1140.46,189.59a1.64,1.64,0,0,1,1.9,1.33l.29,1.71a1.64,1.64,0,0,1-1.33,1.9,1.66,1.66,0,0,1-1.9-1.33l-.29-1.71A1.64,1.64,0,0,1,1140.46,189.59Z"/><path class="cls-4" d="M1148.79,188.14a1.64,1.64,0,0,1,1.9,1.33l.3,1.71a1.64,1.64,0,0,1-3.23.57l-.3-1.71A1.64,1.64,0,0,1,1148.79,188.14Z"/><path class="cls-4" d="M1157.13,186.69A1.63,1.63,0,0,1,1159,188l.3,1.71a1.64,1.64,0,0,1-3.23.57l-.3-1.71A1.65,1.65,0,0,1,1157.13,186.69Z"/><path class="cls-4" d="M1165.46,185.24a1.65,1.65,0,0,1,1.9,1.33l.3,1.71a1.64,1.64,0,0,1-3.24.57l-.29-1.71A1.64,1.64,0,0,1,1165.46,185.24Z"/><path class="cls-4" d="M1173.63,183.82a1.64,1.64,0,0,1,1.9,1.33l.29,1.71a1.64,1.64,0,0,1-1.33,1.9,1.66,1.66,0,0,1-1.9-1.33l-.3-1.72A1.65,1.65,0,0,1,1173.63,183.82Z"/><path class="cls-4" d="M1182,182.37a1.64,1.64,0,0,1,1.9,1.33l.3,1.71a1.64,1.64,0,0,1-3.23.57l-.3-1.71A1.64,1.64,0,0,1,1182,182.37Z"/><path class="cls-4" d="M1190.3,180.92a1.63,1.63,0,0,1,1.89,1.33l.3,1.71a1.64,1.64,0,0,1-3.23.57l-.3-1.71A1.65,1.65,0,0,1,1190.3,180.92Z"/><path class="cls-4" d="M1258.42,167.4l9.06-2.88a70,70,0,0,1,6.34,3.25l-13.88,4.41a2.41,2.41,0,0,1-.79.12,2.51,2.51,0,0,1-.73-4.9Z"/><path class="cls-4" d="M1041.9,219.41a3.48,3.48,0,0,0,.55,0l2.53-.44a3.22,3.22,0,0,0,2.62-3.72l-1.84-10.56A3.21,3.21,0,0,0,1042,202l-2.53.44a3.22,3.22,0,0,0-2.62,3.72l1.84,10.56A3.22,3.22,0,0,0,1041.9,219.41Zm.51-.3a3,3,0,0,1-3.43-2.4l-1.83-10.56a3,3,0,0,1,2.4-3.42l2.54-.45a3,3,0,0,1,3.42,2.41l1.84,10.56a3,3,0,0,1-.5,2.21,2.93,2.93,0,0,1-1.91,1.21Z"/><path class="cls-4" d="M1025.34,222.29a3.39,3.39,0,0,0,.55,0l2.54-.44a3.22,3.22,0,0,0,2.61-3.72l-1.83-10.56a3.22,3.22,0,0,0-3.72-2.62l-2.54.44a3.22,3.22,0,0,0-2.61,3.72l1.83,10.56A3.22,3.22,0,0,0,1025.34,222.29Zm.51-.3a3,3,0,0,1-3.42-2.4L1020.59,209a3,3,0,0,1,2.41-3.42l2.53-.45a3,3,0,0,1,3.42,2.41l1.84,10.56a3,3,0,0,1-2.41,3.42Z"/><path class="cls-4" d="M835,242.73a1.63,1.63,0,0,1,1.89,1.33l.3,1.71a1.64,1.64,0,1,1-3.23.56l-.3-1.71A1.64,1.64,0,0,1,835,242.73Z"/><path class="cls-4" d="M843.33,241.28a1.64,1.64,0,0,1,1.9,1.33l.29,1.71a1.64,1.64,0,1,1-3.23.56l-.29-1.71A1.63,1.63,0,0,1,843.33,241.28Z"/><path class="cls-4" d="M851.66,239.83a1.64,1.64,0,0,1,1.9,1.33l.3,1.71a1.64,1.64,0,1,1-3.23.56l-.3-1.71A1.65,1.65,0,0,1,851.66,239.83Z"/><path class="cls-4" d="M860,238.38a1.63,1.63,0,0,1,1.89,1.33l.3,1.71A1.64,1.64,0,1,1,859,242l-.3-1.71A1.65,1.65,0,0,1,860,238.38Z"/><path class="cls-4" d="M868.33,236.93a1.64,1.64,0,0,1,1.9,1.33l.3,1.71a1.64,1.64,0,1,1-3.24.56l-.29-1.71A1.63,1.63,0,0,1,868.33,236.93Z"/><path class="cls-4" d="M876.67,235.48a1.63,1.63,0,0,1,1.89,1.33l.3,1.71a1.64,1.64,0,1,1-3.23.57l-.3-1.72A1.65,1.65,0,0,1,876.67,235.48Z"/><path class="cls-4" d="M885,234a1.64,1.64,0,0,1,1.9,1.33l.29,1.71a1.64,1.64,0,1,1-3.23.57l-.29-1.72A1.63,1.63,0,0,1,885,234Z"/><path class="cls-4" d="M893.33,232.58a1.64,1.64,0,0,1,1.9,1.33l.3,1.71a1.64,1.64,0,0,1-3.23.57l-.3-1.72A1.64,1.64,0,0,1,893.33,232.58Z"/><path class="cls-4" d="M901.67,231.13a1.63,1.63,0,0,1,1.89,1.33l.3,1.71a1.64,1.64,0,1,1-3.23.57l-.3-1.71A1.65,1.65,0,0,1,901.67,231.13Z"/><path class="cls-4" d="M999.87,214.05a1.64,1.64,0,0,1,1.9,1.33l.29,1.71a1.64,1.64,0,1,1-3.23.56l-.3-1.71A1.64,1.64,0,0,1,999.87,214.05Z"/><path class="cls-4" d="M1008.2,212.6a1.64,1.64,0,0,1,1.9,1.33l.3,1.71a1.66,1.66,0,0,1-1.34,1.9h0a1.64,1.64,0,0,1-1.89-1.34l-.3-1.71A1.63,1.63,0,0,1,1008.2,212.6Z"/><path class="cls-4" d="M1016.54,211.15a1.63,1.63,0,0,1,1.89,1.33l.3,1.71a1.64,1.64,0,1,1-3.23.56l-.3-1.71A1.64,1.64,0,0,1,1016.54,211.15Z"/><path class="cls-4" d="M1024.87,209.7a1.64,1.64,0,0,1,1.9,1.33l.29,1.71a1.64,1.64,0,1,1-3.23.56l-.29-1.71A1.63,1.63,0,0,1,1024.87,209.7Z"/><path class="cls-4" d="M1033.2,208.25a1.64,1.64,0,0,1,1.9,1.33l.3,1.71a1.64,1.64,0,1,1-3.23.56l-.3-1.71A1.64,1.64,0,0,1,1033.2,208.25Z"/><path class="cls-4" d="M1041.54,206.8a1.63,1.63,0,0,1,1.89,1.33l.3,1.71a1.64,1.64,0,1,1-3.23.56l-.3-1.71A1.64,1.64,0,0,1,1041.54,206.8Z"/><path class="cls-4" d="M1049.87,205.35a1.64,1.64,0,0,1,1.9,1.33l.3,1.71a1.64,1.64,0,1,1-3.24.56l-.29-1.71A1.63,1.63,0,0,1,1049.87,205.35Z"/><path class="cls-4" d="M1058.21,203.9a1.63,1.63,0,0,1,1.89,1.33l.3,1.71a1.64,1.64,0,1,1-3.23.56l-.3-1.71A1.65,1.65,0,0,1,1058.21,203.9Z"/><path class="cls-4" d="M1066.54,202.45a1.64,1.64,0,0,1,1.9,1.33l.29,1.71a1.64,1.64,0,1,1-3.23.56l-.29-1.71A1.63,1.63,0,0,1,1066.54,202.45Z"/><path class="cls-4" d="M926.16,226.87a1.64,1.64,0,0,1,1.9,1.33l.3,1.71a1.64,1.64,0,1,1-3.23.56l-.3-1.71A1.65,1.65,0,0,1,926.16,226.87Z"/><path class="cls-4" d="M934.5,225.42a1.64,1.64,0,0,1,1.9,1.33l.29,1.71a1.64,1.64,0,1,1-3.23.56l-.29-1.71A1.63,1.63,0,0,1,934.5,225.42Z"/><path class="cls-4" d="M942.83,224a1.64,1.64,0,0,1,1.9,1.33L945,227a1.64,1.64,0,1,1-3.23.56l-.3-1.71A1.63,1.63,0,0,1,942.83,224Z"/><path class="cls-4" d="M951.17,222.52a1.63,1.63,0,0,1,1.89,1.33l.3,1.71a1.64,1.64,0,1,1-3.23.56l-.3-1.71A1.65,1.65,0,0,1,951.17,222.52Z"/><path class="cls-4" d="M959.5,221.07a1.64,1.64,0,0,1,1.9,1.33l.29,1.71a1.64,1.64,0,1,1-3.23.57l-.29-1.72A1.63,1.63,0,0,1,959.5,221.07Z"/><path class="cls-4" d="M967.83,219.62a1.64,1.64,0,0,1,1.9,1.33l.3,1.71a1.64,1.64,0,0,1-3.23.57l-.3-1.71A1.65,1.65,0,0,1,967.83,219.62Z"/><path class="cls-4" d="M976.17,218.17a1.63,1.63,0,0,1,1.89,1.33l.3,1.71a1.64,1.64,0,0,1-1.33,1.9,1.66,1.66,0,0,1-1.9-1.33l-.3-1.72A1.65,1.65,0,0,1,976.17,218.17Z"/><path class="cls-4" d="M984.5,216.72a1.64,1.64,0,0,1,1.9,1.33l.3,1.71a1.64,1.64,0,0,1-3.23.57l-.3-1.71A1.64,1.64,0,0,1,984.5,216.72Z"/><path class="cls-4" d="M992.84,215.27a1.64,1.64,0,0,1,1.89,1.33l.3,1.71a1.64,1.64,0,0,1-3.23.57l-.3-1.71A1.65,1.65,0,0,1,992.84,215.27Z"/><path class="cls-3" d="M1028.41,255.15a5.87,5.87,0,0,1-2.65-10.29c3.83-3.16,9.14-6.49,15.25-7.49,12.57-2.06,8.48,18,4.32,18.83C1042.88,256.7,1034.91,256.36,1028.41,255.15Z"/><path class="cls-3" d="M1037.92,233.08l4.56,26.23s13.57,2.21,34.44-.9c12.77-1.91,21.19-5,25.8-7a33.15,33.15,0,0,0,4.3-2.25l-4.78-27.49a13.39,13.39,0,0,0-4.9-1.18c-16.71-1.43-56.92,11.28-56.92,11.28Z"/><path class="cls-1" d="M1097.34,220.45l5.38,30.92a33.15,33.15,0,0,0,4.3-2.25l-4.78-27.49A13.39,13.39,0,0,0,1097.34,220.45Z"/><path class="cls-3" d="M880.06,193.18s20,28.89,23.79,33.2,11.57,6.47,11.57,6.47h.05L965,242.62s60.64-10.22,73.82-12.75h0c1.2-.24,2-.4,2.34-.49,4-1.09,5.79-2.71,5-3.74s-94.81.57-105.21.81h-.29c-10.13.18-11.21-2.32-11.21-2.32l-40.36-29.4a4.93,4.93,0,0,0-2.31-1.2A23.14,23.14,0,0,0,880.06,193.18Z"/><path class="cls-1" d="M886.77,193.54c10.89,8.45,41,31.73,43.83,33.23,3,1.62,87.5,2.78,108.25,3.1h0c1.2-.24,2-.4,2.34-.49,4-1.09,5.79-2.71,5-3.74s-94.81.57-105.21.81-11.5-2.31-11.5-2.31l-40.36-29.4A4.93,4.93,0,0,0,886.77,193.54Z"/><path class="cls-5" d="M880.06,193.18s20,28.89,23.79,33.2,11.57,6.47,11.57,6.47h.05a108,108,0,0,0,25.18-6.4c-10.13.18-11.21-2.32-11.21-2.32l-40.36-29.4a4.93,4.93,0,0,0-2.31-1.2A23.14,23.14,0,0,0,880.06,193.18Z"/><path class="cls-6" d="M717.85,247.21l142-28.58s-66.63-3.29-73.81-8.57c-6.77-5-78.94-64.85-99.39-69.87,18.8,17.67,62.47,60.29,61.45,74.16C747.1,227.57,727.61,241.18,717.85,247.21Z"/><path class="cls-5" d="M757.72,246.57c-.53-.46-48.06-7.13-78.45,1.29l30.27,10.93,47.31-8.23S760.39,248.9,757.72,246.57Z"/><path class="cls-7" d="M0,140.9V966.18c0,77.49,63.4,140.9,140.9,140.9H2401.69c54.95,0,102.74-31.82,126-78a140,140,0,0,0,14.91-62.93V140.9c0-77.5-63.4-140.9-140.9-140.9H140.9C63.4,0,0,63.4,0,140.9Z"/><path class="cls-8" d="M381.25,400.34c343.52-12.49,137.93-595.22,796.83-299.87,137.07,61.44,303.39-123.71,534.41,99.06,56.42,54.4,119.5,106.5,288.07,43.93,464.9-172.57,492.93,858.85,316.59,861s-2033.59,1.86-2033.59,1.86-81.67,7.12-161.15-94.13C-40.16,805.1,122.41,409.75,381.25,400.34Z"/><g class="cls-9"><polygon class="cls-10" points="149.35 0 901.42 1106.6 1094.61 1106.11 310.79 0 149.35 0"/><polygon class="cls-10" points="586.72 0 1342.97 1106.56 1387.63 1108.98 633.05 0 586.72 0"/><polygon class="cls-10" points="1458.51 0 2218.53 1114.45 2409.68 1114.45 1619.95 0 1458.51 0"/><path class="cls-10" d="M1813.69,0l714,1046.89a142.4,142.4,0,0,0,14.91-63.52V464.48L2178,0Z"/></g><rect class="cls-11" x="1785.98" width="43.7" height="1108.78"/><rect class="cls-11" x="570.74" width="43.7" height="1108.78"/><path class="cls-12" d="M297.87,367.91a45.78,45.78,0,0,0-11-2.29L304,335.16l-4.47-1.11c-4.47-1.1-31.59,17.66-34,19.11-1.95,1.18-16.08.87-21.35.71l-12.08-3.25c2.21-2.59,4.49-5.33,4.49-5.33a7.47,7.47,0,0,0-2.11-.07,1.6,1.6,0,0,0-.76.31l-6.35,3.83c-15.17-4.05-32.37-8.59-47.57-12.59-22.95-6-41.36-10.82-41.36-10.82-11.58-2.95-18.71-1.48-22.18-.28-1,.34-1.66.65-2.07.84l-.08,0c-1.77.81-7.25.24-9.23,2.89s11.17,10,17.66,12.62c2.17.87,14.05,4.15,29.38,8.24,4.1,1.1,8.45,2.26,12.92,3.44l-.75,2.8a10.08,10.08,0,0,0,1.29.82,30.81,30.81,0,0,0,7.87,2.91A38.93,38.93,0,0,0,184,361.5l.24-.89a25.45,25.45,0,0,0,4.27,0,1.88,1.88,0,0,0,1-.38c21.1,5.52,40.29,10.47,45.51,11.81,9.32,2.39,31.19,2.34,43.53,2.05h.09c3.46-.08,6.17-.18,7.61-.25l.78,0a3.2,3.2,0,0,0,1.39-.38,4.26,4.26,0,0,0,1.87-3.47Z"/><path class="cls-13" d="M622.37,844.51c88.2,0,142-54.82,144.31-57.26l-18.22-17.52,9.11,8.76-9.09-8.78c-.13.14-13.55,13.82-37.21,26.65-31.36,17-65,24.59-100,22.55-84.4-4.92-122.12-49.75-122.49-50.2l-19.53,16c1.8,2.19,45.22,53.84,140.55,59.4Q616.22,844.52,622.37,844.51Z"/><path class="cls-3" d="M461.71,722.77v380.71c0,3.89,3.48,7.07,7.73,7.07h14.4c4.16-.1,7.52-3.24,7.52-7.06V722.77c0-3.83-3.36-7-7.52-7.07h-14.4C465.19,715.69,461.71,718.88,461.71,722.77Z"/><path class="cls-14" d="M476.32,722.77v380.71c0,3.82,3.37,7,7.52,7.06,4.16-.1,7.52-3.24,7.52-7.06V722.77c0-3.83-3.36-7-7.52-7.07C479.69,715.81,476.32,718.94,476.32,722.77Z"/><path class="cls-13" d="M908.14,844.51c88.2,0,142-54.82,144.31-57.26l-18.22-17.52,9.11,8.76-9.09-8.78c-.13.14-13.55,13.82-37.21,26.65-31.36,17-65,24.59-100,22.55C812.68,814,775,769.16,774.6,768.71l-19.54,16c1.8,2.19,45.22,53.84,140.55,59.4Q902,844.52,908.14,844.51Z"/><path class="cls-3" d="M747.48,722.77v380.71c0,3.89,3.48,7.07,7.73,7.07h14.4c4.16-.1,7.53-3.24,7.53-7.06V722.77c0-3.83-3.37-7-7.53-7.07h-14.4C751,715.69,747.48,718.88,747.48,722.77Z"/><path class="cls-14" d="M762.09,722.77v380.71c0,3.82,3.37,7,7.52,7.06,4.16-.1,7.53-3.24,7.53-7.06V722.77c0-3.83-3.37-7-7.53-7.07C765.46,715.81,762.09,718.94,762.09,722.77Z"/><path class="cls-15" d="M1895.84,160.25h576.75a0,0,0,0,1,0,0v945.27a0,0,0,0,1,0,0h-402a174.73,174.73,0,0,1-174.73-174.73V160.25A0,0,0,0,1,1895.84,160.25Z" transform="translate(4368.43 1265.77) rotate(180)"/><path class="cls-2" d="M1503.4,160.57h362v945.3H1297.25V366.71C1297.25,252.86,1389.55,160.57,1503.4,160.57Z"/><path class="cls-2" d="M1800.22,159.93v945.33h496.25V366.06c0-113.85-80.6-206.13-180-206.13Z"/><path class="cls-3" d="M1486.39,246.7h379a0,0,0,0,1,0,0v825.79a33.38,33.38,0,0,1-33.38,33.38H1486.39a0,0,0,0,1,0,0V246.7A0,0,0,0,1,1486.39,246.7Z" transform="translate(3351.78 1352.57) rotate(180)"/><path class="cls-3" d="M1876.35,246.7a33.37,33.37,0,0,1,33.38,33.38v825.79h-379V246.7Z"/><path class="cls-16" d="M2068.91,701.32v403.94h227.56v-337C2270,751,2195,702.22,2187.9,699.86Z"/><path class="cls-14" d="M1517.72,246.52h32.72v859.35h-64v-828A31.33,31.33,0,0,1,1517.72,246.52Z"/><path class="cls-17" d="M1669.75,410.11S1689,394.45,1711.6,408s4.32,66.9-9.58,69.89-49.43-50-49.43-50S1653.6,423.2,1669.75,410.11Z"/><path class="cls-18" d="M1553.22,689.91s-9.28-3.09-13.76-2.16-18.39,7.42-18.69,8.81a5.06,5.06,0,0,0,0,2.39h32.45s7.25-1.41,8.49-5.69S1553.22,689.91,1553.22,689.91Z"/><path class="cls-18" d="M1674.29,1098.8a6.21,6.21,0,0,1-4.06,5.39h0c-4.32,1.9-11.57,1.47-19.4.41-1-.13-1.91-.24-2.72-.31l-.63,0-.48,0c-7.8-.51-7.19,1.89-22.09,1.82-17-.09-22.74-5.82-23.52-8.26-.65-2.06,6.79-3.67,15.1-5.52l1.22-.27,3.32-.75c9.92-2.33,19.73-5.26,23-14.79,3.44-10.1,2.63-40.07,2.63-40.07h30.08s-7.89,33.11-7.07,42.65c.45,5.1,2.89,6.55,3.83,11q.1.46.18.93A29.39,29.39,0,0,1,1674.29,1098.8Z"/><path class="cls-19" d="M1709.3,774.83c-2.54,14.25-6.16,29-9.31,44.3-5,24.63-8.87,50.8-5,79a98,98,0,0,1,.83,11.93c.75,49.8-21.5,140-21.5,140s-6,2.61-16.17,2.11c-5.21-.26-13.22-3.62-13.22-3.62s-2.1-56-2.23-131.21c-.09-54.55-10.8-126.37-13-168.58-1.31-25.54,1.54-59.56,1.54-59.56s44.35-35.67,60.29-17.42C1707.34,689.84,1718.8,721.51,1709.3,774.83Z"/><path class="cls-20" d="M1695,898.11a98,98,0,0,1,.83,11.93C1662.64,861.91,1655.29,757,1655.29,757l36.49,17.7s4,19.69,8.21,44.47C1694.94,843.76,1691.12,869.93,1695,898.11Z"/><path class="cls-18" d="M1770.26,1098.8a6.21,6.21,0,0,1-4.06,5.39h0c-4.33,1.9-11.57,1.47-19.4.41-1-.13-1.91-.24-2.72-.31l-.63,0-.48,0c-7.8-.51-7.19,1.89-22.09,1.82-17-.09-22.74-5.82-23.52-8.26-.65-2.06,6.79-3.67,15.1-5.52l1.22-.27,3.32-.75c9.92-2.33,19.73-5.26,23-14.79,3.44-10.1-1.48-39.61-1.48-39.61l27.87-2.33s-1.73,33.63-.9,43.17c.45,5.1,3,7.9,4,12.31q.11.46.18.93A29.39,29.39,0,0,1,1770.26,1098.8Z"/><path class="cls-19" d="M1766.33,1052.64s-7.16,3.39-12.32,4.42-15.88-1-15.88-1a726,726,0,0,0-15.15-93.8c-9.93-43.53-24.72-95-45.34-143.69-4.4-10.41-22.56-59.65-25.64-72.08-9.32-37.55,0-33.51,0-33.51l81.45-9.56s10,5.16,14.66,58.19c1.38,15.88,1.55,84.44,3.63,97.44,2,12.31,4.29,22.55,7,29.2C1773.9,925.41,1766.33,1052.64,1766.33,1052.64Z"/><path class="cls-21" d="M1770.26,1098.8a6.21,6.21,0,0,1-4.06,5.39h0c-4.57,1.63-11.71,1.28-19.39.37-1-.12-1.9-.21-2.73-.27l-.63,0-.48,0c-7.8-.51-7.19,1.89-22.09,1.82-17-.09-22.74-5.82-23.52-8.26-.65-2.06,6.79-3.67,15.1-5.52a50.05,50.05,0,0,0,25.67,4.55c11.43-1.09,23.11-5.68,31.32-6.82q.11.46.18.93A29.39,29.39,0,0,1,1770.26,1098.8Z"/><path class="cls-21" d="M1674.29,1098.8a6.21,6.21,0,0,1-4.06,5.39h0c-4.57,1.63-11.71,1.28-19.39.37-1-.12-1.9-.21-2.73-.27l-.63,0-.48,0c-7.8-.51-7.19,1.89-22.09,1.82-17-.09-22.74-5.82-23.52-8.26-.65-2.06,6.79-3.67,15.1-5.52a50.05,50.05,0,0,0,25.67,4.55c11.43-1.09,23.11-5.68,31.32-6.82q.1.46.18.93A29.39,29.39,0,0,1,1674.29,1098.8Z"/><path class="cls-18" d="M1655.19,517.26c.59,0,4.39-.7,11.11-1.11a50.82,50.82,0,0,0,2.45-10.33,68.51,68.51,0,0,0,.24-15.06c-.17-1.72-.34-2.71-.34-2.71L1702,477.89c.4,8.82.9,15.71,1.42,21.11,1.56,15.84,3.42,18.75,4,19.29a272.48,272.48,0,0,1,27.77,5.62s-26.93,123.4-17.78,146.65a245.92,245.92,0,0,1,12.63,43.9l-99.26,1.23s1.39-79.83-3.19-108.08S1655.19,517.26,1655.19,517.26Z"/><path class="cls-22" d="M1668.75,505.82c25.22-.55,33.27-27.93,33.27-27.93l-33.37,10.16s.17,1,.34,2.71A68.51,68.51,0,0,1,1668.75,505.82Z"/><path class="cls-23" d="M1728.37,654.9c1.45,16.33,16.71,53.65,13.41,61.6-3.46,8.35-8.27,12.58-18.78,15-7.25,1.67-17.21,2.47-31.31,3.17-29.9,1.49-62-2.27-66.31-16.48-2.09-6.83-1.28-33.23-.18-45.41,2.29-25.22-2.51-61.41-3.21-84.83-.58-19.53,11.21-64,11.21-64s5.31-3.36,22-6.71c0,0,1.75,23.08,13.8,25.07,20.83,3.44,37.62-15.64,42.53-23.33,0,0,23.92,6,30.94,14,6.66,7.58-2.44,63.73-4.47,69.12-1.74,4.62-3.39,9.13-4.83,13.66C1729.36,627.79,1727,639.94,1728.37,654.9Z"/><path class="cls-18" d="M1813.56,690s9.28-3.06,13.76-2.14,18.38,7.35,18.69,8.73a5,5,0,0,1,0,2.37h-32.45s-7.25-1.4-8.49-5.64S1813.56,690,1813.56,690Z"/><path class="cls-18" d="M1659.94,490.31s39.94,8,44.56-16.93,12.87-40.72-12.44-46.89-32,2.42-35.6,10.38S1649.67,487.58,1659.94,490.31Z"/><path class="cls-24" d="M1672.39,478s-1.07,3-8.59,1.61c0,0-6.31-1.12-5.73-4.45C1658.07,475.2,1664.51,473.53,1672.39,478Z"/><path class="cls-19" d="M1663.25,656.85c5.29-32.2,20.16-61.64,20.16-61.64L1704.17,552c-.86-7,7.1-26.13,7.46-33.14,0,0,23.61.82,34.56,9.72,12.38,10.08,20.67,43.37,35.78,101.68,0,0,25,41.64,32.94,58.16a14.08,14.08,0,0,1-4.47,4,23.78,23.78,0,0,1-6.54,2.31s-45.07-44-48-50.95c-1.28-3-10.26-15.87-19.81-34.18,0,0,0,.08,0,.12-1.77,14.43-3.53,26.88-4.86,32.35-4.17,17.15,26,96.26,24.56,101-.49,1.71-11,2.53-24.6,2.55-24.52,0-59.36-2.57-65.31-7.33C1660.89,734.32,1657.19,693.77,1663.25,656.85Z"/><path class="cls-5" d="M1710.06,518.68l-26.64,76.53L1710.06,570l-2-7.84s6.13.55,8.61-1.06,8.28-40.73,8.28-40.73a35.78,35.78,0,0,0-7.41-1.54A68,68,0,0,0,1710.06,518.68Z"/><path class="cls-19" d="M1584.81,629.64c20.62-47.78,23.4-92.41,35.77-102.57,11-9,34.56-9.82,34.56-9.82v0h0l0,.2c-2.78,15.94-5.51,24.4-4.79,41.5.74,17.35,4.93,36.25,4.93,36.25s18.92,145.12,16.09,145.36c-21.4,1.85-51.43-19.76-51.43-19.76,6.49-17.46,4.15-99.87,4.15-99.88l-.28.5c-6.64,11.63-12,19.53-12.91,21.81-3,7-48,51.4-48,51.4a23.42,23.42,0,0,1-6.53-2.33c-.29-.17-.57-.34-.84-.52a13.83,13.83,0,0,1-3.63-3.47C1559.82,671.65,1584.81,629.64,1584.81,629.64Z"/><path class="cls-5" d="M1655.14,517.26s-5.61,60.49.15,78c0,0-16.49-26.11-13.4-31.52l6-3.94s-11.54-1.5-9.38-8.12,11.08-33.94,11.08-33.94a11.91,11.91,0,0,1,2.53-.43Z"/><path class="cls-5" d="M1709.46,659.72c0,18.45,11.31,65.54,21.69,85.89,13.65,0,24.11-.84,24.6-2.55,1.4-4.78-28.73-83.89-24.56-101,1.33-5.46,3.09-17.92,4.86-32.35C1726.81,620.24,1709.46,642.41,1709.46,659.72Z"/><path class="cls-5" d="M1555.5,691.79c.27.18.55.35.84.52a23.42,23.42,0,0,0,6.53,2.33s45.08-44.38,48-51.4c1-2.28,6.27-10.18,12.91-21.81,1.09-8.62,3.71-31.28-.8-36.75-5.5-6.69-18.86,49.5-23.18,55.78C1596.34,645.56,1564.84,676.94,1555.5,691.79Z"/><path class="cls-17" d="M1656,422c19.7-19.42,31.07-18.76,39.56-12.77,5.43,3.83,13.37,17,16.23,21,5.65,7.91-7.22,46.07-7.22,46.07a43.86,43.86,0,0,0,.41-10.19c-1.2,5.64-2.45,9.51-2.45,9.51s-8-18.23-21.13-32.59a64.58,64.58,0,0,1-8.62-11.51c-12.55,4.64-19.44,24.8-19.44,24.8C1648.75,446.83,1647.47,430.39,1656,422Z"/><path class="cls-13" d="M1194.09,841.43c88.21,0,142-54.83,144.32-57.27l-18.22-17.51,9.11,8.76-9.09-8.78c-.13.13-13.55,13.82-37.21,26.65-31.36,17-65,24.58-100,22.55-84.4-4.93-122.12-49.76-122.49-50.21l-19.54,16c1.81,2.2,45.23,53.85,140.56,59.41Q1187.95,841.44,1194.09,841.43Z"/><path class="cls-3" d="M1319.7,719.68v380.71c0,3.89,3.48,7.08,7.74,7.08h14.18c4.26,0,7.74-3.19,7.74-7.08V719.68c0-3.89-3.48-7.07-7.74-7.07h-14.18C1323.18,712.61,1319.7,715.79,1319.7,719.68Z"/><path class="cls-14" d="M1332.27,719.68v380.71c0,3.89,3.48,7.08,7.74,7.08h1.61c4.26,0,7.74-3.19,7.74-7.08V719.68c0-3.89-3.48-7.07-7.74-7.07H1340C1335.75,712.61,1332.27,715.79,1332.27,719.68Z"/><path class="cls-3" d="M1033.43,719.68v380.71c0,3.89,3.49,7.08,7.74,7.08h14.4c4.16-.1,7.52-3.24,7.52-7.07V719.68c0-3.82-3.36-7-7.52-7.06h-14.4C1036.92,712.61,1033.43,715.79,1033.43,719.68Z"/><path class="cls-14" d="M1048.05,719.68v380.71c0,3.83,3.37,7,7.52,7.07,4.16-.1,7.52-3.24,7.52-7.07V719.68c0-3.82-3.36-7-7.52-7.06C1051.42,712.72,1048.05,715.86,1048.05,719.68Z"/><path class="cls-25" d="M1444.67,788.8a11.08,11.08,0,0,1,10.73-8.45h360.87c.25,0,.5,0,.75,0H2163.5a12.06,12.06,0,0,1,11.66,8.55c.24.78,28,1.68,28,2.47v263.22c0,28.21-25.14,51.48-55.75,51.48H1806.09a1,1,0,0,1-.23,0h-310a51.63,51.63,0,0,1-51.48-51.48V791.38A11,11,0,0,1,1444.67,788.8Z"/><path class="cls-26" d="M1444.4,791.33v36.53l406.76,57.43,352,57.66V791.33c0-.79-9.33-1.69-9.56-2.47a11.3,11.3,0,0,0-10.79-8.55h-534l-139.37,8.55C1509.15,789.64,1444.4,790.54,1444.4,791.33Z"/><path class="cls-6" d="M1425.66,699.8h804.23a21.58,21.58,0,0,1,21.52,21.52v55.83a22.12,22.12,0,0,1-22.06,22.06H1426.21a23,23,0,0,1-22.94-23V722.19A22.45,22.45,0,0,1,1425.66,699.8Z"/><polygon class="cls-27" points="1744.93 699.82 1613.73 699.82 1590.54 631.36 1721.74 631.36 1744.93 699.82"/><polygon class="cls-2" points="1742.97 699.82 1611.77 699.82 1588.57 631.36 1719.78 631.36 1742.97 699.82"/><polygon class="cls-14" points="1737.5 683.68 1611.77 699.82 1742.97 699.82 1737.5 683.68"/><path class="cls-5" d="M1659.87,418l3.78-21s40.27-10.48,56.86,6.09c0,0,3.4,11.28.34,18.16,0,0-38.43-2.15-50.59,4.89Z"/><path class="cls-19" d="M1675.18,400.71s30.18-2.58,42.48,3.42c0,0-18.49-1.54-34.52,2.07a225.46,225.46,0,0,1,38.75,3.87,45.06,45.06,0,0,0-1.38-7c-16.59-16.57-56.86-6.09-56.86-6.09l-3.78,21,10.39,8.13S1670.4,405.12,1675.18,400.71Z"/><rect class="cls-5" x="1704.24" y="578.93" width="14.59" height="26.25" rx="2.57" transform="translate(866.46 2193.85) rotate(-81.27)"/><rect class="cls-28" x="1701.73" y="586.35" width="6.88" height="9.22" transform="translate(109.38 -251.83) rotate(8.73)"/><path class="cls-28" d="M1720.9,591l-8.46-1.3a1.15,1.15,0,0,1-1-1.31h0a1.15,1.15,0,0,1,1.31-1l8.46,1.3a1.15,1.15,0,0,1,1,1.32h0A1.15,1.15,0,0,1,1720.9,591Z"/><path class="cls-28" d="M1721.12,594.29l-9.87-1.51a.45.45,0,0,1-.36-.5h0a.43.43,0,0,1,.5-.37l9.86,1.51a.45.45,0,0,1,.37.51h0A.43.43,0,0,1,1721.12,594.29Z"/><path class="cls-28" d="M1720.9,595.7l-9.86-1.51a.44.44,0,0,1-.37-.5h0a.44.44,0,0,1,.5-.37l9.87,1.51a.44.44,0,0,1,.36.5h0A.43.43,0,0,1,1720.9,595.7Z"/><rect class="cls-25" x="1542.16" y="232.21" width="297.45" height="39.18"/><rect class="cls-6" x="1839.6" y="232.21" width="6.93" height="39.18"/><rect class="cls-24" x="1550.44" y="238.97" width="23.83" height="26.12"/><rect class="cls-24" x="1581.31" y="238.97" width="248.62" height="26.12"/><path class="cls-6" d="M902.39,669.8s37.25-17,65.44-2.12,11,137.29-29.35,149.16h0S851.94,922,902.39,669.8Z"/><path class="cls-18" d="M836.41,684c-1.83-14.33,1.74-40.3,1.74-40.3s-12.66-.65-19.75,16c-14.68,34.57-8.3,109.2-7.41,119.88,0,0-5,21.22,2.45,57.91a64.36,64.36,0,0,1-3.49,7.34,4,4,0,0,0-.37.47h0a4.32,4.32,0,0,0-.06,4.7l4.85,7.69a4.23,4.23,0,0,0,1.84,1.6h0a4,4,0,0,0,.75.27l6,1.42.59-20.48h-.07C825.56,820.37,838.1,697.14,836.41,684ZM820.89,842l-.13-.17.26.15C821,842,820.9,842,820.89,842Z"/><path class="cls-17" d="M943.7,1089.47l-4.78,17.29H898.46S886.42,1084.66,943.7,1089.47Z"/><path class="cls-17" d="M857,1089.47l-4.78,17.29H811.71S799.66,1084.66,857,1089.47Z"/><path class="cls-29" d="M935.84,568.29c2.64-11.46-.62-19.92-5.88-28.07-5.05-7.81-12.13-8.15-18.94-14.77-6.42-6.23-18.37-10.33-27.88-10.33-30.44,0-56.8,18.64-50.79,50.24,1.91,10,.3,17.95,8.44,29.69,10.15,14.65,22.51,26.41,42.35,26.41,10.53,0,19.76-2.43,27.88-10.11,4.42-4.17,10.76-4.69,14.65-9.24C933.54,592.92,933,580.81,935.84,568.29Z"/><path class="cls-30" d="M862,605.72s6.68,25.81-6.82,36.79l37.94,19.39,5-25.1s-7.17-19.6-5.2-46.91Z"/><path class="cls-18" d="M861.05,618.72s38.83,4.73,39.66-22.63S885.35,551,874.55,551.21c-21.54.4-25.1,9.11-27.6,18.17S843.17,616.79,861.05,618.72Z"/><path class="cls-31" d="M824,825.49l76.74,6.35s9,134.6-41.41,259.38l-43-.82Z"/><path class="cls-32" d="M943.09,833.23s23.61,91.73,4.47,259.14H895.47L870.48,875c-1-6.43-13.06-15.39-13.06-15.39L857,834.8Z"/><path class="cls-19" d="M944.83,697.19l5-41.22c-.76-1.07-1.37-2-2.13-2.89-8.82-10.8-42.74-15.52-49.58-16.28a7.46,7.46,0,0,1-1.27,1.61c-6.24,5.63-14.7,11.63-26,10.11-9.58-1.22-11.15-6.24-10.84-11.72-20.08,3.35-31.5,9.67-31.5,9.67C808.12,654.13,804,722.09,804,722.09c2.72-.81,16.29,1.57,22.59,2.74l-2.54,100.73c48.83,21.3,119.1,7.61,119.1,7.61l-.15-.61-4.72-80.62,4.41-36.8Z"/><path class="cls-24" d="M871.43,603s-.84,3.41-9.35,2.78c0,0-7.14-.53-6.87-4.28C855.21,601.45,862.17,598.85,871.43,603Z"/><path class="cls-5" d="M913.54,829.9c3.32,4.15,19.68,5.62,29.51,2.61L938.26,752l6.58-54.75-6.36-3s-27.94,22.42-24.68,40.29S909.26,824.56,913.54,829.9Z"/><path class="cls-19" d="M973.58,701.3s-21.6,8.06-30.88,13.84a14.13,14.13,0,0,0-3.8,2.89l-29.51-58.72-5.62-11.1-5.18-10.49-.45-.92s.41,0,1.21.16a170.87,170.87,0,0,1,18.25,3,115.5,115.5,0,0,1,15.83,4.56h.15c6.08,2.28,11.25,5.17,14.14,8.52.76.91,1.37,1.82,2.13,2.89C959.74,670.11,973.58,701.3,973.58,701.3Z"/><path class="cls-6" d="M941.79,810.35s-105.1-112.4-38-162.14A70.86,70.86,0,0,1,917.6,640a115.5,115.5,0,0,1,15.83,4.56,50.76,50.76,0,0,0-24,14.75c-16.27,18.1-19.91,57,35.45,137.19Z"/><path class="cls-29" d="M864.94,551.46s33.18,0,25.56,22.77c-4.81,14.36,11.17,16.59,11.17,16.59l7.7-23-4.82-17.93L883,539.38Z"/><path class="cls-18" d="M972.61,701.51c-10.25,3.17-25.74,10.06-30.46,14.69,5.22,12,8.15,19.93,8.15,19.93-3.92-1.74-24.2-3.39-34.71-4.14-1.19-.09-10.8-3.24-10.8-3.24s-.08-16.41-18.85-17.71c0,0-7.82,0-6.22,5.38s1.77,3,3.87,10.61,7.55,13.35,13.35,13.69c27.87,23.44,66.25,23.63,77.82,23.09a4.62,4.62,0,0,0,4.29-3.55C983.44,741.22,980.44,721.46,972.61,701.51Z"/><path class="cls-29" d="M324.93,1045.25s-13.36,12.38-10.75,21.17,14.66,14.66,16.29,25.41,8.14,16.61,14,16.61h27.95s4.32-7.56-6.1-9.84S352,1083.69,352.61,1072s-1-27.36-1-27.36l-22.15-5.21Z"/><path class="cls-29" d="M491.37,1107.23c1,.52,4,.91,8.22,1.21h67.6c-.31-2.17-2.08-8.4-12-10-11.67-1.89-31.91-8.68-36.42-23.61q-.21-.74-.39-1.47c-3.58-16-29.64,4.88-29.64,4.88l-.19,1.73C488,1085.82,486.42,1104.76,491.37,1107.23Z"/><path class="cls-33" d="M552.11,680.35s-4,49.37-8.61,108.72c-6.32,80.63-13.92,179.66-14.68,198.42-1.3,32.58-6.51,84.69-6.51,84.69s-12.37,12.38-37.13,7.17c0,0-22.07-74.39-28.37-153.1-.1-1.29-.2-2.59-.29-3.89-5.87-80.13-15-248.85-15-248.85Z"/><path class="cls-29" d="M552.11,680.35s-4,49.37-8.61,108.72L456.81,926.25c-.1-1.29-.2-2.59-.29-3.89-5.87-80.13-15-248.85-15-248.85Z"/><path class="cls-33" d="M534,686.21S462.71,865,415.8,949.06s-61.56,107.49-61.56,107.49-26.87-10.75-29.31-18.08c0,0,17.93-162.23,49.34-201.78,17.75-22.34,38.6-89.41,39.58-112.86S420.2,654,420.2,654Z"/><path class="cls-18" d="M674,661.46s25.17,12.09,28.56,15.19,11.75,18.32,11.11,19.47-1.89,1.5-4.18-.08-8.68-8.17-8.91-6.94,17.08,21.61,14,25.92-20.43,3-30.35-4-19.81-33-21.31-34.4C650.32,664.6,674,661.46,674,661.46Z"/><path class="cls-31" d="M675.16,674.41c7-6.08,7.17-7.62,7.17-7.62s-44.64-77.18-48.51-84.6S606,458.84,606,458.84l-82.7-24s58.26,150.63,68.43,169.24c16.81,30.76,71.69,76,71.69,76A25.77,25.77,0,0,0,675.16,674.41Z"/><path class="cls-18" d="M565.46,404.7s29.1,51.21,57.55,57.89c0,0-1.18-17.2-8.11-29,2.84-3.35,5.33-6.42,7.48-9.17A170.06,170.06,0,0,0,633,409.66l-9.65-26-6.56-17.61a84.53,84.53,0,0,1-10.23,14.75C587.86,402.28,565.46,404.7,565.46,404.7Z"/><path class="cls-30" d="M606.51,380.85s-3.47,25.66,15.87,43.61A170.06,170.06,0,0,0,633,409.66l-9.65-26C612.94,380.55,606.51,380.85,606.51,380.85Z"/><path class="cls-18" d="M640.62,413.45s-43.48-17-32.51-43.87,12.75-47.24,41-37.55,29.4,22.14,27.92,32S652.21,417.16,640.62,413.45Z"/><path class="cls-32" d="M416,667.48c17.53,25.22,148.7,58.91,147.13,41.46a190.28,190.28,0,0,1,0-34.42q.5-5.62,1.39-11.9c3.34-23,11.25-52.43,28.91-86.58,1.32-2.56,2.7-5.14,4.12-7.75a264.76,264.76,0,0,0,18.19-40.85c9.09-26.26,12.76-51.39,8.16-67.81a.56.56,0,0,0-.07-.23c-27.41-12.68-38-61.84-38-61.84S492.28,414.35,439.88,539c0,0-5,13.68-10.78,32.26-7,22.54-15,52.25-16.42,73.44C412,654.79,412.84,662.94,416,667.48Z"/><path class="cls-29" d="M601.87,319.57c-.31-.6-1.19-1.24-3.35-1.9a9,9,0,0,1,4.38-.16c1.22-3,4.18-8.06,9.75-8.1a6.89,6.89,0,0,0-4.37,4c7.63-4.83,21.77-6.24,57.06,5.52,46.52,15.49,23.28,42.5,16.23,44.66s-20-11.73-31.7-13.62-18,14.36-22.44,15.71-1.92-2.35-6.58-6.06-7.34,5-7.24,11.14-9,11.92-9,11.92l-5.33-9.77c-5.33-9.78-3.88-45.27,1.21-51.65Z"/><path class="cls-31" d="M412.68,644.72c112.86-34,130.81-168.6,130.81-168.6s-64.25,49.1-114.39,95.16C422.12,593.82,414.07,623.53,412.68,644.72Z"/><path class="cls-27" d="M599.17,711.8l23.48,23.45.32-.2L658.2,713s-18.23,5.88-20.69,5.2-27.8-9.4-33.8-8.67a2.38,2.38,0,0,0-.88.24Z"/><path class="cls-1" d="M623.71,741.62c.94-.2,3.73-.87,7.54-1.84,10.94-2.8,30.22-8.17,37.84-12.58,6.83-4,42.93-24.94,67.79-39.68a46.1,46.1,0,0,0-27.91-5c-29,17-67,39.41-71.6,42.68-7.64,5.37-18,11.86-18,11.86a7.44,7.44,0,0,0,.15.74C619.83,739.23,620.91,742.22,623.71,741.62Z"/><path class="cls-3" d="M623.71,741.62c.94-.2,3.73-.87,7.54-1.84,10.94-2.8,30.22-8.17,37.84-12.58,6.83-4,42.93-24.94,67.79-39.68,12.49-7.4,22.15-13.23,23.84-14.53,5.08-3.9,14.84-13.65,12.44-15.49s-7.09,0-8.85-.26l-.07,0c-.42-.06-1.1-.17-2-.22-3.35-.2-10,.26-19.47,5.73,0,0-15,8.78-33.76,19.77-29,17-67,39.41-71.6,42.68-7.64,5.37-18,11.86-18,11.86a7.44,7.44,0,0,0,.15.74C619.83,739.23,620.91,742.22,623.71,741.62Z"/><path class="cls-27" d="M623.71,741.62c.94-.2,3.73-.86,7.54-1.84a11.11,11.11,0,0,1,2.54-7.79l-14.31,5.79C619.83,739.22,620.91,742.22,623.71,741.62Z"/><g class="cls-34"><path class="cls-27" d="M654.72,723.18h0a.47.47,0,0,0,.16-.64l-.25-.43a.48.48,0,0,0-.65-.17h0a.47.47,0,0,0-.16.65l.25.43A.48.48,0,0,0,654.72,723.18Z"/><path class="cls-27" d="M656.81,722h0a.48.48,0,0,0,.16-.65l-.25-.43a.48.48,0,0,0-.65-.16h0a.47.47,0,0,0-.16.64l.25.43A.48.48,0,0,0,656.81,722Z"/><path class="cls-27" d="M658.9,720.71h0a.46.46,0,0,0,.16-.64l-.25-.43a.47.47,0,0,0-.65-.17h0a.48.48,0,0,0-.16.65l.25.43A.48.48,0,0,0,658.9,720.71Z"/><path class="cls-27" d="M661,719.48h0a.49.49,0,0,0,.17-.65l-.26-.43a.47.47,0,0,0-.64-.17h0a.48.48,0,0,0-.17.65l.25.43A.49.49,0,0,0,661,719.48Z"/><path class="cls-27" d="M663.08,718.24h0a.48.48,0,0,0,.17-.65l-.26-.43a.47.47,0,0,0-.64-.16h0a.46.46,0,0,0-.17.64l.26.43A.46.46,0,0,0,663.08,718.24Z"/><path class="cls-27" d="M665.17,717h0a.47.47,0,0,0,.17-.64l-.26-.43a.47.47,0,0,0-.64-.17h0a.49.49,0,0,0-.17.65l.26.43A.47.47,0,0,0,665.17,717Z"/><path class="cls-27" d="M667.26,715.77h0a.47.47,0,0,0,.17-.65l-.25-.43a.48.48,0,0,0-.65-.16h0a.47.47,0,0,0-.17.64l.26.43A.47.47,0,0,0,667.26,715.77Z"/><path class="cls-27" d="M669.35,714.53h0a.46.46,0,0,0,.17-.64l-.25-.43a.48.48,0,0,0-.65-.17h0a.48.48,0,0,0-.17.65l.26.42A.46.46,0,0,0,669.35,714.53Z"/><path class="cls-27" d="M671.45,713.29h0a.47.47,0,0,0,.16-.64l-.25-.43a.47.47,0,0,0-.65-.16h0a.46.46,0,0,0-.16.64l.25.43A.47.47,0,0,0,671.45,713.29Z"/><path class="cls-27" d="M696.09,698.73h0a.47.47,0,0,0,.16-.65l-.25-.43a.48.48,0,0,0-.65-.16h0a.47.47,0,0,0-.16.64l.25.43A.47.47,0,0,0,696.09,698.73Z"/><path class="cls-27" d="M698.18,697.49h0a.46.46,0,0,0,.16-.64l-.25-.43a.46.46,0,0,0-.64-.17h0a.48.48,0,0,0-.17.65l.25.43A.48.48,0,0,0,698.18,697.49Z"/><path class="cls-27" d="M700.27,696.26h0a.49.49,0,0,0,.17-.65l-.26-.43a.46.46,0,0,0-.64-.16h0a.46.46,0,0,0-.17.64l.25.43A.49.49,0,0,0,700.27,696.26Z"/><path class="cls-27" d="M702.36,695h0a.47.47,0,0,0,.17-.64l-.26-.43a.46.46,0,0,0-.64-.17h0a.48.48,0,0,0-.17.65l.26.42A.46.46,0,0,0,702.36,695Z"/><path class="cls-27" d="M704.45,693.78h0a.46.46,0,0,0,.17-.64l-.26-.43a.47.47,0,0,0-.64-.17h0a.49.49,0,0,0-.17.65l.26.43A.46.46,0,0,0,704.45,693.78Z"/><path class="cls-27" d="M706.54,692.55h0a.47.47,0,0,0,.17-.65l-.25-.43a.48.48,0,0,0-.65-.16h0a.47.47,0,0,0-.17.64l.26.43A.47.47,0,0,0,706.54,692.55Z"/><path class="cls-27" d="M708.64,691.31h0a.47.47,0,0,0,.16-.64l-.25-.43a.49.49,0,0,0-.65-.17h0a.47.47,0,0,0-.16.65l.25.43A.48.48,0,0,0,708.64,691.31Z"/><path class="cls-27" d="M710.73,690.08h0a.48.48,0,0,0,.16-.65l-.25-.43a.47.47,0,0,0-.65-.16h0a.47.47,0,0,0-.16.64l.25.43A.48.48,0,0,0,710.73,690.08Z"/><path class="cls-27" d="M712.82,688.84h0a.47.47,0,0,0,.16-.65l-.25-.42a.47.47,0,0,0-.65-.17h0a.47.47,0,0,0-.16.64l.25.43A.47.47,0,0,0,712.82,688.84Z"/><path class="cls-27" d="M720.91,684.06h0a.49.49,0,0,0,.17-.65l-.26-.43a.46.46,0,0,0-.64-.16h0a.46.46,0,0,0-.17.64l.26.43A.47.47,0,0,0,720.91,684.06Z"/><path class="cls-27" d="M716.82,686.47h0a.47.47,0,0,0,.17-.64l-.26-.43a.47.47,0,0,0-.64-.17h0a.49.49,0,0,0-.17.65l.26.43A.47.47,0,0,0,716.82,686.47Z"/><path class="cls-27" d="M723,682.82h0a.47.47,0,0,0,.17-.64l-.26-.43a.46.46,0,0,0-.64-.17h0a.48.48,0,0,0-.17.65l.26.42A.46.46,0,0,0,723,682.82Z"/><path class="cls-27" d="M725.09,681.58h0a.46.46,0,0,0,.17-.64l-.26-.43a.47.47,0,0,0-.64-.17h0a.49.49,0,0,0-.17.65l.26.43A.46.46,0,0,0,725.09,681.58Z"/><path class="cls-27" d="M727.18,680.35h0a.47.47,0,0,0,.17-.65l-.25-.43a.48.48,0,0,0-.65-.16h0a.47.47,0,0,0-.17.64l.26.43A.47.47,0,0,0,727.18,680.35Z"/><path class="cls-27" d="M729.28,679.11h0a.47.47,0,0,0,.16-.64l-.25-.43a.48.48,0,0,0-.65-.17h0a.47.47,0,0,0-.16.65l.25.43A.48.48,0,0,0,729.28,679.11Z"/><path class="cls-27" d="M731.37,677.88h0a.48.48,0,0,0,.16-.65l-.25-.43a.47.47,0,0,0-.65-.16h0a.47.47,0,0,0-.16.64l.25.43A.48.48,0,0,0,731.37,677.88Z"/><path class="cls-27" d="M733.46,676.64h0a.47.47,0,0,0,.16-.65l-.25-.43a.48.48,0,0,0-.65-.16h0a.47.47,0,0,0-.16.64l.25.43A.47.47,0,0,0,733.46,676.64Z"/><path class="cls-27" d="M735.55,675.4h0a.46.46,0,0,0,.16-.64l-.25-.43a.47.47,0,0,0-.64-.17h0a.48.48,0,0,0-.17.65l.25.43A.48.48,0,0,0,735.55,675.4Z"/><path class="cls-27" d="M737.64,674.17h0a.48.48,0,0,0,.17-.65l-.26-.43a.47.47,0,0,0-.64-.16h0a.46.46,0,0,0-.17.64l.26.43A.47.47,0,0,0,737.64,674.17Z"/><path class="cls-27" d="M739.69,673h0a.47.47,0,0,0,.16-.65l-.25-.43a.46.46,0,0,0-.64-.16h0a.46.46,0,0,0-.17.64l.25.43A.49.49,0,0,0,739.69,673Z"/><path class="cls-27" d="M741.78,671.72h0a.48.48,0,0,0,.17-.65l-.26-.42a.46.46,0,0,0-.64-.17h0a.47.47,0,0,0-.17.64l.26.43A.46.46,0,0,0,741.78,671.72Z"/><path class="cls-27" d="M743.87,670.48h0a.46.46,0,0,0,.17-.64l-.26-.43a.47.47,0,0,0-.64-.17h0a.49.49,0,0,0-.17.65l.26.43A.46.46,0,0,0,743.87,670.48Z"/><path class="cls-27" d="M760,659.7a.72.72,0,0,0,.81.23.56.56,0,0,0,.2-.11l3.28-2.6c-.42-.06-1.1-.17-2-.22l-2.14,1.69A.72.72,0,0,0,760,659.7Z"/><rect class="cls-27" x="705.14" y="689.86" width="2.51" height="4.85" rx="0.89" transform="translate(1666.82 928.59) rotate(149.4)"/><rect class="cls-27" x="700.99" y="692.31" width="2.51" height="4.85" rx="0.89" transform="translate(1660.35 935.22) rotate(149.4)"/><path class="cls-27" d="M677.59,709.66h0a.46.46,0,0,0,.17-.64l-.26-.43a.46.46,0,0,0-.64-.17h0a.48.48,0,0,0-.17.65l.26.43A.47.47,0,0,0,677.59,709.66Z"/><path class="cls-27" d="M679.68,708.42h0a.46.46,0,0,0,.17-.64l-.25-.43a.47.47,0,0,0-.65-.16h0a.46.46,0,0,0-.16.64l.25.43A.46.46,0,0,0,679.68,708.42Z"/><path class="cls-27" d="M681.77,707.19h0a.47.47,0,0,0,.17-.65l-.25-.43A.48.48,0,0,0,681,706h0a.46.46,0,0,0-.16.64l.25.43A.46.46,0,0,0,681.77,707.19Z"/><path class="cls-27" d="M683.87,706h0a.47.47,0,0,0,.16-.64l-.25-.43a.47.47,0,0,0-.65-.17h0a.48.48,0,0,0-.16.65l.25.43A.48.48,0,0,0,683.87,706Z"/><path class="cls-27" d="M686,704.72h0a.47.47,0,0,0,.16-.65l-.25-.43a.46.46,0,0,0-.64-.16h0a.46.46,0,0,0-.17.64l.25.43A.48.48,0,0,0,686,704.72Z"/><path class="cls-27" d="M688.05,703.48h0a.48.48,0,0,0,.17-.65l-.26-.42a.46.46,0,0,0-.64-.17h0a.47.47,0,0,0-.17.65l.25.42A.48.48,0,0,0,688.05,703.48Z"/><path class="cls-27" d="M690.14,702.24h0a.47.47,0,0,0,.17-.64l-.26-.43a.47.47,0,0,0-.64-.17h0a.48.48,0,0,0-.17.65l.26.43A.46.46,0,0,0,690.14,702.24Z"/><path class="cls-27" d="M692.23,701h0a.48.48,0,0,0,.17-.65l-.26-.43a.47.47,0,0,0-.64-.16h0a.47.47,0,0,0-.17.64l.26.43A.47.47,0,0,0,692.23,701Z"/><path class="cls-27" d="M694.32,699.77h0a.46.46,0,0,0,.17-.64l-.25-.43a.49.49,0,0,0-.65-.17h0a.48.48,0,0,0-.17.65l.26.43A.47.47,0,0,0,694.32,699.77Z"/></g><path class="cls-5" d="M707.2,705.63a1.69,1.69,0,0,1-1.76-2.5,9.61,9.61,0,0,1,3.34-3.56c3.16-1.83,4.1,4,3.07,4.62A18.24,18.24,0,0,1,707.2,705.63Z"/><path class="cls-5" d="M707.51,698.74l3.89,6.58a35.55,35.55,0,0,0,9.16-3.74,28.21,28.21,0,0,0,6.21-4.51,10.13,10.13,0,0,0,.93-1.05l-4.08-6.9a4,4,0,0,0-1.44.19c-4.63,1.31-14.14,8.81-14.14,8.81Z"/><path class="cls-27" d="M722.18,689.31l4.59,7.76a10.13,10.13,0,0,0,.93-1.05l-4.08-6.9A4,4,0,0,0,722.18,689.31Z"/><path class="cls-5" d="M633.62,730.83c-.19-.07-13.64,3-20.94,8.32l9.24-.15,11.87-7S634.57,731.18,633.62,730.83Z"/><path class="cls-27" d="M661.05,704.06s8.32,5.72,9.77,6.5a8.08,8.08,0,0,0,3.76.56h0l14.3-2.42s15.25-8.9,18.53-10.92h0l.58-.37c1-.7,1.28-1.32,1-1.51s-25.4,9.79-28.17,10.91l-.08,0c-2.7,1.08-3.25.52-3.25.52l-13.82-3.8a1.39,1.39,0,0,0-.75-.09A6.71,6.71,0,0,0,661.05,704.06Z"/><path class="cls-27" d="M662.89,703.47c3.79,1.16,14.24,4.36,15.15,4.47s23.79-8.14,29.39-10.16h0l.58-.37c1-.7,1.28-1.32,1-1.51s-25.4,9.79-28.17,10.91-3.33.55-3.33.55l-13.82-3.8A1.39,1.39,0,0,0,662.89,703.47Z"/><path class="cls-27" d="M661.05,704.06s8.32,5.72,9.77,6.5a8.08,8.08,0,0,0,3.76.56h0a31.2,31.2,0,0,0,6.11-4.28c-2.7,1.08-3.25.52-3.25.52l-13.82-3.8a1.39,1.39,0,0,0-.75-.09A6.71,6.71,0,0,0,661.05,704.06Z"/><path class="cls-3" d="M622.33,735.4,658.2,713s-18.52,6-21,5.37c-2.35-.63-28.1-9.23-34.19-8.46,6.92,2.8,23.15,9.72,24.27,13.56C628.33,727.07,624.38,732.76,622.33,735.4Z"/><path class="cls-35" d="M374.2,1087.22a15,15,0,1,1-19.72-7.9A15,15,0,0,1,374.2,1087.22Z"/><path class="cls-36" d="M376.86,1087.22a15,15,0,1,1-19.72-7.9A15,15,0,0,1,376.86,1087.22Z"/><path class="cls-35" d="M288.54,1087.22a15,15,0,1,1-19.72-7.9A15,15,0,0,1,288.54,1087.22Z"/><path class="cls-36" d="M291.2,1087.22a15,15,0,1,1-19.72-7.9A15,15,0,0,1,291.2,1087.22Z"/><path class="cls-35" d="M386,838.39l-6.35-1.29c8.59-42.3,24.67-125.28,24.09-136.56-.36-7.11-2.54-12.25-6.47-15.27-6.31-4.84-15.4-3-15.49-2.95l-.34.06-25.87,2.72c-30.63.77-33,26.1-33.12,27.18l0,.33L300.83,831l-6.37-1.16L316,711.59a38.54,38.54,0,0,1,5.84-16.08c4.8-7.43,14.49-16.37,33.42-16.89L380.61,676c1.65-.32,12.35-2.11,20.56,4.15,5.54,4.22,8.59,11,9.05,20.1C411,715.11,387,833.36,386,838.39Z"/><path class="cls-35" d="M434.59,831.21l-65.41-13.07-12.79,256.54-121,10.69,21.36,7.68a19.32,19.32,0,0,0,6.74,1.13L378.71,1093c2,0,3.93,0,5.78,0h.19c45.09-1.54,47.28-26.11,47.28-26.11s14.59-165,17.92-194.43C453.66,839,434.59,831.21,434.59,831.21Z"/><path class="cls-36" d="M405.44,863.53l-17.59,184.81a41.74,41.74,0,0,1-41.31,37.8l-60.67.38h-1.5l-38,.24a42.38,42.38,0,0,1-11-1.39c-.82-.22-1.62-.46-2.42-.72a41.74,41.74,0,0,1-28.1-46.08L232.4,861.76a41.77,41.77,0,0,1,37.3-35.14l10.71-1,2.56-.24h0l2.15-.21,35.82-3.42,4.39-.42L359.9,818a41.59,41.59,0,0,1,15.55,1.43l1,.29,2,.68A41.78,41.78,0,0,1,405.44,863.53Z"/><path class="cls-37" d="M380.41,1068.45a41.75,41.75,0,0,1-33.87,17.69l-60.67.38h-1.5l-38,.24a42.38,42.38,0,0,1-11-1.39c-.82-.22-1.62-.46-2.42-.72-13.15-4.37-28.31-20.29-28.53-37.18,0,0,128.33-1.68,155.15,2.46C373.41,1052.08,377.55,1061.76,380.41,1068.45Z"/><path class="cls-35" d="M285.12,825.14c-.27.17-28.4,17.31-32.1,32.38-3.8,15.48-29.21,195.92-29.46,197.74a41.82,41.82,0,0,0,13.74,30.58l-1.93-.46c-.82-.22-1.62-.46-2.42-.72-13.58-13.49-11.75-29-11.66-29.71,1-7.45,25.68-182.38,29.5-198,3.36-13.67,23.19-27.28,29.62-31.39l2.56-.24h0Z"/><path class="cls-35" d="M325.33,821.3c-4.05,2.74-19.5,14.48-22.79,36.16-3.87,25.42-19,210.1-19.12,212v.13l0,.13c0,.09-2.19,10.06,4,16.83h-3c-5.95-7.26-3.59-16.17-3.23-17.42.48-5.71,15.3-186.77,19.14-212,2.84-18.68,14.34-30.29,20.66-35.4Z"/><path class="cls-35" d="M378.41,820.41a47.61,47.61,0,0,0-11,9.08A52.15,52.15,0,0,0,355,856.43c-3.87,25.41-15.84,209.47-16,211.32v.15l0,.13c0,.09-.56,11.35,5.65,18.12l-3.82,0c-4.75-6.19-4.45-17.38-4.06-18.71.38-5.88,12.14-186.17,16-211.39,3.61-23.71,19.36-34.59,22.7-36.65l1,.29Z"/><path class="cls-38" d="M-133.48,1112.71H2676.07a3,3,0,0,0,2.72-3.26h0a3,3,0,0,0-2.72-3.26H-133.48a3,3,0,0,0-2.72,3.26h0A3,3,0,0,0-133.48,1112.71Z"/><path class="cls-18" d="M381.74,649.14s-11.84-14.11-14.42-.93c-.3,1.55-13.07,18.7-13.55,28.06s11.49,13.87,15.56,14.08c3.26.17,4.08-5,4.73-7.2h0a10.17,10.17,0,0,1,8.77-7.51l.45,0c.17-.62.31-1.18.39-1.62C384.28,670.49,381.74,649.14,381.74,649.14Z"/><path class="cls-18" d="M374.63,683.09a10.35,10.35,0,0,0-.65,2.84c-.09,2.13,3,2,4,2,.5,0,1.71-2.51,2.91-5.44Z"/><path class="cls-32" d="M375,652.74c8.95,4.1,12.27-.08,12.27-.08s52.16-87.09,57.65-94.1,101.78-48.32,101.78-48.32,39.18-15,40.73-38.75c1.35-20.65-10.38-33.34-23.22-41a43.35,43.35,0,0,0-48.74,3.14c-31.58,24.53-94.19,73.87-104.27,87.25C388.76,550.67,363.9,644,363.9,644A31,31,0,0,0,375,652.74Z"/></svg>