<svg id="OBJECTS" xmlns="http://www.w3.org/2000/svg" xmlns:xlink="http://www.w3.org/1999/xlink" viewBox="0 0 750 877.66"><defs><style>.cls-1,.cls-14,.cls-17,.cls-19,.cls-20,.cls-21,.cls-24,.cls-25,.cls-26,.cls-27,.cls-28,.cls-29,.cls-30,.cls-31,.cls-32,.cls-33,.cls-36,.cls-37,.cls-39,.cls-4,.cls-5,.cls-7{fill:none;}.cls-2{fill:#2b292e;}.cls-22,.cls-3{fill:#e2ac9d;}.cls-17,.cls-22,.cls-25,.cls-30,.cls-31,.cls-32,.cls-36,.cls-37,.cls-39,.cls-4,.cls-5,.cls-7{stroke:#2b292e;}.cls-14,.cls-17,.cls-19,.cls-20,.cls-21,.cls-22,.cls-24,.cls-25,.cls-26,.cls-27,.cls-28,.cls-29,.cls-30,.cls-31,.cls-32,.cls-33,.cls-36,.cls-37,.cls-39,.cls-4,.cls-5,.cls-7{stroke-miterlimit:10;}.cls-5{stroke-dasharray:5.38 5.38;}.cls-10,.cls-6{fill:#f5f6e6;}.cls-7{stroke-dasharray:5.38 5.38;}.cls-8{fill:#d87d6b;}.cls-9{fill:#5d979a;}.cls-10{font-size:6.82px;font-family:Kodchasan-SemiBoldItalic, Kodchasan SemiBoldItalic;font-weight:600;font-style:italic;}.cls-11{letter-spacing:-0.08em;}.cls-12{letter-spacing:0.01em;}.cls-13{letter-spacing:0em;}.cls-14,.cls-20,.cls-21{stroke:#f5f6e6;}.cls-14{stroke-width:1.33px;}.cls-15{fill:#b5cfbd;}.cls-16{clip-path:url(#clip-path);}.cls-17{stroke-dasharray:4.68;}.cls-18{fill:#e09b2f;}.cls-19,.cls-24,.cls-28{stroke:#d87d6b;}.cls-19{stroke-width:1.17px;}.cls-21{stroke-width:1.23px;}.cls-23{clip-path:url(#clip-path-2);}.cls-24{stroke-width:0.44px;}.cls-25,.cls-27{stroke-width:2.98px;}.cls-26,.cls-27,.cls-33{stroke:#e09b2f;}.cls-26{stroke-width:3.86px;}.cls-28{stroke-width:0.89px;}.cls-29{stroke:#5d979a;stroke-width:0.44px;}.cls-30{stroke-width:0.93px;}.cls-31{stroke-width:0.88px;}.cls-32,.cls-33{stroke-width:7px;}.cls-34{clip-path:url(#clip-path-3);}.cls-35{clip-path:url(#clip-path-4);}.cls-36{stroke-width:1.52px;}.cls-37{stroke-width:0.93px;}.cls-38{fill:#e7d1b0;}.cls-39{stroke-width:0.83px;}.cls-40{clip-path:url(#clip-path-5);}</style><clipPath id="clip-path"><polygon class="cls-1" points="25.6 486.38 29.81 429.7 52.49 446.56 71.3 435.22 85.81 450.81 108.59 438.13 100.01 493.06 81.5 503.06 63.95 492.04 45.07 501.33 25.6 486.38"/></clipPath><clipPath id="clip-path-2"><path class="cls-1" d="M436.45,440.32a39.35,39.35,0,1,0,31.12-46.13A39.36,39.36,0,0,0,436.45,440.32Z"/></clipPath><clipPath id="clip-path-3"><path class="cls-1" d="M528.56,425.93h26.62A24.82,24.82,0,0,1,580,450.75v61.13a7.51,7.51,0,0,1-7.51,7.51H511.26a7.51,7.51,0,0,1-7.51-7.51V450.75A24.82,24.82,0,0,1,528.56,425.93Z"/></clipPath><clipPath id="clip-path-4"><rect class="cls-1" x="634.2" y="212.25" width="101.11" height="59.91" rx="13.87" transform="translate(1216.97 736.47) rotate(-156.6)"/></clipPath><clipPath id="clip-path-5"><rect class="cls-1" x="278.37" y="574.78" width="114.02" height="67.56" rx="15.64" transform="translate(972.83 885.09) rotate(142.31)"/></clipPath></defs><rect class="cls-2" x="120.61" y="228.95" width="23.48" height="42.27" rx="4.32" transform="translate(257.62 503.79) rotate(-178.39)"/><rect class="cls-2" x="16.72" y="227.43" width="104.08" height="42.27" rx="4.85" transform="translate(130.5 498.97) rotate(-178.39)"/><rect class="cls-3" x="122.53" y="227.74" width="23.48" height="42.27" rx="4.32" transform="translate(261.47 501.44) rotate(-178.39)"/><rect class="cls-3" x="18.64" y="226.22" width="104.08" height="42.27" rx="4.85" transform="translate(134.36 496.61) rotate(-178.39)"/><line class="cls-4" x1="123.15" y1="232.54" x2="123.07" y2="235.39"/><line class="cls-5" x1="122.92" y1="240.76" x2="122.39" y2="259.57"/><line class="cls-4" x1="122.31" y1="262.26" x2="122.23" y2="265.1"/><rect class="cls-2" x="115.85" y="265.08" width="23.48" height="42.27" rx="4.32" transform="translate(82.61 596.34) rotate(-147.72)"/><rect class="cls-2" x="21.63" y="231.34" width="104.08" height="42.27" rx="4.85" transform="translate(1.12 505.28) rotate(-147.72)"/><rect class="cls-6" x="118.11" y="265.02" width="23.48" height="42.27" rx="4.32" transform="matrix(-0.85, -0.53, 0.53, -0.85, 86.81, 597.44)"/><rect class="cls-6" x="23.89" y="231.28" width="104.08" height="42.27" rx="4.85" transform="translate(5.32 506.37) rotate(-147.72)"/><path class="cls-2" d="M130.86,283.66l4.76-8.32c.5-.88,3.45-4.44,4.26-3.91h0c.81.54-1.33,4.64-1.94,5.44l-5.83,7.62c-.16.22-1,.76-1.27.56h0C130.53,284.84,130.72,283.9,130.86,283.66Z"/><polygon class="cls-2" points="140.51 283.8 135.25 279.15 134.39 278.54 128.16 275.54 128.76 274.7 136.46 275.26 137.83 276.46 141.09 282.99 140.51 283.8"/><polyline class="cls-2" points="131.63 284.62 133.25 286.45 133.68 285.84 133.09 283.01 132.08 282.29 131.88 282.15 128.84 282.59 128.41 283.19 131.06 284.14"/><path class="cls-2" d="M137.64,281.88l.45-.63a.32.32,0,0,1,.45-.08h0a.32.32,0,0,1,.08.45l-.45.63a.32.32,0,0,1-.45.08h0A.32.32,0,0,1,137.64,281.88Z"/><path class="cls-2" d="M136.56,280.89l.45-.63a.32.32,0,0,1,.45-.07h0a.32.32,0,0,1,.07.45l-.44.63a.33.33,0,0,1-.45.08h0A.33.33,0,0,1,136.56,280.89Z"/><path class="cls-2" d="M132.51,278.12l.44-.63a.34.34,0,0,1,.46-.08h0a.32.32,0,0,1,.07.45l-.45.64a.33.33,0,0,1-.45.07h0A.32.32,0,0,1,132.51,278.12Z"/><path class="cls-2" d="M131.13,277.55l.45-.63a.32.32,0,0,1,.45-.08h0a.32.32,0,0,1,.08.45l-.45.63a.32.32,0,0,1-.45.08h0A.32.32,0,0,1,131.13,277.55Z"/><line class="cls-4" x1="128.62" y1="266.44" x2="127.1" y2="268.84"/><line class="cls-7" x1="124.23" y1="273.39" x2="114.18" y2="289.3"/><line class="cls-4" x1="112.75" y1="291.57" x2="111.23" y2="293.98"/><line class="cls-4" x1="134.64" y1="293.2" x2="122.03" y2="285.24"/><line class="cls-4" x1="131.74" y1="297.79" x2="119.14" y2="289.83"/><line class="cls-4" x1="129.13" y1="301.92" x2="116.53" y2="293.96"/><rect class="cls-4" x="61.23" y="246.1" width="54.53" height="30.72" rx="2.23" transform="translate(23.69 529.76) rotate(-147.72)"/><line class="cls-4" x1="85.35" y1="244.08" x2="71.24" y2="266.41"/><line class="cls-4" x1="107.89" y1="276.31" x2="79.21" y2="258.19"/><line class="cls-4" x1="79.05" y1="248.77" x2="71.11" y2="243.76"/><line class="cls-4" x1="68.94" y1="231.73" x2="43.7" y2="215.79"/><line class="cls-4" x1="66.05" y1="236.31" x2="40.81" y2="220.37"/><line class="cls-4" x1="63.43" y1="240.44" x2="38.2" y2="224.5"/><rect class="cls-8" x="28.86" y="237.02" width="29.85" height="13.15" rx="1.64" transform="translate(-49.28 472.94) rotate(-147.72)"/><path d="M102.14,315.45,80.87,253.24a4.65,4.65,0,0,0-6.54-2.73l-49.71,24a1.41,1.41,0,0,0-.73,1.71l24,70.06c.22.65,3.33.11,3.95-.19L99,322.75A6.1,6.1,0,0,0,102.14,315.45Z"/><path class="cls-6" d="M101.7,320.12,80.42,257.91a4.64,4.64,0,0,0-6.53-2.73L29,275.57a1.42,1.42,0,0,0-.73,1.71l24,70.06a1.08,1.08,0,0,0,1.53.63L98.6,327.42A6.11,6.11,0,0,0,101.7,320.12Z"/><path d="M28.23,279.64h66a4.8,4.8,0,0,1,4.8,4.8v38a9,9,0,0,1-9,9H32.41a9,9,0,0,1-9-9v-38a4.8,4.8,0,0,1,4.8-4.8Z" transform="translate(-208.01 462.32) rotate(-108.88)"/><path class="cls-9" d="M31.05,278.63h73.16a1.24,1.24,0,0,1,1.24,1.24v42.88a5.28,5.28,0,0,1-5.28,5.28H35.1a5.28,5.28,0,0,1-5.28-5.28V279.86a1.24,1.24,0,0,1,1.24-1.24Z" transform="translate(-197.48 465.48) rotate(-108.88)"/><text class="cls-10" transform="translate(47.43 292.05) rotate(-21.37)"><tspan class="cls-11">P</tspan><tspan x="3.06" y="0">ASSPO</tspan><tspan class="cls-12" x="22.29" y="0">R</tspan><tspan class="cls-13" x="26.02" y="0">T</tspan></text><circle class="cls-14" cx="69.27" cy="310.77" r="16.51" transform="translate(-202.53 144.94) rotate(-46.05)"/><circle class="cls-14" cx="69.12" cy="310.82" r="11.51" transform="translate(-240.16 235.13) rotate(-63.71)"/><polygon class="cls-15" points="67.48 305.56 69.1 299.76 70.89 305.51 75.61 301.76 73.67 307.46 79.69 307.21 74.78 310.69 79.8 314.01 73.77 313.94 75.88 319.58 71.05 315.98 69.44 321.79 67.65 316.03 62.93 319.78 64.86 314.08 58.84 314.33 63.76 310.86 58.74 307.53 64.76 307.6 62.66 301.96 67.48 305.56"/><polygon class="cls-2" points="26.98 484.42 30.76 427.71 53.56 444.4 72.29 432.92 86.92 448.4 109.6 435.55 101.43 490.55 83 500.69 65.36 489.79 46.55 499.22 26.98 484.42"/><polygon class="cls-6" points="25.6 486.38 29.81 429.7 52.49 446.56 71.3 435.22 85.81 450.81 108.59 438.13 100.01 493.06 81.5 503.06 63.95 492.04 45.07 501.33 25.6 486.38"/><g class="cls-16"><path class="cls-15" d="M111.41,463.44C108.35,462,101.69,466,99.69,471c-1.1,2.69-.27,4.38-2.14,7.24-2,3.12-4.42,3.24-4.75,5.43-.47,3.08,3.81,5.7,3.33,6.38-.79,1.12-11.49-7.52-16-4.55-3,2-1.67,8.09-4,8.65-2.07.5-3.53-4.27-6.75-4.4s-7.29,4.43-6.89,8.14c.62,5.81,12.25,10.08,21.44,10,12.81-.17,21.1-8.87,21.87-9.71C116.92,486,116.53,465.83,111.41,463.44Z"/><path class="cls-15" d="M62.1,439.07c-1.35.37-.52,3.71-2.34,9.14-1.44,4.32-3,5.37-2.36,6.78,1.45,3.11,10.7,1.43,10.84,2.43s-7.74,1-11.25,6.09c-2.22,3.19-2.52,8.11-.59,9.55,2.56,1.92,7.19-3.73,12.23-1.84,3.89,1.46,4.72,6,6.28,5.82,2.19-.26-.23-9.72,3.6-12,3-1.82,6.76,2.47,10.22.5,2.5-1.43,1.26-4.1,4.14-8.4,3.29-4.91,7.12-4.77,7.94-8,.91-3.56-1.81-8.94-5.56-10-5.6-1.56-5.78-9.86-15-9.93"/><path class="cls-15" d="M37.06,447.91c3.14,3.77,8.09,2.77,8.55,5.14.42,2.18-3.8,2.94-6,7.65-2,4.36.24,6.72-1.58,9.71-2.32,3.8-9.28,5.47-13.69,3.41-8.87-4.15-10.56-24.87-1.87-32.66,3.11-2.8,8.46-4.73,11.07-2.87S34,444.21,37.06,447.91Z"/><path class="cls-15" d="M31.11,500.53c-3-6.93,1.25-16.35,5.22-17,1.88-.32,2.58,1.52,5,1.28,3.82-.36,4-5,8.22-6.26,3.5-1.06,4.53,1.83,9.5,1.22,4.22-.53,5.14-2.81,8.12-2.24s5.5,3.28,5.19,5.31c-.38,2.53-7.25.17-10.56,3.95C59,490,62,493.67,59.38,499.66a16,16,0,0,1-6.66,7.42C45.88,510.68,34.48,508.2,31.11,500.53Z"/><path class="cls-15" d="M41.88,428.25c-4.65,4-5.68,11.23-2.72,15.62,2.31,3.44,6.54,4.38,8.5,4.81,2.15.48,4.69,1,6.76,0,5.78-2.9,7.6-18.07.36-22.37C51,424.06,45.4,425.22,41.88,428.25Z"/><path class="cls-15" d="M110.34,433.85c-2.36-.5-6,3.26-6.7,7-.88,4.46,2.72,6.47,1.53,10.31-1,3.12-3.57,2.52-7.09,6.81-4,4.85-2.34,7.68-5.6,10-3.8,2.69-7.09-.42-11.19,2-4.67,2.79-6.67,10.54-4.54,12.52,2.5,2.32,12.44-1.66,17.73-8.7,3.38-4.5,2.66-7.32,6.71-10.87,4.41-3.85,7.32-2.3,10.36-5.27C118,451.36,114.76,434.78,110.34,433.85Z"/><path class="cls-15" d="M61.18,462.88a8.31,8.31,0,0,1,2.16-9.57c3-2.44,7.5-2.26,9.54-.31s1,5.13,2.92,6,3.83-1.61,4.86-.85.42,4.87-2,7.4c-3.38,3.6-9.86,3.8-14,1.2A8.44,8.44,0,0,1,61.18,462.88Z"/><path class="cls-15" d="M74.67,502.43c-.49-3.17,4.33-5.85,5.14-6.29.44-.25,7.46-4,11.46-.26a6.32,6.32,0,0,1,2,5.67c-.91,4.21-7.31,6-11.83,5.28C81,506.76,75.19,505.74,74.67,502.43Z"/><path class="cls-17" d="M27.56,438.7s-2.9,16.61,13,12.38,25-3.18,19.68,5-25.45-1.78-28.35,5.45,14.44,7.65,12.22,13.11-17.5,9.7-8,15.24S60,481.1,62.4,496.14"/><path class="cls-17" d="M84.67,439.6s-20,13.12-7,25.36,35.92-8.65,18.06-22.17"/><path class="cls-17" d="M71.31,501.42s12.56-8.67-.75-16.21S60.44,469,69.42,470.88s12.7,21.48,23.7,15.93a36.47,36.47,0,0,0,15.6-15.42"/><polygon class="cls-18" points="61.17 470.89 62.13 468.91 62.39 471.1 64.34 470.06 63.27 471.98 65.45 472.28 63.45 473.21 65.04 474.74 62.88 474.32 63.27 476.48 61.77 474.87 60.8 476.85 60.54 474.67 58.6 475.71 59.66 473.78 57.48 473.48 59.48 472.55 57.89 471.03 60.05 471.45 59.67 469.28 61.17 470.89"/><polygon class="cls-18" points="41.32 456.93 42.28 454.95 42.54 457.13 44.48 456.1 43.42 458.02 45.6 458.32 43.6 459.25 45.19 460.78 43.03 460.36 43.41 462.52 41.91 460.91 40.95 462.89 40.69 460.71 38.75 461.75 39.81 459.82 37.63 459.52 39.63 458.59 38.04 457.06 40.2 457.49 39.81 455.32 41.32 456.93"/><path class="cls-19" d="M39.21,464.77a4.29,4.29,0,1,0,3.6-4.88A4.29,4.29,0,0,0,39.21,464.77Z"/><path class="cls-19" d="M85.86,495.66a4.29,4.29,0,1,0,3.61-4.88A4.3,4.3,0,0,0,85.86,495.66Z"/><path class="cls-8" d="M74.56,457.92a2,2,0,1,0,1.64-2.22A2,2,0,0,0,74.56,457.92Z"/><path class="cls-8" d="M39.47,485.29a2,2,0,1,0,1.64-2.22A1.95,1.95,0,0,0,39.47,485.29Z"/><path class="cls-8" d="M35.85,436.22A2,2,0,1,0,37.49,434,2,2,0,0,0,35.85,436.22Z"/></g><line class="cls-4" x1="51.62" y1="450.82" x2="45.55" y2="496.22"/><line class="cls-4" x1="86.13" y1="454.23" x2="81.58" y2="498.88"/><line class="cls-4" x1="70.27" y1="438.18" x2="64.2" y2="487.92"/><rect class="cls-2" x="547.73" y="32.31" width="115.24" height="70.62" rx="3.51" transform="translate(62.43 -208.54) rotate(20.59)"/><rect class="cls-18" x="547.42" y="34.02" width="108.26" height="67.58" rx="3.32" transform="translate(62.26 -207.19) rotate(20.59)"/><rect class="cls-6" x="546.91" y="50.94" width="108.26" height="36.44" transform="translate(62.7 -206.93) rotate(20.59)"/><rect class="cls-2" x="569.35" y="11.86" width="19.4" height="9.35" rx="4.12" transform="translate(42.79 -202.55) rotate(20.59)"/><circle class="cls-8" cx="601.02" cy="69.22" r="24.89"/><circle class="cls-2" cx="601.4" cy="69.36" r="18.91" transform="translate(227.17 545.22) rotate(-58.4)"/><circle class="cls-20" cx="601.02" cy="69.22" r="22.17" transform="translate(-0.28 135.96) rotate(-12.9)"/><circle class="cls-20" cx="601.4" cy="69.36" r="13.24" transform="translate(327.71 609.35) rotate(-69.7)"/><circle class="cls-4" cx="601.02" cy="69.22" r="29.39" transform="translate(26.15 257.73) rotate(-24.73)"/><path class="cls-6" d="M596.07,61.91a3.6,3.6,0,1,0,4.64-2.11A3.6,3.6,0,0,0,596.07,61.91Z"/><path class="cls-6" d="M590.66,66.4a2.28,2.28,0,1,0,2.93-1.33A2.26,2.26,0,0,0,590.66,66.4Z"/><rect class="cls-3" x="640.93" y="54.5" width="13.82" height="8.76" rx="1.5" transform="translate(62.07 -224.04) rotate(20.59)"/><rect class="cls-21" x="643.11" y="54.39" width="13.82" height="8.76" rx="1.5" transform="translate(62.18 -224.81) rotate(20.59)"/><path class="cls-6" d="M568.35,25.26a.86.86,0,0,0,1.11-.5.87.87,0,0,0-.5-1.12.86.86,0,0,0-1.11.51A.85.85,0,0,0,568.35,25.26Z"/><path class="cls-6" d="M578.78,29.18a.87.87,0,0,0,.61-1.62.87.87,0,1,0-.61,1.62Z"/><path class="cls-6" d="M573.71,27.28a.88.88,0,0,0,1.12-.51.87.87,0,0,0-1.62-.61A.87.87,0,0,0,573.71,27.28Z"/><path class="cls-3" d="M563.54,35.61a6.31,6.31,0,1,0,8.12-3.68A6.3,6.3,0,0,0,563.54,35.61Z"/><rect class="cls-2" x="681.88" y="67.17" width="45.08" height="45.08" transform="translate(193.5 -403.47) rotate(36.73)"/><rect class="cls-6" x="681.09" y="64.3" width="45.08" height="45.08" transform="translate(191.63 -403.56) rotate(36.73)"/><path class="cls-18" d="M707.32,85.71a5.37,5.37,0,1,0,7.52-1.09A5.37,5.37,0,0,0,707.32,85.71Z"/><path class="cls-15" d="M715,101.05c-.2-4.88-1.19-9.59-4.24-11-4-1.85-9.19,3.12-11.65,1-2.16-1.84.87-6.41-1.4-9.81-1.8-2.71-6-3.17-9.55-3.05l-8.26,11.07,28.19,21Z"/><rect class="cls-4" x="685.46" y="69.61" width="36.56" height="34.16" transform="translate(191.57 -403.66) rotate(36.73)"/><rect class="cls-2" x="642.34" y="93.14" width="45.08" height="45.08" transform="translate(5.26 -26.95) rotate(2.33)"/><rect class="cls-6" x="640.06" y="91.22" width="45.08" height="45.08" transform="translate(5.18 -26.86) rotate(2.33)"/><rect class="cls-22" x="644.33" y="96.5" width="36.56" height="34.16" transform="translate(5.17 -26.86) rotate(2.33)"/><path class="cls-4" d="M651.29,110l23.05.27,0,16.71-8.41-1s2.58-7.42-2.4-9.75-3,9.46-3,9.46l-8.19-.12Z"/><polygon class="cls-4" points="647.91 103.75 678.6 103.69 678.09 110.67 648.08 109.7 647.91 103.75"/><path class="cls-4" d="M649.93,108.16s-.1-1.85,2.62-2.13c2.36-.24,2.81,2.51,2.81,2.51"/><path class="cls-4" d="M665.28,108.12s-.1-1.85,2.62-2.12c2.36-.24,2.81,2.5,2.81,2.5"/><path class="cls-4" d="M657.81,108.44s0-2.45,2.22-2.55c3-.14,3.18,2.26,3.18,2.26"/><path class="cls-4" d="M671.49,108.06s0-2.46,2.22-2.56c3-.13,3.18,2.26,3.18,2.26"/><path class="cls-6" d="M523.43,308.16l35.92-21c3.77-2.21,22.59-9.24,24.47-5.47h0c1.88,3.76-15.05,14.57-19.08,16.26L526.35,314c-1.1.46-5.27.78-6-.66h0C519.64,311.9,522.4,308.76,523.43,308.16Z"/><polygon class="cls-6" points="559.42 329.58 549.7 300.69 547.79 296.55 530.87 271.76 534.92 269.9 562.65 288.68 565.25 296.15 563.39 327.75 559.42 329.58"/><polyline class="cls-6" points="524.24 313.44 526.4 323.82 529.33 322.47 533.24 310.55 530.99 305.64 530.55 304.69 518.15 299.74 515.22 301.09 523.14 310.38"/><path class="cls-6" d="M552.81,316.13l3.05-1.4a1.41,1.41,0,0,1,1.86.69h0a1.41,1.41,0,0,1-.69,1.86l-3,1.4a1.39,1.39,0,0,1-1.86-.69h0A1.4,1.4,0,0,1,552.81,316.13Z"/><path class="cls-6" d="M550.86,310.08l3-1.4a1.41,1.41,0,0,1,1.86.69h0a1.39,1.39,0,0,1-.69,1.86L552,312.64a1.41,1.41,0,0,1-1.86-.69h0A1.42,1.42,0,0,1,550.86,310.08Z"/><path class="cls-6" d="M541.61,290.88l3.06-1.4a1.41,1.41,0,0,1,1.86.69h0a1.41,1.41,0,0,1-.69,1.86l-3.05,1.4a1.41,1.41,0,0,1-1.86-.69h0A1.4,1.4,0,0,1,541.61,290.88Z"/><path class="cls-6" d="M537.69,285.74l3-1.4a1.41,1.41,0,0,1,1.86.69h0a1.41,1.41,0,0,1-.69,1.86l-3,1.4a1.39,1.39,0,0,1-1.86-.69h0A1.41,1.41,0,0,1,537.69,285.74Z"/><circle class="cls-2" cx="478.41" cy="433.48" r="39.35" transform="translate(-166.4 465.25) rotate(-45)"/><circle class="cls-9" cx="475.07" cy="432.81" r="39.35" transform="translate(-12.26 13.85) rotate(-1.65)"/><g class="cls-23"><path class="cls-15" d="M479.1,381.73c-9.3,6.95-9.92,26.8-2,36.23,4.3,5.14,9,4.65,12.3,10.91,4.5,8.62-.79,16.52,2.91,19,3.54,2.38,13-1.76,15.56-8.5,2.82-7.51-5.2-12.41-3.2-20.51,2.51-10.16,17-10.1,17.87-16.78C523.81,392,493.06,371.29,479.1,381.73Z"/><path class="cls-15" d="M455.74,461.24c3.46-7.42,10.51-18.92,14.56-17.71,5,1.49.63,20.56,8.61,24.16,3.83,1.72,6.58-1.85,11,.21,5.42,2.53,7.16,10.65,7,15.86-.22,6.82-3.9,14-9.89,17.57-12,7.19-31.56-1.25-36.39-14.06C447.49,478.94,451.31,470.74,455.74,461.24Z"/><path class="cls-15" d="M450.36,397.32c5.22,1.86,3.71,20.34.13,32.85C447.27,441.39,439.76,457,434.38,456c-5-.91-7.56-15.75-5.43-27.91C432,411,445,395.41,450.36,397.32Z"/><path class="cls-15" d="M535.7,439.72c-1.35,5.43,3.06,12.61,7.91,13.35,8,1.23,17.53-15.16,14.24-19.79C554.79,429,537.89,430.85,535.7,439.72Z"/></g><path class="cls-3" d="M128.76,9.07a24.07,24.07,0,0,0-24.71,23.41c-.37,13.31,20.77,43.74,20.77,43.74s26.92-29.07,27.3-42.38A24.08,24.08,0,0,0,128.76,9.07Zm-1,35.76A13.17,13.17,0,1,1,141.25,32,13.16,13.16,0,0,1,127.76,44.83Z"/><path class="cls-2" d="M484.4,379.53a8.42,8.42,0,0,0-7.69,9.09c.39,4.63,8.93,14.36,8.93,14.36s8.23-11.14,7.84-15.77A8.41,8.41,0,0,0,484.4,379.53Zm1,12.44a4.6,4.6,0,1,1,4.19-5A4.59,4.59,0,0,1,485.44,392Z"/><path class="cls-18" d="M251.6,265.82A32.57,32.57,0,0,0,219,298.39c0,18,29.78,58.28,29.78,58.28s35.35-40.29,35.35-58.28A32.57,32.57,0,0,0,251.6,265.82Zm0,48.34a17.79,17.79,0,1,1,17.79-17.79A17.79,17.79,0,0,1,251.6,314.16Z"/><circle class="cls-2" cx="569.51" cy="860.22" r="27.7" transform="translate(-37.98 26.38) rotate(-2.57)"/><circle class="cls-6" cx="566.77" cy="861.34" r="22.99" transform="translate(-350.16 389.77) rotate(-29.44)"/><line class="cls-24" x1="550.35" y1="877.73" x2="553.98" y2="874.1"/><line class="cls-24" x1="544.35" y1="867.32" x2="549.32" y2="866"/><line class="cls-24" x1="544.36" y1="855.31" x2="549.33" y2="856.65"/><line class="cls-24" x1="550.38" y1="844.92" x2="554.01" y2="848.55"/><line class="cls-24" x1="560.78" y1="838.92" x2="562.11" y2="843.89"/><line class="cls-24" x1="572.79" y1="838.93" x2="571.46" y2="843.9"/><line class="cls-24" x1="583.19" y1="844.94" x2="579.55" y2="848.58"/><line class="cls-24" x1="589.18" y1="855.35" x2="584.22" y2="856.68"/><line class="cls-24" x1="589.17" y1="867.36" x2="584.21" y2="866.03"/><line class="cls-24" x1="583.16" y1="877.76" x2="579.53" y2="874.12"/><path class="cls-25" d="M563.63,835.26a8.3,8.3,0,0,0-14.39,8.28"/><circle class="cls-26" cx="566.77" cy="861.34" r="24.95" transform="translate(-416.54 1171.56) rotate(-74.16)"/><path class="cls-27" d="M561.91,836.25a8.3,8.3,0,1,0-14.39,8.28"/><circle class="cls-28" cx="566.77" cy="861.34" r="14.25" transform="translate(-64.06 45.75) rotate(-4.38)"/><polyline class="cls-29" points="565.96 857.14 568.54 852.35 569.58 857.68"/><polyline class="cls-29" points="571.41 860.46 576 863.38 570.6 864.03"/><polyline class="cls-29" points="563.24 858.63 557.82 859.15 562.33 862.18"/><polyline class="cls-29" points="564.18 864.95 565.08 870.31 567.78 865.6"/><path class="cls-2" d="M567.55,857.82l-6.35-4.68,2.06,7.44-4.49,6.67,7.56-2.21,6.35,4.29L570.54,862l-.07-.14,4.49-6.1Zm1,6.58a3.54,3.54,0,1,1,1.3-4.83A3.55,3.55,0,0,1,568.53,864.4Z"/><polygon class="cls-8" points="564.66 862.55 567.67 843.1 568.33 862.23 564.66 862.55"/><polygon class="cls-9" points="568.41 861.58 565.39 881.02 564.74 861.89 568.41 861.58"/><path class="cls-25" d="M541,832.16a5.55,5.55,0,1,0,4.89-6.15A5.55,5.55,0,0,0,541,832.16Z"/><path class="cls-27" d="M539.94,832.28a5.55,5.55,0,1,0,4.88-6.15A5.56,5.56,0,0,0,539.94,832.28Z"/><path class="cls-25" d="M535.73,824.05a5.55,5.55,0,1,0,4.88-6.15A5.54,5.54,0,0,0,535.73,824.05Z"/><path class="cls-27" d="M534.64,824.17a5.55,5.55,0,1,0,4.88-6.14A5.54,5.54,0,0,0,534.64,824.17Z"/><path class="cls-25" d="M540.82,814.85a5.55,5.55,0,1,0,4.89-6.14A5.55,5.55,0,0,0,540.82,814.85Z"/><path class="cls-27" d="M539.73,815a5.55,5.55,0,1,0,4.88-6.15A5.54,5.54,0,0,0,539.73,815Z"/><path class="cls-25" d="M536.27,804.54a5.55,5.55,0,1,0,4.89-6.15A5.55,5.55,0,0,0,536.27,804.54Z"/><path class="cls-27" d="M535.18,804.66a5.55,5.55,0,1,0,4.89-6.14A5.55,5.55,0,0,0,535.18,804.66Z"/><path class="cls-2" d="M656.53,836.38c.62.57-.88,3.26-3.37,6s-5,4.53-5.64,4,.88-3.26,3.36-6S655.9,835.81,656.53,836.38Z"/><rect class="cls-2" x="643.98" y="838.4" width="13.44" height="3.56" transform="translate(-409.01 760.64) rotate(-47.95)"/><path class="cls-18" d="M653.88,834c.63.57-.88,3.27-3.36,6s-5,4.53-5.64,4,.87-3.27,3.36-6S653.25,833.43,653.88,834Z"/><path class="cls-2" d="M521.12,518.85c0,2.36-25.5-7.48-23.14-7.48a4.28,4.28,0,0,0,0-8.55C495.62,502.82,521.12,516.49,521.12,518.85Z"/><path class="cls-18" d="M520.18,518.29c0,2.36-25.5-7.48-23.14-7.48a4.28,4.28,0,1,0,0-8.55C494.68,502.26,520.18,515.93,520.18,518.29Z"/><path class="cls-2" d="M479.13,868.88a5.82,5.82,0,1,0,5.81-5.82A5.81,5.81,0,0,0,479.13,868.88Z"/><path class="cls-18" d="M477.86,868.11a5.81,5.81,0,1,0,5.81-5.81A5.81,5.81,0,0,0,477.86,868.11Z"/><circle class="cls-2" cx="418.54" cy="399.39" r="5.81"/><path class="cls-18" d="M411.46,398.62a5.81,5.81,0,1,0,5.81-5.81A5.81,5.81,0,0,0,411.46,398.62Z"/><path class="cls-2" d="M610.43,365.86a5.81,5.81,0,1,0,5.81-5.81A5.81,5.81,0,0,0,610.43,365.86Z"/><circle class="cls-18" cx="614.97" cy="365.09" r="5.81"/><path class="cls-2" d="M16.37,322.72a5.82,5.82,0,1,0,5.81-5.81A5.81,5.81,0,0,0,16.37,322.72Z"/><circle class="cls-18" cx="20.91" cy="321.95" r="5.81"/><rect class="cls-2" x="647.5" y="437.11" width="69.88" height="26.65" transform="translate(1376.32 17.83) rotate(114.63)"/><rect class="cls-15" x="650.46" y="435.89" width="69.88" height="26.65" transform="translate(1379.4 13.41) rotate(114.63)"/><path class="cls-30" d="M663.25,469.43l23.19-50.59a4.55,4.55,0,0,0,6-2.24L705,422.35a4.56,4.56,0,0,0,2.24,6L684.07,479a4.55,4.55,0,0,0-6,2.24l-12.54-5.75A4.56,4.56,0,0,0,663.25,469.43Z"/><path class="cls-6" d="M678,464.65c-3.06-1.41-2.36-9.5,1.58-18.09s9.61-14.4,12.67-13,2.36,9.5-1.58,18.08S681.1,466.05,678,464.65Z"/><path class="cls-6" d="M682.21,480.84a1.61,1.61,0,1,0,.65,2.06A1.53,1.53,0,0,0,682.21,480.84Z"/><path class="cls-6" d="M689.94,413.66a1.61,1.61,0,1,0,.65,2.07A1.54,1.54,0,0,0,689.94,413.66Z"/><path class="cls-6" d="M709,422.4a1.61,1.61,0,1,0,.65,2.07A1.54,1.54,0,0,0,709,422.4Z"/><path class="cls-6" d="M662.68,471.88a1.61,1.61,0,1,0,.65,2.07A1.54,1.54,0,0,0,662.68,471.88Z"/><rect class="cls-2" x="116.2" y="140.48" width="69.88" height="26.65" transform="translate(359.54 209.25) rotate(149.4)"/><rect class="cls-15" x="119.33" y="141.17" width="69.88" height="26.65" transform="translate(365.71 208.93) rotate(149.4)"/><path class="cls-30" d="M124.55,158.47l47.9-28.33a4.56,4.56,0,0,0,6.24,1.6l7,11.87a4.56,4.56,0,0,0-1.6,6.24l-47.9,28.33a4.56,4.56,0,0,0-6.24-1.6l-7-11.87A4.56,4.56,0,0,0,124.55,158.47Z"/><path class="cls-6" d="M139.43,163c-1.72-2.9,3.48-9.15,11.61-13.95s16.1-6.35,17.82-3.45-3.49,9.15-11.61,14S141.14,165.87,139.43,163Z"/><path class="cls-6" d="M133.62,178.65a1.61,1.61,0,1,0-.64,2.07A1.54,1.54,0,0,0,133.62,178.65Z"/><path class="cls-6" d="M178.27,127.88a1.61,1.61,0,1,0-.64,2.06A1.52,1.52,0,0,0,178.27,127.88Z"/><path class="cls-6" d="M189,145.93a1.61,1.61,0,1,0-.64,2.06A1.54,1.54,0,0,0,189,145.93Z"/><path class="cls-6" d="M122.68,160.16a1.61,1.61,0,1,0-.64,2.06A1.52,1.52,0,0,0,122.68,160.16Z"/><path class="cls-6" d="M470.23,496a1.7,1.7,0,0,0,2,.39,1,1,0,0,0,.55-1.53,1.68,1.68,0,0,0-2-.4A1,1,0,0,0,470.23,496Z"/><path class="cls-2" d="M98,129.29c-4.6-17.77-34.22-29.16-43.58-45.71a104.38,104.38,0,0,1,17.7-18c7.64,17,36.44,28.6,45.41,45.25C113.15,116.44,106.84,122.54,98,129.29Z"/><path class="cls-15" d="M99.59,125.24C92,108.24,63.15,96.64,54.18,80c4.34-5.6,10.66-11.7,19.53-18.45,4.6,17.77,34.22,29.16,43.59,45.71A104.13,104.13,0,0,1,99.59,125.24Z"/><path class="cls-31" d="M97.8,118.72c-9.42-12.55-29.9-22.29-39.06-34.91a5.19,5.19,0,0,0-.17-6A103.19,103.19,0,0,1,68.52,68c1,1.9,3.49,2,5.48.31,7.45,13.06,28.25,22.71,38.14,35.15-1.28,1.53-1.06,4.2.36,6a106.29,106.29,0,0,1-9.1,9.53C102.18,117.16,99.63,117.05,97.8,118.72Z"/><path class="cls-6" d="M98.94,104.29c-1.93,2.19-9.35-.76-17.33-6.4S69.8,85.62,71.91,83.37s9.08.83,17,6.48S101,102.06,98.94,104.29Z"/><path class="cls-6" d="M113.18,105.88a1.66,1.66,0,0,0,.12,2,1,1,0,0,0,1.61.16,1.7,1.7,0,0,0-.1-2A1,1,0,0,0,113.18,105.88Z"/><path class="cls-6" d="M137.54,141.52a1.72,1.72,0,0,0,2-.21,1,1,0,0,0,0-1.61,1.72,1.72,0,0,0-2,.2A1,1,0,0,0,137.54,141.52Z"/><path class="cls-6" d="M71,64.36a2.08,2.08,0,0,0-.8,2.25c.31.64,1.12.69,1.81.11a2.18,2.18,0,0,0,.78-2.24C72.53,63.82,71.74,63.77,71,64.36Z"/><path class="cls-6" d="M99.49,120.23A1.86,1.86,0,0,0,99,122.4c.35.63,1.17.68,1.84.1a1.78,1.78,0,0,0,.51-2.17A1.19,1.19,0,0,0,99.49,120.23Z"/><rect class="cls-32" x="527.53" y="414.72" width="32.79" height="20.57" rx="7.03"/><rect class="cls-33" x="524.97" y="414.7" width="32.79" height="20.57" rx="7.03"/><rect class="cls-2" x="515.03" y="475.47" width="11.52" height="9.01" rx="3.58"/><path class="cls-6" d="M520,476.74a3.51,3.51,0,0,0-4.58,1.86l-4.25,10.06a3.5,3.5,0,1,0,6.44,2.72l4.25-10.06A3.51,3.51,0,0,0,520,476.74ZM514.76,491a1.79,1.79,0,1,1,1.79-1.79A1.79,1.79,0,0,1,514.76,491Z"/><path class="cls-2" d="M518.65,477.4a3.51,3.51,0,0,0-4.58,1.86l-4.25,10.07a3.5,3.5,0,0,0,6.44,2.72L520.51,482A3.51,3.51,0,0,0,518.65,477.4Zm-5.27,14.27a1.79,1.79,0,1,1,1.79-1.79A1.79,1.79,0,0,1,513.38,491.67Z"/><path class="cls-2" d="M535.59,426H562a24.93,24.93,0,0,1,24.93,24.93v61.85a7.55,7.55,0,0,1-7.55,7.55H518.2a7.55,7.55,0,0,1-7.55-7.55V450.93A24.93,24.93,0,0,1,535.59,426Z"/><path class="cls-18" d="M528.56,425.87h26.62A24.82,24.82,0,0,1,580,450.68v61.13a7.51,7.51,0,0,1-7.51,7.51H511.26a7.51,7.51,0,0,1-7.51-7.51V450.68A24.82,24.82,0,0,1,528.56,425.87Z"/><g class="cls-34"><rect class="cls-2" x="503.71" y="419.51" width="79.65" height="47.54" rx="7.03"/><rect class="cls-2" x="519.05" y="479.11" width="51.82" height="35.89" rx="7.07"/><rect class="cls-6" x="502.83" y="417.71" width="79.65" height="47.54" rx="7.03"/><rect class="cls-6" x="517.83" y="478.26" width="51.82" height="35.89" rx="7.07"/><path class="cls-2" d="M524.89,478.78H562.5a7.15,7.15,0,0,1,7.15,7.15v7.79a0,0,0,0,1,0,0H517.74a0,0,0,0,1,0,0v-7.79A7.15,7.15,0,0,1,524.89,478.78Z"/><path class="cls-15" d="M524.89,477.93H562.5a7.15,7.15,0,0,1,7.15,7.15v7.79a0,0,0,0,1,0,0H517.74a0,0,0,0,1,0,0v-7.79A7.15,7.15,0,0,1,524.89,477.93Z"/></g><path class="cls-4" d="M502.91,459V448.45c0-12.9,11.92-23.45,26.49-23.45h28.43c14.57,0,26.49,10.55,26.49,23.45V459.3"/><line class="cls-20" x1="572.81" y1="491.48" x2="514.03" y2="491.48"/><rect class="cls-2" x="514.03" y="488.75" width="9.18" height="7.18" rx="2.85"/><path class="cls-6" d="M518,489.76a2.81,2.81,0,0,0-3.65,1.49l-3.39,8a2.79,2.79,0,0,0,5.14,2.17l3.38-8A2.79,2.79,0,0,0,518,489.76Zm-4.2,11.38a1.43,1.43,0,1,1,1.43-1.43A1.43,1.43,0,0,1,513.82,501.14Z"/><path class="cls-2" d="M516.92,490.29a2.8,2.8,0,0,0-3.65,1.48l-3.39,8A2.79,2.79,0,0,0,515,502l3.38-8A2.79,2.79,0,0,0,516.92,490.29Zm-4.2,11.38a1.43,1.43,0,1,1,1.43-1.43A1.43,1.43,0,0,1,512.72,501.67Z"/><circle class="cls-2" cx="541.64" cy="446.62" r="13.11" transform="translate(-87.43 134.98) rotate(-13.15)"/><circle class="cls-15" cx="540.61" cy="446.46" r="13.11" transform="translate(-87.42 134.74) rotate(-13.15)"/><circle class="cls-20" cx="540.61" cy="446.46" r="11.17" transform="translate(-114.08 195.52) rotate(-18.58)"/><path class="cls-6" d="M535.53,450.42l8.25-3.62c.86-.38,4.49-2.79,4.07-3.59h0c-.42-.81-4.47.78-5.28,1.27l-7.7,4.68c-.22.14-.8.82-.64,1.13h0C534.39,450.6,535.29,450.52,535.53,450.42Z"/><polygon class="cls-6" points="536.35 441.38 540.17 446.76 540.66 447.62 542.85 453.74 543.69 453.27 543.93 446.02 542.95 444.62 537.18 440.92 536.35 441.38"/><polyline class="cls-6" points="534.7 449.6 533.16 447.9 533.77 447.56 536.36 448.39 536.93 449.41 537.04 449.61 536.33 452.41 535.72 452.75 535.1 450.18"/><path class="cls-6" d="M537.87,444.25l.63-.35a.31.31,0,0,0,.12-.42h0a.32.32,0,0,0-.42-.11l-.63.35a.31.31,0,0,0-.12.42h0A.31.31,0,0,0,537.87,444.25Z"/><path class="cls-6" d="M538.68,445.36l.63-.35a.31.31,0,0,0,.12-.42h0a.32.32,0,0,0-.42-.11l-.63.35a.31.31,0,0,0-.12.42h0A.31.31,0,0,0,538.68,445.36Z"/><path class="cls-6" d="M540.87,449.43l.63-.36a.3.3,0,0,0,.12-.41h0a.31.31,0,0,0-.42-.12l-.63.36a.3.3,0,0,0-.12.41h0A.31.31,0,0,0,540.87,449.43Z"/><path class="cls-6" d="M541.27,450.77l.63-.36A.3.3,0,0,0,542,450h0a.31.31,0,0,0-.42-.12l-.63.36a.3.3,0,0,0-.12.41h0A.31.31,0,0,0,541.27,450.77Z"/><rect class="cls-2" x="638.86" y="214.39" width="101.11" height="59.91" rx="13.87" transform="translate(1225.06 742.43) rotate(-156.6)"/><rect class="cls-3" x="634.2" y="212.25" width="101.11" height="59.91" rx="13.87" transform="translate(1216.97 736.47) rotate(-156.6)"/><g class="cls-35"><path class="cls-8" d="M713.09,263.63a4.41,4.41,0,1,1-3-5.5A4.4,4.4,0,0,1,713.09,263.63Z"/><path class="cls-8" d="M638,251.53a4.41,4.41,0,1,1-3-5.49A4.4,4.4,0,0,1,638,251.53Z"/><path class="cls-8" d="M716.45,284.42a4.41,4.41,0,1,1-2.94-5.5A4.39,4.39,0,0,1,716.45,284.42Z"/><path class="cls-8" d="M684.75,265a4.41,4.41,0,1,1-3-5.49A4.42,4.42,0,0,1,684.75,265Z"/><path class="cls-8" d="M696.15,247.68a4.41,4.41,0,1,1-2.94-5.5A4.39,4.39,0,0,1,696.15,247.68Z"/><path class="cls-8" d="M655.49,240a4.41,4.41,0,1,1-3-5.49A4.42,4.42,0,0,1,655.49,240Z"/><path class="cls-8" d="M736.44,230.56a4.41,4.41,0,1,1-3-5.49A4.42,4.42,0,0,1,736.44,230.56Z"/><path class="cls-8" d="M678.29,234.47a4.41,4.41,0,1,1-2.94-5.49A4.41,4.41,0,0,1,678.29,234.47Z"/><path class="cls-8" d="M647.52,219.86a4.41,4.41,0,1,1-2.94-5.49A4.4,4.4,0,0,1,647.52,219.86Z"/><path class="cls-8" d="M675.87,212a4.41,4.41,0,1,1-3-5.49A4.42,4.42,0,0,1,675.87,212Z"/><path class="cls-8" d="M734.54,260.35a4.41,4.41,0,1,1-2.95-5.49A4.42,4.42,0,0,1,734.54,260.35Z"/><path class="cls-8" d="M663.21,253.91a4.41,4.41,0,1,1-3-5.49A4.4,4.4,0,0,1,663.21,253.91Z"/><path class="cls-8" d="M705.56,223.63a4.41,4.41,0,1,1-2.95-5.49A4.42,4.42,0,0,1,705.56,223.63Z"/><path class="cls-8" d="M725.19,242.5a4.41,4.41,0,1,1-2.94-5.49A4.41,4.41,0,0,1,725.19,242.5Z"/></g><line class="cls-36" x1="740.39" y1="237.21" x2="653.66" y2="199.55"/><rect class="cls-2" x="646.88" y="195.68" width="13.51" height="10.56" rx="4.19" transform="translate(178.58 -290.92) rotate(28.91)"/><path class="cls-6" d="M654.69,197.22a4.11,4.11,0,0,0-5.76-.69l-10.06,7.92a4.1,4.1,0,1,0,5.07,6.44L654,203A4.11,4.11,0,0,0,654.69,197.22Zm-13.5,11.66a2.1,2.1,0,1,1,2.85-.83A2.1,2.1,0,0,1,641.19,208.88Z"/><path class="cls-2" d="M652.9,197.11a4.11,4.11,0,0,0-5.76-.68l-10.06,7.92a4.1,4.1,0,1,0,5.07,6.44l10.06-7.92A4.12,4.12,0,0,0,652.9,197.11Zm-13.5,11.66a2.1,2.1,0,1,1,2.85-.82A2.09,2.09,0,0,1,639.4,208.77Z"/><path class="cls-6" d="M159.26,633.77,85.78,602.68c-7.72-3.26-40.08-24.11-36.45-31.32h0C53,564.16,89,577.77,96.19,582l68.7,40.56c2,1.16,7.23,7.2,5.84,9.95h0C169.34,635.3,161.36,634.66,159.26,633.77Z"/><polygon class="cls-6" points="150.9 553.91 117.67 601.98 113.5 609.64 94.82 664.07 87.32 659.98 84.37 595.84 92.87 583.29 143.56 549.91 150.9 553.91"/><polyline class="cls-6" points="166.44 626.48 179.92 611.25 174.49 608.29 151.68 615.95 146.72 625.05 145.77 626.81 152.38 651.53 157.81 654.49 163 631.66"/><path class="cls-6" d="M137.83,579.49l-5.65-3.07a2.69,2.69,0,0,1-1.07-3.65h0a2.7,2.7,0,0,1,3.65-1.08l5.65,3.08a2.69,2.69,0,0,1,1.07,3.65h0A2.69,2.69,0,0,1,137.83,579.49Z"/><path class="cls-6" d="M130.77,589.42l-5.65-3.08a2.71,2.71,0,0,1-1.08-3.65h0a2.7,2.7,0,0,1,3.65-1.08l5.66,3.08a2.69,2.69,0,0,1,1.07,3.65h0A2.7,2.7,0,0,1,130.77,589.42Z"/><path class="cls-6" d="M111.87,625.64l-5.66-3.08a2.69,2.69,0,0,1-1.07-3.65h0a2.7,2.7,0,0,1,3.65-1.08l5.65,3.08a2.71,2.71,0,0,1,1.08,3.65h0A2.7,2.7,0,0,1,111.87,625.64Z"/><path class="cls-6" d="M108.48,637.56l-5.66-3.08a2.69,2.69,0,0,1-1.07-3.65h0a2.71,2.71,0,0,1,3.65-1.08l5.65,3.08a2.72,2.72,0,0,1,1.08,3.66h0A2.7,2.7,0,0,1,108.48,637.56Z"/><rect class="cls-2" x="637.83" y="598.84" width="23.48" height="42.27" rx="4.32" transform="translate(1423.31 164.32) rotate(105.84)"/><rect class="cls-2" x="580.43" y="660.11" width="104.08" height="42.27" rx="4.85" transform="translate(1460.48 258.76) rotate(105.84)"/><path class="cls-3" d="M668.24,611.12a4.34,4.34,0,0,1,3,5.35l-4,14.26a4.34,4.34,0,0,1-5.34,3l-32.35-9.18a4.33,4.33,0,0,1-3-5.34l4-14.26a4.33,4.33,0,0,1,5.34-3"/><rect class="cls-3" x="579.73" y="657.96" width="104.08" height="42.27" rx="4.85" transform="matrix(-0.27, 0.96, -0.96, -0.27, 1457.53, 256.7)"/><line class="cls-4" x1="630.3" y1="624.59" x2="633.04" y2="625.36"/><line class="cls-5" x1="638.21" y1="626.83" x2="656.32" y2="631.97"/><line class="cls-4" x1="658.9" y1="632.7" x2="661.64" y2="633.48"/><path class="cls-2" d="M680.37,613.2l23.14,24.39a4.35,4.35,0,0,1-.16,6.12l-10.76,10.2a4.33,4.33,0,0,1-6.11-.16l-23.14-24.39a4.33,4.33,0,0,1,.16-6.11L674.26,613a4.34,4.34,0,0,1,6.11.16"/><rect class="cls-2" x="585.43" y="656.32" width="104.08" height="42.27" rx="4.85" transform="translate(1566.18 730.18) rotate(136.51)"/><path class="cls-6" d="M680.86,611,704,635.39a4.33,4.33,0,0,1-.16,6.11l-10.75,10.21a4.36,4.36,0,0,1-6.12-.16l-23.14-24.4A4.34,4.34,0,0,1,664,621l10.76-10.2"/><rect class="cls-6" x="585.92" y="654.11" width="104.08" height="42.27" rx="4.85" transform="translate(1565.52 726.03) rotate(136.51)"/><path class="cls-2" d="M681.75,629.68l-6.9-6.66c-.73-.7-3.46-4.44-2.74-5.09h0c.72-.65,4.17,2.43,4.8,3.22l6,7.52c.17.21.5,1.12.23,1.37h0C682.81,630.29,681.94,629.87,681.75,629.68Z"/><polygon class="cls-2" points="684.26 620.36 678.45 624.32 677.65 625 673.21 630.3 672.54 629.51 674.98 622.19 676.48 621.15 683.61 619.6 684.26 620.36"/><polyline class="cls-2" points="682.87 629.17 685.03 628.05 684.55 627.48 681.66 627.35 680.72 628.16 680.53 628.32 680.21 631.38 680.69 631.94 682.26 629.61"/><path class="cls-2" d="M681.69,622.67l-.5-.59a.33.33,0,0,1,0-.46h0a.33.33,0,0,1,.46,0l.5.59a.32.32,0,0,1,0,.45h0A.32.32,0,0,1,681.69,622.67Z"/><path class="cls-2" d="M680.47,623.47l-.51-.58a.34.34,0,0,1,0-.46h0a.32.32,0,0,1,.46,0l.5.59a.32.32,0,0,1,0,.45h0A.31.31,0,0,1,680.47,623.47Z"/><path class="cls-2" d="M676.78,626.72l-.5-.59a.31.31,0,0,1,0-.45h0a.32.32,0,0,1,.45,0l.5.59a.33.33,0,0,1,0,.46h0A.33.33,0,0,1,676.78,626.72Z"/><path class="cls-2" d="M675.89,627.91l-.51-.59a.33.33,0,0,1,0-.45h0a.33.33,0,0,1,.46,0l.5.59a.33.33,0,0,1,0,.46h0A.32.32,0,0,1,675.89,627.91Z"/><line class="cls-4" x1="664.5" y1="627.62" x2="666.46" y2="629.68"/><line class="cls-7" x1="670.16" y1="633.58" x2="683.11" y2="647.23"/><line class="cls-4" x1="684.96" y1="649.18" x2="686.92" y2="651.25"/><line class="cls-4" x1="691.93" y1="628.37" x2="681.11" y2="638.63"/><line class="cls-4" x1="695.66" y1="632.3" x2="684.84" y2="642.56"/><line class="cls-4" x1="699.02" y1="635.84" x2="688.21" y2="646.1"/><rect class="cls-4" x="622.54" y="649.93" width="54.53" height="30.72" rx="2.23" transform="translate(1579.11 700.69) rotate(136.51)"/><line class="cls-4" x1="632.19" y1="664.07" x2="650.37" y2="683.23"/><line class="cls-4" x1="668.97" y1="650.14" x2="644.36" y2="673.49"/><line class="cls-4" x1="635.19" y1="671.33" x2="628.38" y2="677.79"/><line class="cls-4" x1="616.19" y1="676.93" x2="594.53" y2="697.48"/><line class="cls-4" x1="619.92" y1="680.87" x2="598.26" y2="701.41"/><line class="cls-4" x1="623.28" y1="684.41" x2="601.63" y2="704.96"/><rect class="cls-8" x="606.59" y="697.66" width="29.85" height="13.15" rx="1.64" transform="translate(1557.09 787.37) rotate(136.51)"/><path d="M342.54,851.37a7.63,7.63,0,0,1-9.52-5.1l-13.38-44.33a7.63,7.63,0,0,1,5.1-9.52l46.25-14a7.64,7.64,0,0,1,9.52,5.1l13.38,44.33a7.64,7.64,0,0,1-5.1,9.52l-46.25,14"/><rect x="333.43" y="781.51" width="63.58" height="58.54" rx="7.44" transform="translate(-218.74 140.15) rotate(-16.8)"/><rect class="cls-2" x="300.43" y="757.42" width="68.82" height="32.14" transform="translate(767.83 50.35) rotate(54.32)"/><rect class="cls-15" x="296.95" y="757.08" width="68.82" height="32.14" transform="translate(766.11 53.04) rotate(54.32)"/><path class="cls-37" d="M358.4,786.58,327,742.88a5,5,0,0,1-7-1.14L305.72,752a5,5,0,0,1-1.15,7L336,802.7a5,5,0,0,1,7,1.15l14.34-10.3A5,5,0,0,1,358.4,786.58Z"/><path class="cls-6" d="M342.15,786.46c3.29-2.34,1.54-10.35-3.91-17.88s-12.52-11.74-15.81-9.39-1.54,10.35,3.91,17.88S338.86,788.81,342.15,786.46Z"/><path class="cls-6" d="M339,804.64a1.75,1.75,0,0,1,2.35.33,1.53,1.53,0,0,1-.43,2.21,1.73,1.73,0,0,1-2.35-.33A1.53,1.53,0,0,1,339,804.64Z"/><path class="cls-6" d="M322.11,738.82a1.76,1.76,0,0,1,2.36.33,1.53,1.53,0,0,1-.43,2.21,1.73,1.73,0,0,1-2.35-.32A1.55,1.55,0,0,1,322.11,738.82Z"/><path class="cls-6" d="M301.66,753.1a1.74,1.74,0,0,1,2.35.33,1.53,1.53,0,0,1-.43,2.21,1.74,1.74,0,0,1-2.35-.33A1.53,1.53,0,0,1,301.66,753.1Z"/><path class="cls-6" d="M360.07,789.43a1.75,1.75,0,0,1,2.35.33A1.55,1.55,0,0,1,362,792a1.75,1.75,0,0,1-2.35-.33A1.55,1.55,0,0,1,360.07,789.43Z"/><rect class="cls-2" x="348.5" y="753.92" width="64.44" height="36.9" rx="2.75" transform="translate(121.42 -48.77) rotate(8.71)"/><rect class="cls-8" x="345.42" y="753.31" width="64.44" height="36.9" rx="2.75" transform="translate(121.3 -48.31) rotate(8.71)"/><rect class="cls-2" x="346.04" y="766.25" width="64.44" height="2.9" transform="translate(120.69 -48.45) rotate(8.71)"/><path class="cls-38" d="M348.42,775.59a5.9,5.9,0,1,0,6.73-4.94A5.9,5.9,0,0,0,348.42,775.59Z"/><path class="cls-9" d="M354.26,776.49a5.9,5.9,0,1,0,6.73-4.94A5.91,5.91,0,0,0,354.26,776.49Z"/><rect class="cls-38" x="394.27" y="759.04" width="11.99" height="7.39" rx="1.8" transform="translate(120.19 -51.84) rotate(8.71)"/><rect class="cls-39" x="395.89" y="759.29" width="11.99" height="7.39" rx="1.8" transform="translate(120.25 -52.08) rotate(8.71)"/><path class="cls-39" d="M358,783h0a5.92,5.92,0,0,0,6.73-4.94h0a5.92,5.92,0,0,0-4.94-6.73h0A5.92,5.92,0,0,0,353,776.3h0A5.92,5.92,0,0,0,358,783Z"/><path class="cls-18" d="M341.11,851.8l-16.92-56L379.7,779a7.55,7.55,0,0,1,9.42,5l12.55,41.58a7.54,7.54,0,0,1-5.05,9.41L341.11,851.8"/><rect class="cls-2" x="368.61" y="801.02" width="32.02" height="18.55" rx="3.9" transform="translate(-217.77 145.74) rotate(-16.8)"/><path class="cls-38" d="M374,813.52a6.42,6.42,0,1,0,4.29-8A6.42,6.42,0,0,0,374,813.52Z"/><path class="cls-9" d="M289.93,307.28a32.57,32.57,0,0,0-32.57,32.57c0,18,29.78,58.28,29.78,58.28s35.35-40.29,35.35-58.28A32.57,32.57,0,0,0,289.93,307.28Zm0,48.33a17.79,17.79,0,1,1,17.78-17.78A17.78,17.78,0,0,1,289.93,355.61Z"/><path class="cls-2" d="M231,556.13c-.63.56-3.14-1.24-5.6-4s-3.93-5.5-3.29-6.06,3.14,1.24,5.6,4S231.67,555.57,231,556.13Z"/><rect class="cls-2" x="221.2" y="548.13" width="13.44" height="3.56" transform="translate(489.6 15.24) rotate(48.59)"/><path class="cls-18" d="M233.7,553.78c-.63.56-3.14-1.25-5.59-4s-3.93-5.5-3.3-6.06,3.14,1.25,5.6,4S234.34,553.21,233.7,553.78Z"/><path class="cls-6" d="M380.91,642.91a1.61,1.61,0,1,0-2.12-.43,1.54,1.54,0,0,0,2.12.43"/><rect class="cls-2" x="283.02" y="571.34" width="114.02" height="67.56" rx="15.64" transform="translate(979.07 876.09) rotate(142.31)"/><rect class="cls-18" x="278.37" y="574.78" width="114.02" height="67.56" rx="15.64" transform="translate(972.83 885.09) rotate(142.31)"/><g class="cls-40"><path class="cls-8" d="M372,592.27a5,5,0,1,1-7-.09A5,5,0,0,1,372,592.27Z"/><path class="cls-8" d="M319.08,659.84a5,5,0,1,1-7-.09A5,5,0,0,1,319.08,659.84Z"/><path class="cls-8" d="M394.32,600.28a5,5,0,1,1-7-.09A5,5,0,0,1,394.32,600.28Z"/><path class="cls-8" d="M357.9,621a5,5,0,1,1-7-.08A5,5,0,0,1,357.9,621Z"/><path class="cls-8" d="M347,600.29a5,5,0,1,1-7-.09A5,5,0,0,1,347,600.29Z"/><path class="cls-8" d="M317.25,636.25a5,5,0,1,1-7-.09A5,5,0,0,1,317.25,636.25Z"/><path class="cls-8" d="M352.05,551.2a5,5,0,1,1-7-.09A5,5,0,0,1,352.05,551.2Z"/><path class="cls-8" d="M324.22,610.72a5,5,0,1,1-7-.08A5,5,0,0,1,324.22,610.72Z"/><path class="cls-8" d="M293,633.13a5,5,0,1,1-7-.08A5,5,0,0,1,293,633.13Z"/><path class="cls-8" d="M300.71,600.86a5,5,0,1,1-7-.08A5,5,0,0,1,300.71,600.86Z"/><path class="cls-8" d="M380.42,569.31a5,5,0,1,1-7-.09A5,5,0,0,1,380.42,569.31Z"/><path class="cls-8" d="M335.19,636.21a5,5,0,1,1-7-.09A5,5,0,0,1,335.19,636.21Z"/><path class="cls-8" d="M328.38,577.9a5,5,0,1,1-7-.08A5,5,0,0,1,328.38,577.9Z"/><path class="cls-8" d="M357.71,568.8a5,5,0,1,1-7-.08A5,5,0,0,1,357.71,568.8Z"/></g><line class="cls-36" x1="360.78" y1="550.92" x2="276.32" y2="616.01"/><path class="cls-2" d="M270.6,619.81l1.3,2.08a4.74,4.74,0,0,0,6.52,1.48l4.89-3.07a4.74,4.74,0,0,0,1.48-6.52l-1.3-2.08a4.74,4.74,0,0,0-6.52-1.48"/><path class="cls-6" d="M270.76,619l2.34,14.25a4.62,4.62,0,1,0,9.12-1.49l-2.33-14.25a4.64,4.64,0,0,0-5.31-3.82"/><path class="cls-6" d="M278.73,633.4a2.37,2.37,0,1,1,.74-3.27A2.37,2.37,0,0,1,278.73,633.4Z"/><path class="cls-2" d="M269.69,620.73,272,635a4.62,4.62,0,0,0,9.12-1.5l-2.33-14.25a4.63,4.63,0,0,0-5.31-3.81"/><path class="cls-2" d="M277.65,635.11a2.37,2.37,0,1,1,.75-3.27A2.37,2.37,0,0,1,277.65,635.11Z"/><rect class="cls-2" x="24.77" y="782.08" width="69.88" height="26.65" transform="translate(677.74 291.14) rotate(55.08)"/><rect class="cls-15" x="25.22" y="778.91" width="69.88" height="26.65" transform="translate(675.33 289.42) rotate(55.08)"/><path class="cls-30" d="M66.36,821.57,34.5,775.94a4.56,4.56,0,0,0,1.13-6.35l11.31-7.89a4.57,4.57,0,0,0,6.35,1.13l31.85,45.63A4.57,4.57,0,0,0,84,814.81l-11.3,7.89A4.57,4.57,0,0,0,66.36,821.57Z"/><path class="cls-6" d="M69.73,806.4c-2.76,1.93-9.38-2.79-14.79-10.53s-7.54-15.58-4.78-17.51,9.39,2.79,14.79,10.53S72.5,804.47,69.73,806.4Z"/><path class="cls-6" d="M85.8,811a1.61,1.61,0,1,0,2.11.48A1.53,1.53,0,0,0,85.8,811Z"/><path class="cls-6" d="M31.81,770.3a1.61,1.61,0,1,0,2.11.49A1.53,1.53,0,0,0,31.81,770.3Z"/><path class="cls-6" d="M49,758.3a1.61,1.61,0,0,0,1.84,2.63A1.61,1.61,0,0,0,49,758.3Z"/><path class="cls-6" d="M68.19,823.3a1.61,1.61,0,1,0,2.11.49A1.54,1.54,0,0,0,68.19,823.3Z"/><path class="cls-2" d="M39.27,850.28C21.9,856.21,12.77,886.6-3,897.18a103.87,103.87,0,0,1-19.27-16.3C-5.93,872,3.47,842.4,19.4,832.19,25.31,836.1,31.87,841.94,39.27,850.28Z"/><path class="cls-15" d="M35.1,849c-16.37,8.9-25.77,38.49-41.7,48.69-5.91-3.91-12.47-9.75-19.87-18.09,17.37-5.93,26.5-36.32,42.31-46.9A104.57,104.57,0,0,1,35.1,849Z"/><path class="cls-31" d="M28.74,851.24c-11.81,10.34-20,31.49-31.87,41.57a5.2,5.2,0,0,0-6,.63,102.19,102.19,0,0,1-10.46-9.19c1.82-1.14,1.77-3.63-.1-5.48,12.46-8.42,20.52-29.89,32.18-40.69,1.63,1.17,4.27.74,6-.81a105.88,105.88,0,0,1,10.18,8.37C26.86,847,26.93,849.54,28.74,851.24Z"/><path class="cls-6" d="M14.26,851.19c2.33,1.75,0,9.38-5.08,17.76s-11.34,12.7-13.74,10.76.14-9.11,5.18-17.45S11.89,849.32,14.26,851.19Z"/><path class="cls-6" d="M14.78,836.86a1.67,1.67,0,0,0,2-.26,1,1,0,0,0,0-1.62,1.7,1.7,0,0,0-2,.25A1,1,0,0,0,14.78,836.86Z"/><path class="cls-6" d="M30.12,849.44a1.87,1.87,0,0,0,2.2.33c.6-.4.59-1.22,0-1.85a1.79,1.79,0,0,0-2.2-.35A1.2,1.2,0,0,0,30.12,849.44Z"/></svg>