<?xml version="1.0" encoding="utf-8"?>
<!-- Generator: Adobe Illustrator 26.3.1, SVG Export Plug-In . SVG Version: 6.00 Build 0)  -->
<svg version="1.1" id="Слой_1" xmlns="http://www.w3.org/2000/svg" xmlns:xlink="http://www.w3.org/1999/xlink" x="0px" y="0px"
	 viewBox="0 0 858.6 252.1" style="enable-background:new 0 0 858.6 252.1;" xml:space="preserve">
<style type="text/css">
	.st0{fill:#E5E5EA;}
	.st1{font-family:'Arial-BoldMT';}
	.st2{font-size:48px;}
</style>
<g id="Слой_2_00000135666817408976892400000004743270116566594474_">
	<g id="Objects">
		<path class="st0" d="M858.6,68.1v108.2c0,37.6-30.5,68.1-68.2,68.1H91.1c-14.9,0-29.3-4.8-41.1-13.8C24.8,248,0,252.1,0,252.1
			s23-21.3,23-75.8V68.1C23,30.5,53.5,0,91.1,0h699.3C828.1,0,858.6,30.5,858.6,68.1C858.6,68.1,858.6,68.1,858.6,68.1z"/>
		<text transform="matrix(1 0 0 1 77.24 81.12)" class="st1 st2">Hi!</text>
		<text transform="matrix(1 0 0 1 77.24 138.72)" class="st1 st2">How about a spontaneous trip </text>
		<text transform="matrix(1 0 0 1 77.24 196.32)" class="st1 st2">next week?</text>
	</g>
</g>
</svg>
